<svg xmlns="http://www.w3.org/2000/svg">
  <symbol id="ticket-star" viewBox="0 0 32 29" fill="none">
    <g>
      <path d="M22.6585 4.71094H9.32521C4.21854 4.71094 2.79188 5.79485 2.67188 10.0127C5.24521 10.0127 7.32521 11.8624 7.32521 14.1363C7.32521 16.4102 5.24521 18.2481 2.67188 18.2599C2.79188 22.4777 4.21854 23.5616 9.32521 23.5616H22.6585C27.9919 23.5616 29.3252 22.3835 29.3252 17.6708V10.6018C29.3252 5.88911 27.9919 4.71094 22.6585 4.71094Z" stroke="white" stroke-width="2" stroke-linecap="round" stroke-linejoin="round"/>
      <path d="M11.9922 4.71094V8.83453" stroke="white" stroke-width="2" stroke-linecap="round" stroke-linejoin="round"/>
      <path d="M11.9922 19.4414V23.565" stroke="white" stroke-width="2" stroke-linecap="round" stroke-linejoin="round"/>
      <path d="M20.0321 10.9927L20.8587 12.4654C20.9387 12.6068 21.0987 12.7128 21.2721 12.7364L23.1121 12.972C23.5654 13.0309 23.7521 13.5257 23.4187 13.8085L22.0854 14.9513C21.9521 15.0574 21.8987 15.2223 21.9254 15.3872L22.2454 17.0013C22.3254 17.4019 21.8454 17.7082 21.4454 17.5197L19.8054 16.7539C19.6454 16.6832 19.4454 16.6832 19.2854 16.7539L17.6454 17.5197C17.2321 17.7082 16.7654 17.4019 16.8454 17.0013L17.1654 15.3872C17.1921 15.2223 17.1387 15.0691 17.0054 14.9513L15.6854 13.8085C15.3521 13.5257 15.5387 13.0309 15.9921 12.972L17.8321 12.7364C18.0187 12.7128 18.1654 12.6185 18.2454 12.4654L19.0587 10.9927C19.2454 10.6274 19.8321 10.6274 20.0321 10.9927Z" stroke="white" stroke-width="2" stroke-linecap="round" stroke-linejoin="round"/>
    </g>
  </symbol>

  <symbol id="ticket" viewBox="0 0 30 24" fill="none">
    <g>
      <path fill-rule="evenodd" clip-rule="evenodd" d="M2.29322 1.95826C3.61123 0.64025 5.67414 0.332031 8.33366 0.332031H21.667C24.3265 0.332031 26.3894 0.64025 27.7074 1.95826C29.0254 3.27627 29.3337 5.33918 29.3337 7.9987V9.33203C29.3337 9.88432 28.8859 10.332 28.3337 10.332C27.0459 10.332 26.0003 11.3776 26.0003 12.6654C26.0003 13.9531 27.0459 14.9987 28.3337 14.9987C28.8859 14.9987 29.3337 15.4464 29.3337 15.9987C29.3337 18.6582 29.0254 20.7211 27.7074 22.0391C26.3894 23.3571 24.3265 23.6654 21.667 23.6654H8.33366C5.67414 23.6654 3.61123 23.3571 2.29322 22.0391C0.975211 20.7211 0.666992 18.6582 0.666992 15.9987V15.332C0.666992 14.7797 1.11471 14.332 1.66699 14.332C2.95471 14.332 4.00033 13.2864 4.00033 11.9987C4.00033 10.711 2.95471 9.66536 1.66699 9.66536C1.11471 9.66536 0.666992 9.21765 0.666992 8.66536V7.9987C0.666992 5.33918 0.975211 3.27627 2.29322 1.95826ZM2.6678 7.78163C4.57798 8.23366 6.00033 9.95085 6.00033 11.9987C6.00033 14.0465 4.57798 15.7637 2.6678 16.2158C2.68692 18.7418 3.04416 19.9617 3.70743 20.6249C4.38942 21.3069 5.65985 21.6654 8.33366 21.6654H21.667C24.3408 21.6654 25.6112 21.3069 26.2932 20.6249C26.8956 20.0226 27.2455 18.9611 27.3191 16.8791C25.4158 16.4221 24.0003 14.7083 24.0003 12.6654C24.0003 10.6172 25.4231 8.89984 27.3337 8.44811V7.9987C27.3337 5.32488 26.9752 4.05446 26.2932 3.37247C25.6112 2.69048 24.3408 2.33203 21.667 2.33203H8.33366C5.65985 2.33203 4.38942 2.69048 3.70743 3.37247C3.04416 4.03574 2.68692 5.25557 2.6678 7.78163Z" fill="white"/>
      <path fill-rule="evenodd" clip-rule="evenodd" d="M12.334 0.332031C12.8863 0.332031 13.334 0.779746 13.334 1.33203L13.334 3.9987C13.334 4.55098 12.8863 4.9987 12.334 4.9987C11.7817 4.9987 11.334 4.55098 11.334 3.9987L11.334 1.33203C11.334 0.779746 11.7817 0.332031 12.334 0.332031ZM12.334 8.33203C12.8863 8.33203 13.334 8.77975 13.334 9.33203L13.334 14.6654C13.334 15.2176 12.8863 15.6654 12.334 15.6654C11.7817 15.6654 11.334 15.2176 11.334 14.6654L11.334 9.33203C11.334 8.77975 11.7817 8.33203 12.334 8.33203ZM12.334 18.9987C12.8863 18.9987 13.334 19.4464 13.334 19.9987L13.334 22.6654C13.334 23.2176 12.8863 23.6654 12.334 23.6654C11.7817 23.6654 11.334 23.2176 11.334 22.6654L11.334 19.9987C11.334 19.4464 11.7817 18.9987 12.334 18.9987Z" fill="white"/>
    </g>
  </symbol>

  <symbol id="ticket-2" viewBox="0 0 32 32" fill="none">
    <g>
      <path d="M25.212 19.5896C25.212 21.3096 26.6254 22.7096 28.3454 22.7096C28.3454 27.7096 27.092 28.9629 22.092 28.9629H9.58536C4.58536 28.9629 3.33203 27.7096 3.33203 22.7096V22.0962C5.05203 22.0962 6.46536 20.6829 6.46536 18.9629C6.46536 17.2429 5.05203 15.8296 3.33203 15.8296V15.2162C3.34536 10.2162 4.58536 8.96289 9.58536 8.96289H22.0787C27.0787 8.96289 28.332 10.2162 28.332 15.2162V16.4696C26.612 16.4696 25.212 17.8562 25.212 19.5896Z" stroke="white" stroke-width="2" stroke-linecap="round" stroke-linejoin="round"/>
      <path d="M21.6161 8.96366H9.49609L13.4028 5.05699C16.5894 1.87033 18.1894 1.87033 21.3761 5.05699L22.1761 5.85699C21.3361 6.69699 21.1361 7.93699 21.6161 8.96366Z" stroke="white" stroke-width="2" stroke-linecap="round" stroke-linejoin="round"/>
      <path d="M13.1719 8.96387L13.1719 28.9639" stroke="white" stroke-width="2" stroke-linecap="round" stroke-linejoin="round" stroke-dasharray="5 5"/>
    </g>
  </symbol>

  <symbol id="map" viewBox="0 0 32 32" fill="none">
    <g>
      <path d="M29.3337 12.0003V20.0003C29.3337 23.3337 28.667 25.667 27.1737 27.1737L18.667 18.667L28.9737 8.36035C29.2137 9.41368 29.3337 10.6137 29.3337 12.0003Z" stroke="white" stroke-width="2" stroke-linecap="round" stroke-linejoin="round"/>
      <path d="M28.9737 8.36033L8.36031 28.9737C4.34698 28.0537 2.66699 25.2803 2.66699 20.0003V12.0003C2.66699 5.33366 5.33366 2.66699 12.0003 2.66699H20.0003C25.2803 2.66699 28.0537 4.347 28.9737 8.36033Z" stroke="white" stroke-width="2" stroke-linecap="round" stroke-linejoin="round"/>
      <path d="M27.1737 27.1737C25.667 28.667 23.3337 29.3337 20.0004 29.3337H12.0004C10.6137 29.3337 9.41368 29.2137 8.36035 28.9737L18.667 18.667L27.1737 27.1737Z" stroke="white" stroke-width="2" stroke-linecap="round" stroke-linejoin="round"/>
      <path d="M8.32035 10.64C9.22702 6.73329 15.0937 6.73329 16.0004 10.64C16.5204 12.9333 15.0803 14.88 13.8137 16.08C12.8937 16.96 11.4404 16.96 10.507 16.08C9.24037 14.88 7.78702 12.9333 8.32035 10.64Z" stroke="white" stroke-width="2"/>
      <path d="M12.1261 11.6003H12.1381" stroke="white" stroke-width="2" stroke-linecap="round" stroke-linejoin="round"/>
    </g>
  </symbol>

  <symbol id="rules" viewBox="0 0 32 32" fill="none">
    <g>
      <path d="M28 9.33366V22.667C28 26.667 26 29.3337 21.3333 29.3337H10.6667C6 29.3337 4 26.667 4 22.667V9.33366C4 5.33366 6 2.66699 10.6667 2.66699H21.3333C26 2.66699 28 5.33366 28 9.33366Z" stroke="white" stroke-width="2" stroke-miterlimit="10" stroke-linecap="round" stroke-linejoin="round"/>
      <path d="M20.6663 2.66699V13.147C20.6663 13.7336 19.973 14.027 19.5463 13.6403L16.453 10.787C16.1997 10.547 15.7996 10.547 15.5463 10.787L12.453 13.6403C12.0264 14.027 11.333 13.7336 11.333 13.147V2.66699H20.6663Z" stroke="white" stroke-width="2" stroke-miterlimit="10" stroke-linecap="round" stroke-linejoin="round"/>
      <path d="M17.667 18.667H23.3337" stroke="white" stroke-width="2" stroke-miterlimit="10" stroke-linecap="round" stroke-linejoin="round"/>
      <path d="M12 24H23.3333" stroke="white" stroke-width="2" stroke-miterlimit="10" stroke-linecap="round" stroke-linejoin="round"/>
    </g>
  </symbol>

  <symbol id="routing" viewBox="0 0 32 32" fill="none">
    <g>
      <path d="M7.29362 12.0013C9.87095 12.0013 11.9603 9.91196 11.9603 7.33464C11.9603 4.75731 9.87095 2.66797 7.29362 2.66797C4.71629 2.66797 2.62695 4.75731 2.62695 7.33464C2.62695 9.91196 4.71629 12.0013 7.29362 12.0013Z" stroke="white" stroke-width="2"/>
      <path d="M22.6266 20H26.6266C28.0933 20 29.2933 21.2 29.2933 22.6667V26.6667C29.2933 28.1333 28.0933 29.3333 26.6266 29.3333H22.6266C21.16 29.3333 19.96 28.1333 19.96 26.6667V22.6667C19.96 21.2 21.16 20 22.6266 20Z" stroke="white" stroke-width="2"/>
      <path d="M16.0003 6.66797H19.5736C22.0403 6.66797 23.1869 9.7213 21.3336 11.348L10.6803 20.668C8.82692 22.2813 9.97358 25.3346 12.4269 25.3346H16.0003" stroke="white" stroke-width="2" stroke-linecap="round" stroke-linejoin="round"/>
      <path d="M7.31496 7.33464H7.33036" stroke="white" stroke-width="2" stroke-linecap="round" stroke-linejoin="round"/>
      <path d="M24.648 24.6667H24.6634" stroke="white" stroke-width="2" stroke-linecap="round" stroke-linejoin="round"/>
    </g>
  </symbol>

  <symbol id="clock" viewBox="0 0 32 32" fill="none">
    <g>
      <path d="M29.3337 16.0013C29.3337 23.3613 23.3603 29.3346 16.0003 29.3346C8.64033 29.3346 2.66699 23.3613 2.66699 16.0013C2.66699 8.6413 8.64033 2.66797 16.0003 2.66797C23.3603 2.66797 29.3337 8.6413 29.3337 16.0013Z" stroke="#2C2C2C" stroke-width="2" stroke-linecap="round" stroke-linejoin="round"/>
      <path d="M20.9468 20.2384L16.8135 17.7717C16.0935 17.3451 15.5068 16.3184 15.5068 15.4784V10.0117" stroke="#2C2C2C" stroke-width="2" stroke-linecap="round" stroke-linejoin="round"/>
    </g>
  </symbol>

  <symbol id="close" viewBox="0 0 32 32">
    <g>
      <path d="M3.41421 1.41391C2.63317 0.632863 1.36683 0.632863 0.585786 1.41391C-0.195262 2.19496 -0.195262 3.46129 0.585786 4.24234L12.8431 16.4997L0.8873 28.4555C0.106251 29.2366 0.106251 30.5029 0.8873 31.284C1.66835 32.065 2.93468 32.065 3.71573 31.284L15.6716 19.3281L27.4558 31.1124C28.2369 31.8934 29.5032 31.8934 30.2843 31.1124C31.0653 30.3313 31.0653 29.065 30.2843 28.284L18.5 16.4997L30.5858 4.41391C31.3668 3.63286 31.3668 2.36653 30.5858 1.58548C29.8047 0.804436 28.5384 0.804436 27.7574 1.58548L15.6716 13.6713L3.41421 1.41391Z" fill="white"/>
    </g>
  </symbol>

  <symbol id="arrow-right" viewBox="0 0 20 14">
    <g>
      <path fill-rule="evenodd" clip-rule="evenodd" d="M11.8979 0.522224C12.1898 0.228355 12.6647 0.22677 12.9586 0.518684L19.0286 6.54831C19.1703 6.6891 19.25 6.88062 19.25 7.0804C19.25 7.28018 19.1703 7.47171 19.0286 7.6125L12.9586 13.6421C12.6647 13.934 12.1898 13.9325 11.8979 13.6386C11.606 13.3447 11.6076 12.8698 11.9014 12.5779L16.6808 7.8304L1.5 7.8304C1.08579 7.8304 0.75 7.49462 0.75 7.0804C0.75 6.66619 1.08579 6.3304 1.5 6.3304L16.6808 6.3304L11.9014 1.58288C11.6076 1.29096 11.606 0.816093 11.8979 0.522224Z"/>
    </g>
  </symbol>

  <symbol id="arrow-left" viewBox="0 0 20 14">
    <g>
      <path fill-rule="evenodd" clip-rule="evenodd" d="M8.1021 0.362068C8.39401 0.655937 8.39243 1.13081 8.09856 1.42272L3.31924 6.17025H18.5C18.9142 6.17025 19.25 6.50603 19.25 6.92025C19.25 7.33446 18.9142 7.67025 18.5 7.67025H3.31924L8.09856 12.4178C8.39243 12.7097 8.39401 13.1846 8.1021 13.4784C7.81018 13.7723 7.33531 13.7739 7.04144 13.482L0.971443 7.45234C0.829706 7.31155 0.75 7.12003 0.75 6.92025C0.75 6.72047 0.829706 6.52894 0.971443 6.38815L7.04144 0.358528C7.33531 0.066614 7.81018 0.0681986 8.1021 0.362068Z"/>
    </g>
  </symbol>

  <symbol id="vk" viewBox="0 0 40 40">
    <g>
      <rect width="40" height="40" rx="20" fill="#0077FF"/>
      <path d="M20.9825 27C13.466 27 9.17864 21.7447 9 13H12.7651C12.8888 19.4184 15.6646 22.1371 17.8632 22.6977V13H21.4085V18.5355C23.5796 18.2973 25.8607 15.7748 26.6302 13H30.1755C29.8855 14.4391 29.3075 15.8017 28.4776 17.0025C27.6477 18.2033 26.5837 19.2166 25.3523 19.979C26.7269 20.6756 27.941 21.6615 28.9145 22.8717C29.888 24.082 30.5988 25.489 31 27H27.0974C26.7373 25.6876 26.0054 24.5128 24.9934 23.6228C23.9814 22.7328 22.7343 22.1673 21.4085 21.997V27H20.9825Z" fill="white"/>
    </g>
  </symbol>

  <symbol id="telegram" viewBox="0 0 40 40">
    <g>
      <rect width="40" height="40" rx="20" fill="#27A6E5"/>
      <path d="M28 12.6022L24.9946 28.2923C24.9946 28.2923 24.5741 29.3801 23.4189 28.8584L16.4846 23.3526L16.4524 23.3364C17.3891 22.4654 24.6524 15.7027 24.9698 15.3961C25.4613 14.9214 25.1562 14.6387 24.5856 14.9974L13.8568 22.053L9.71764 20.6108C9.71764 20.6108 9.06626 20.3708 9.00359 19.8491C8.9401 19.3265 9.73908 19.0439 9.73908 19.0439L26.6131 12.1889C26.6131 12.1889 28 11.5579 28 12.6022Z" fill="#FEFEFE"/>
    </g>
  </symbol>

  <symbol id="ok" viewBox="0 0 40 40">
    <g>
      <rect width="40" height="40" rx="20" fill="#F79A38"/>
      <path d="M26.2376 22.7928C26.7624 22.2681 26.8373 21.5185 26.3876 20.7689C26.0128 20.1692 25.3381 19.8694 24.5885 20.0193C24.2887 20.0942 23.9888 20.2442 23.689 20.469C21.3652 22.0432 18.2168 21.9683 15.893 20.3941C15.7431 20.3191 15.5932 20.2442 15.4433 20.1692C14.6187 19.7944 13.7941 19.9443 13.3444 20.6939C12.8196 21.4435 12.8946 22.2681 13.5692 22.9428C13.7192 23.0927 13.8691 23.1676 13.944 23.3176L14.019 23.3925C15.0685 24.2171 16.3428 24.7418 17.9919 24.9667L17.0174 25.9412C16.1929 26.7658 15.2933 27.6653 14.4688 28.4899C14.2439 28.7148 13.944 29.0896 13.944 29.6143C13.944 30.2889 14.3188 30.9636 14.9935 31.2634C15.2184 31.4133 15.4433 31.4133 15.6681 31.4133C16.0429 31.4133 16.4927 31.2634 16.7926 30.8886C17.917 29.7642 18.8165 28.8647 19.716 27.9651C19.791 27.8902 19.791 27.8902 19.791 27.8902C19.791 27.8902 19.866 27.8902 19.866 27.9651C20.4656 28.6398 21.1403 29.2395 21.74 29.9141C22.0398 30.214 22.3397 30.5138 22.6395 30.8137C23.0143 31.1885 23.3142 31.3384 23.7639 31.3384C24.4386 31.4134 25.1882 30.9636 25.488 30.2889C25.7879 29.6892 25.638 28.9396 25.1132 28.4899C24.3636 27.7403 23.614 26.9157 22.7894 26.1661L21.5151 24.8917C22.1898 24.8168 22.9394 24.6669 23.614 24.367C24.7384 23.9922 25.563 23.4675 26.2376 22.7928Z" fill="white"/>
      <path d="M19.791 20.6939C23.0143 20.6939 25.638 18.1452 25.638 14.9219C25.638 13.3477 25.0383 11.8485 23.9138 10.7241C22.7894 9.59969 21.3652 9 19.866 9C16.6426 9 14.094 11.6236 14.019 14.772C14.019 16.3462 14.6187 17.7704 15.7431 18.8948C16.7926 20.0942 18.2168 20.6939 19.791 20.6939ZM18.1419 13.1978C18.5916 12.7481 19.1913 12.5232 19.791 12.5232C21.1403 12.5232 22.1148 13.5726 22.1148 14.847C22.1148 16.1963 21.0653 17.1707 19.791 17.1707C18.4417 17.1707 17.4672 16.1213 17.4672 14.847C17.4672 14.2473 17.6921 13.6476 18.1419 13.1978Z" fill="white"/>
      <path d="M26.2376 22.7928C26.7624 22.2681 26.8373 21.5185 26.3876 20.7689C26.0128 20.1692 25.3381 19.8694 24.5885 20.0193C24.2887 20.0942 23.9888 20.2442 23.689 20.469C21.3652 22.0432 18.2168 21.9683 15.893 20.3941C15.7431 20.3191 15.5932 20.2442 15.4433 20.1692C14.6187 19.7944 13.7941 19.9443 13.3444 20.6939C12.8196 21.4435 12.8946 22.2681 13.5692 22.9428C13.7192 23.0927 13.8691 23.1676 13.944 23.3176L14.019 23.3925C15.0685 24.2171 16.3428 24.7418 17.9919 24.9667L17.0174 25.9412C16.1929 26.7658 15.2933 27.6653 14.4688 28.4899C14.2439 28.7148 13.944 29.0896 13.944 29.6143C13.944 30.2889 14.3188 30.9636 14.9935 31.2634C15.2184 31.4133 15.4433 31.4133 15.6681 31.4133C16.0429 31.4133 16.4927 31.2634 16.7926 30.8886C17.917 29.7642 18.8165 28.8647 19.716 27.9651C19.791 27.8902 19.791 27.8902 19.791 27.8902C19.791 27.8902 19.866 27.8902 19.866 27.9651C20.4656 28.6398 21.1403 29.2395 21.74 29.9141C22.0398 30.214 22.3397 30.5138 22.6395 30.8137C23.0143 31.1885 23.3142 31.3384 23.7639 31.3384C24.4386 31.4134 25.1882 30.9636 25.488 30.2889C25.7879 29.6892 25.638 28.9396 25.1132 28.4899C24.3636 27.7403 23.614 26.9157 22.7894 26.1661L21.5151 24.8917C22.1898 24.8168 22.9394 24.6669 23.614 24.367C24.7384 23.9922 25.563 23.4675 26.2376 22.7928Z" fill="white"/>
    </g>
  </symbol>

  <symbol id="yandex_zen" viewBox="0 0 40 40">
    <g>
      <path d="M0 20C0 8.95431 8.95431 0 20 0C31.0457 0 40 8.95431 40 20C40 31.0457 31.0457 40 20 40C8.95431 40 0 31.0457 0 20Z" fill="#2C3036"/>
      <path d="M21.9286 21.9286C20.3571 23.55 20.2429 25.5714 20.1071 30C24.2357 30 27.0857 29.9857 28.5571 28.5571C29.9857 27.0857 30 24.1 30 20.1071C25.5714 20.25 23.55 20.3571 21.9286 21.9286ZM10 20.1071C10 24.1 10.0143 27.0857 11.4429 28.5571C12.9143 29.9857 15.7643 30 19.8929 30C19.75 25.5714 19.6429 23.55 18.0714 21.9286C16.45 20.3571 14.4286 20.2429 10 20.1071ZM19.8929 10C15.7714 10 12.9143 10.0143 11.4429 11.4429C10.0143 12.9143 10 15.9 10 19.8929C14.4286 19.75 16.45 19.6429 18.0714 18.0714C19.6429 16.45 19.7571 14.4286 19.8929 10ZM21.9286 18.0714C20.3571 16.45 20.2429 14.4286 20.1071 10C24.2357 10 27.0857 10.0143 28.5571 11.4429C29.9857 12.9143 30 15.9 30 19.8929C25.5714 19.75 23.55 19.6429 21.9286 18.0714Z" fill="white"/>
      <path d="M30 20.1071V19.8929C25.5714 19.75 23.55 19.6429 21.9286 18.0714C20.3571 16.45 20.2429 14.4286 20.1071 10H19.8929C19.75 14.4286 19.6429 16.45 18.0714 18.0714C16.45 19.6429 14.4286 19.7571 10 19.8929V20.1071C14.4286 20.25 16.45 20.3571 18.0714 21.9286C19.6429 23.55 19.7571 25.5714 19.8929 30H20.1071C20.25 25.5714 20.3571 23.55 21.9286 21.9286C23.55 20.3571 25.5714 20.2429 30 20.1071Z" fill="#2C3036"/>
    </g>
  </symbol>

  <symbol id="RU" viewBox="0 0 24 18" fill="none">
    <g>
      <mask id="mask0_1118_20518" style="mask-type:alpha" maskUnits="userSpaceOnUse" x="0" y="0" width="24" height="18">
        <rect width="24" height="18" fill="white"/>
      </mask>
      <g mask="url(#mask0_1118_20518)">
        <path fill-rule="evenodd" clip-rule="evenodd" d="M0 0V18H24V0H0Z" fill="#3D58DB"/>
        <mask id="mask1_1118_20518" style="mask-type:alpha" maskUnits="userSpaceOnUse" x="0" y="0" width="24" height="18">
          <path fill-rule="evenodd" clip-rule="evenodd" d="M0 0V18H24V0H0Z" fill="white"/>
        </mask>
        <g mask="url(#mask1_1118_20518)">
          <path fill-rule="evenodd" clip-rule="evenodd" d="M0 0V6H24V0H0Z" fill="#F7FCFF"/>
          <path fill-rule="evenodd" clip-rule="evenodd" d="M0 12V18H24V12H0Z" fill="#C51918"/>
        </g>
      </g>
    </g>
  </symbol>

  <symbol id="EN" viewBox="0 0 24 18" fill="none">
    <mask id="mask0_1302_25765" style="mask-type:alpha" maskUnits="userSpaceOnUse" x="0" y="0" width="24" height="18">
    <rect width="24" height="18" fill="white"/>
    </mask>
    <g mask="url(#mask0_1302_25765)">
    <path fill-rule="evenodd" clip-rule="evenodd" d="M0 0V18H24V0H0Z" fill="#2E42A5"/>
    <mask id="mask1_1302_25765" style="mask-type:alpha" maskUnits="userSpaceOnUse" x="0" y="0" width="24" height="18">
    <path fill-rule="evenodd" clip-rule="evenodd" d="M0 0V18H24V0H0Z" fill="white"/>
    </mask>
    <g mask="url(#mask1_1302_25765)">
    <mask id="mask2_1302_25765" style="mask-type:alpha" maskUnits="userSpaceOnUse" x="0" y="0" width="24" height="18">
    <path d="M0 0H24V18H0V0Z" fill="white"/>
    </mask>
    <g mask="url(#mask2_1302_25765)">
    <path d="M-2.67188 16.7157L2.60939 18.9492L24.1203 2.43L26.9061 -0.889107L21.2585 -1.63562L12.4847 5.48298L5.42272 10.2793L-2.67188 16.7157Z" fill="white"/>
    <path d="M-1.94922 18.2781L0.741343 19.5742L25.9054 -1.19999H22.1275L-1.94922 18.2781Z" fill="#F50100"/>
    <path d="M26.6719 16.7157L21.3906 18.9492L-0.120319 2.43L-2.90607 -0.889107L2.74149 -1.63562L11.5153 5.48298L18.5773 10.2793L26.6719 16.7157Z" fill="white"/>
    <path d="M26.4922 17.8366L23.8016 19.1328L13.0865 10.2383L9.90973 9.24453L-3.1736 -0.879866H0.604259L13.6802 9.00422L17.1535 10.1959L26.4922 17.8366Z" fill="#F50100"/>
    <path fill-rule="evenodd" clip-rule="evenodd" d="M14.8322 -1.5H9.16555V6H-1.48047V12H9.16555V19.5H14.8322V12H25.5195V6H14.8322V-1.5Z" fill="#F50100"/>
    <path fill-rule="evenodd" clip-rule="evenodd" d="M9.16555 6H-1.48047V12H9.16555V19.5H14.8322V12H25.5195V6H14.8322V-1.5H9.16555V6ZM11.1655 0.5V8H0.519531V10H11.1655V17.5H12.8322V10H23.5195V8H12.8322V0.5H11.1655Z" fill="white"/>
    </g>
    </g>
    </g>
  </symbol>

  <symbol id="DE" viewBox="0 0 24 18" fill="none">
    <mask id="mask0_1211_26018" style="mask-type:alpha" maskUnits="userSpaceOnUse" x="0" y="0" width="24" height="17">
    <rect y="0.882812" width="24" height="15.9053" fill="white"/>
    </mask>
    <g mask="url(#mask0_1211_26018)">
    <path fill-rule="evenodd" clip-rule="evenodd" d="M0 11.4883H24V16.79H0V11.4883Z" fill="#FFD018"/>
    <path fill-rule="evenodd" clip-rule="evenodd" d="M0 6.18359H24V11.4854H0V6.18359Z" fill="#E31D1C"/>
    <path fill-rule="evenodd" clip-rule="evenodd" d="M0 0.882812H24V6.18457H0V0.882812Z" fill="#272727"/>
    </g>
  </symbol>

  <symbol id="FR" viewBox="0 0 24 18" fill="none">
    <mask id="mask0_1211_25999" style="mask-type:alpha" maskUnits="userSpaceOnUse" x="0" y="0" width="24" height="17">
    <rect y="0.789062" width="24" height="15.9053" fill="white"/>
    </mask>
    <g mask="url(#mask0_1211_25999)">
    <path fill-rule="evenodd" clip-rule="evenodd" d="M16.5 0.789062H24V16.6943H16.5V0.789062Z" fill="#F50100"/>
    <path fill-rule="evenodd" clip-rule="evenodd" d="M0 0.789062H9V16.6943H0V0.789062Z" fill="#2E42A5"/>
    <path fill-rule="evenodd" clip-rule="evenodd" d="M7.5 0.789062H16.5V16.6943H7.5V0.789062Z" fill="#F7FCFF"/>
    </g>
  </symbol>

  <symbol id="PL" viewBox="0 0 24 18" fill="none">
    <mask id="mask0_1211_26010" style="mask-type:alpha" maskUnits="userSpaceOnUse" x="0" y="0" width="24" height="17">
    <rect y="0.695312" width="24" height="15.9053" fill="white"/>
    </mask>
    <g mask="url(#mask0_1211_26010)">
    <path fill-rule="evenodd" clip-rule="evenodd" d="M0 0.695312V16.6006H24V0.695312H0Z" fill="#F7FCFF"/>
    <mask id="mask1_1211_26010" style="mask-type:alpha" maskUnits="userSpaceOnUse" x="0" y="0" width="24" height="17">
    <path fill-rule="evenodd" clip-rule="evenodd" d="M0 0.695312V16.6006H24V0.695312H0Z" fill="white"/>
    </mask>
    <g mask="url(#mask1_1211_26010)">
    <path fill-rule="evenodd" clip-rule="evenodd" d="M0 8.64844V16.6011H24V8.64844H0Z" fill="#C51918"/>
    </g>
    </g>
  </symbol>

  <symbol id="ES" viewBox="0 0 24 18" fill="none">
    <mask id="mask0_1211_25875" style="mask-type:alpha" maskUnits="userSpaceOnUse" x="0" y="0" width="24" height="17">
    <rect y="0.601562" width="24" height="15.9053" fill="white"/>
    </mask>
    <g mask="url(#mask0_1211_25875)">
    <path fill-rule="evenodd" clip-rule="evenodd" d="M0 0.601562V16.5068H24V0.601562H0Z" fill="#FFB400"/>
    <mask id="mask1_1211_25875" style="mask-type:alpha" maskUnits="userSpaceOnUse" x="0" y="0" width="24" height="17">
    <path fill-rule="evenodd" clip-rule="evenodd" d="M0 0.601562V16.5068H24V0.601562H0Z" fill="white"/>
    </mask>
    <g mask="url(#mask1_1211_25875)">
    <path fill-rule="evenodd" clip-rule="evenodd" d="M0 0.601562V4.57788H24V0.601562H0Z" fill="#C51918"/>
    <path fill-rule="evenodd" clip-rule="evenodd" d="M0 12.5312V16.5076H24V12.5312H0Z" fill="#C51918"/>
    <rect x="3.75391" y="7.41016" width="0.84" height="3.85968" fill="#F1F9FF"/>
    <path fill-rule="evenodd" clip-rule="evenodd" d="M4.92997 6.74219H3.41797V7.11331H3.67188V7.41022H4.67988V7.11331H4.92997V6.74219Z" fill="#C88A02"/>
    <path fill-rule="evenodd" clip-rule="evenodd" d="M4.67797 11.4922H4.92997V11.8633H3.41797V11.4922H3.66997V11.1953H4.67797V11.4922Z" fill="#C88A02"/>
    <path fill-rule="evenodd" clip-rule="evenodd" d="M4.17394 6.81647C4.35674 6.81647 4.37532 6.75565 4.48316 6.66481C4.5669 6.59427 4.76194 6.50678 4.76194 6.40824C4.76194 6.18277 4.49868 6 4.17394 6C3.84919 6 3.58594 6.18277 3.58594 6.40824C3.58594 6.51803 3.72025 6.59144 3.8218 6.66481C3.92879 6.74211 4.00733 6.81647 4.17394 6.81647Z" fill="#AD1619"/>
    <path fill-rule="evenodd" clip-rule="evenodd" d="M3.41797 11.8633H4.92997V12.4571C4.92997 12.4571 4.74097 12.3829 4.55197 12.3829C4.36297 12.3829 4.17397 12.4571 4.17397 12.4571C4.17397 12.4571 3.98497 12.3829 3.79597 12.3829C3.60697 12.3829 3.41797 12.4571 3.41797 12.4571V11.8633Z" fill="#005BBF"/>
    <mask id="mask2_1211_25875" style="mask-type:alpha" maskUnits="userSpaceOnUse" x="3" y="11" width="2" height="2">
    <path fill-rule="evenodd" clip-rule="evenodd" d="M3.41797 11.8633H4.92997V12.4571C4.92997 12.4571 4.74097 12.3829 4.55197 12.3829C4.36297 12.3829 4.17397 12.4571 4.17397 12.4571C4.17397 12.4571 3.98497 12.3829 3.79597 12.3829C3.60697 12.3829 3.41797 12.4571 3.41797 12.4571V11.8633Z" fill="white"/>
    </mask>
    <g mask="url(#mask2_1211_25875)">
    <path d="M3.4041 12.339L3.37109 12.2679C3.50728 12.2144 3.64395 12.1875 3.78082 12.1875C3.86925 12.1875 3.91543 12.1984 3.99394 12.2293C4.06289 12.2564 4.09864 12.2648 4.17405 12.2648C4.24946 12.2648 4.28521 12.2564 4.35416 12.2293C4.43267 12.1984 4.47884 12.1875 4.56728 12.1875C4.70415 12.1875 4.84082 12.2144 4.977 12.2679L4.944 12.339C4.81803 12.2895 4.69255 12.2648 4.56728 12.2648C4.49186 12.2648 4.45612 12.2733 4.38716 12.3004C4.30866 12.3312 4.26248 12.3421 4.17405 12.3421C4.08562 12.3421 4.03944 12.3312 3.96093 12.3004C3.89198 12.2733 3.85624 12.2648 3.78082 12.2648C3.65555 12.2648 3.53006 12.2895 3.4041 12.339Z" fill="white"/>
    <path d="M3.4041 12.1164L3.37109 12.0453C3.50728 11.9917 3.64395 11.9648 3.78082 11.9648C3.86925 11.9648 3.91543 11.9757 3.99394 12.0066C4.06289 12.0337 4.09864 12.0422 4.17405 12.0422C4.24946 12.0422 4.28521 12.0337 4.35416 12.0066C4.43267 11.9757 4.47884 11.9648 4.56728 11.9648C4.70415 11.9648 4.84082 11.9917 4.977 12.0453L4.944 12.1164C4.81803 12.0668 4.69255 12.0422 4.56728 12.0422C4.49186 12.0422 4.45612 12.0506 4.38716 12.0777C4.30866 12.1086 4.26248 12.1195 4.17405 12.1195C4.08562 12.1195 4.03944 12.1086 3.96093 12.0777C3.89198 12.0506 3.85624 12.0422 3.78082 12.0422C3.65555 12.0422 3.53006 12.0668 3.4041 12.1164Z" fill="white"/>
    </g>
    <rect x="11.9883" y="7.41016" width="0.84" height="3.85968" fill="#F1F9FF"/>
    <path fill-rule="evenodd" clip-rule="evenodd" d="M13.1643 6.74219H11.6523V7.11331H11.9023V7.41012H12.9103V7.11331H13.1643V6.74219Z" fill="#C88A02"/>
    <path fill-rule="evenodd" clip-rule="evenodd" d="M12.9123 11.4922H13.1643V11.8633H11.6523V11.4922H11.9043V11.1953H12.9123V11.4922Z" fill="#C88A02"/>
    <path fill-rule="evenodd" clip-rule="evenodd" d="M12.4083 6.81647C12.5911 6.81647 12.6097 6.75565 12.7175 6.66481C12.8013 6.59427 12.9963 6.50678 12.9963 6.40824C12.9963 6.18277 12.7331 6 12.4083 6C12.0836 6 11.8203 6.18277 11.8203 6.40824C11.8203 6.51803 11.9546 6.59144 12.0562 6.66481C12.1632 6.74211 12.2417 6.81647 12.4083 6.81647Z" fill="#AD1619"/>
    <path fill-rule="evenodd" clip-rule="evenodd" d="M11.6523 11.8633H13.1643V12.4571C13.1643 12.4571 12.9753 12.3829 12.7863 12.3829C12.5973 12.3829 12.4083 12.4571 12.4083 12.4571C12.4083 12.4571 12.2193 12.3829 12.0303 12.3829C11.8413 12.3829 11.6523 12.4571 11.6523 12.4571V11.8633Z" fill="#005BBF"/>
    <mask id="mask3_1211_25875" style="mask-type:alpha" maskUnits="userSpaceOnUse" x="11" y="11" width="3" height="2">
    <path fill-rule="evenodd" clip-rule="evenodd" d="M11.6523 11.8633H13.1643V12.4571C13.1643 12.4571 12.9753 12.3829 12.7863 12.3829C12.5973 12.3829 12.4083 12.4571 12.4083 12.4571C12.4083 12.4571 12.2193 12.3829 12.0303 12.3829C11.8413 12.3829 11.6523 12.4571 11.6523 12.4571V11.8633Z" fill="white"/>
    </mask>
    <g mask="url(#mask3_1211_25875)">
    <path d="M11.6385 12.339L11.6055 12.2679C11.7417 12.2144 11.8783 12.1875 12.0152 12.1875C12.1036 12.1875 12.1498 12.1984 12.2283 12.2293C12.2973 12.2564 12.333 12.2648 12.4084 12.2648C12.4838 12.2648 12.5196 12.2564 12.5885 12.2293C12.667 12.1984 12.7132 12.1875 12.8017 12.1875C12.9385 12.1875 13.0752 12.2144 13.2114 12.2679L13.1784 12.339C13.0524 12.2895 12.9269 12.2648 12.8017 12.2648C12.7262 12.2648 12.6905 12.2733 12.6215 12.3004C12.543 12.3312 12.4969 12.3421 12.4084 12.3421C12.32 12.3421 12.2738 12.3312 12.1953 12.3004C12.1264 12.2733 12.0906 12.2648 12.0152 12.2648C11.8899 12.2648 11.7644 12.2895 11.6385 12.339Z" fill="white"/>
    <path d="M11.6385 12.1164L11.6055 12.0453C11.7417 11.9917 11.8783 11.9648 12.0152 11.9648C12.1036 11.9648 12.1498 11.9757 12.2283 12.0066C12.2973 12.0337 12.333 12.0422 12.4084 12.0422C12.4838 12.0422 12.5196 12.0337 12.5885 12.0066C12.667 11.9757 12.7132 11.9648 12.8017 11.9648C12.9385 11.9648 13.0752 11.9917 13.2114 12.0453L13.1784 12.1164C13.0524 12.0668 12.9269 12.0422 12.8017 12.0422C12.7262 12.0422 12.6905 12.0506 12.6215 12.0777C12.543 12.1086 12.4969 12.1195 12.4084 12.1195C12.32 12.1195 12.2738 12.1086 12.1953 12.0777C12.1264 12.0506 12.0906 12.0422 12.0152 12.0422C11.8899 12.0422 11.7644 12.0668 11.6385 12.1164Z" fill="white"/>
    </g>
    <path fill-rule="evenodd" clip-rule="evenodd" d="M3.73911 10.9939C3.89055 10.8316 3.97524 10.684 3.97524 10.5273C3.97524 10.4284 3.94195 10.343 3.88363 10.2733L3.89349 10.2694C3.89258 10.2698 4.05963 10.2054 4.11779 10.1808C4.2259 10.135 4.32115 10.0864 4.41401 10.0268C4.4733 9.98867 4.55274 9.94718 4.67384 9.88972L4.78772 9.8362L4.81836 9.82182C4.87722 9.79407 4.92104 9.7728 4.96176 9.75193C5.08864 9.6869 5.17248 9.63316 5.23661 9.5613C5.3885 9.3911 5.35696 9.1604 5.14412 9.03235C5.03984 8.96961 4.89912 8.93361 4.69285 8.90528L4.65016 8.89944L4.39783 8.86487C4.29912 8.85118 4.21105 8.83839 4.13252 8.82627C4.64894 8.75034 5.38637 8.77825 5.71074 8.92623L6.01903 8.39861C5.35803 8.09704 3.85193 8.12784 3.28933 8.4702C2.87668 8.7213 2.93205 9.10089 3.36139 9.26434C3.5408 9.33264 3.77467 9.37796 4.20745 9.4394C4.13493 9.47658 4.0748 9.51054 4.01877 9.54654C3.96196 9.58305 3.90108 9.61406 3.82725 9.64534C3.79194 9.6603 3.68739 9.70086 3.63945 9.71946L3.63944 9.71947L3.63942 9.71948L3.61533 9.72885C3.26562 9.86936 3.09589 10.0637 3.14661 10.4146L3.17407 10.6046L3.22331 10.6179L3.73911 10.9939ZM3.30575 10.503L3.30469 10.5057L3.3055 10.5038L3.30575 10.503ZM12.5287 10.5273C12.5287 10.684 12.6134 10.8316 12.7648 10.9939L13.2806 10.6179L13.3298 10.6046L13.3573 10.4146C13.408 10.0637 13.2383 9.86937 12.8886 9.72885L12.8644 9.71946L12.8644 9.71945C12.8165 9.70085 12.712 9.6603 12.6767 9.64534C12.6028 9.61406 12.542 9.58305 12.4851 9.54654C12.4291 9.51054 12.369 9.47658 12.2965 9.4394C12.7292 9.37796 12.9631 9.33264 13.1425 9.26434C13.5719 9.10089 13.6272 8.72131 13.2146 8.4702C12.652 8.12784 11.1459 8.09704 10.4849 8.39861L10.7932 8.92624C11.1175 8.77825 11.855 8.75034 12.3714 8.82628C12.2929 8.8384 12.2048 8.85118 12.1061 8.86487L11.8539 8.89941L11.8111 8.90528C11.6048 8.93361 11.4641 8.96961 11.3598 9.03235C11.1469 9.1604 11.1154 9.39111 11.2673 9.5613C11.3314 9.63316 11.4153 9.6869 11.5421 9.75194C11.5829 9.77281 11.6267 9.79407 11.6855 9.82182L11.7163 9.83626L11.8301 9.88972C11.9512 9.94718 12.0306 9.98867 12.0899 10.0268C12.1828 10.0865 12.278 10.135 12.3861 10.1808C12.4443 10.2054 12.6113 10.2698 12.6104 10.2694L12.6203 10.2733C12.562 10.343 12.5287 10.4284 12.5287 10.5273Z" fill="#AD1619"/>
    <path d="M4.44042 8.82031L4.68836 8.86564V9.19218C4.42429 9.37837 3.75391 9.69216 3.75391 9.69216V8.82031H4.44042Z" fill="#F1F9FF"/>
    <path d="M12.2354 8.82031L11.9874 8.86564V9.19218C12.2515 9.37837 12.9219 9.69216 12.9219 9.69216V8.82031H12.2354Z" fill="#F1F9FF"/>
    <path fill-rule="evenodd" clip-rule="evenodd" d="M11.0809 5.37759V5.26892C10.6489 4.99492 10.1964 4.85792 9.72355 4.85792C9.27086 4.6809 8.81266 4.61204 8.34894 4.65133C8.34906 4.65017 8.34912 4.64959 8.34912 4.64959C7.65089 4.58922 6.94721 4.85792 6.94721 4.85792C6.23793 4.85792 5.58984 5.26892 5.58984 5.26892V5.37759L6.43707 6.12947C6.43707 6.12947 6.67536 6.8526 8.34375 6.68326V6.6849C8.34375 6.6849 9.44951 6.65823 9.52721 6.6354C9.55804 6.62634 9.59001 6.61809 9.62268 6.60966C9.83927 6.55379 10.0865 6.49001 10.2337 6.12947L11.0809 5.37759ZM8.34375 4.70484C8.31526 5.0053 8.1888 6.43787 8.34375 6.67512V4.70484Z" fill="#AD1619"/>
    <path fill-rule="evenodd" clip-rule="evenodd" d="M6.23438 6.00546L6.23523 6.00197L5.64062 5.50764L5.69818 5.45358L6.25605 5.91736L6.27007 5.8604C6.36157 5.87798 6.42845 5.88444 6.46743 5.88078V5.77992L6.59141 5.8392C6.65239 5.86836 6.73972 5.87621 6.85474 5.85967C6.93923 5.84752 6.99623 5.76082 7.01487 5.57608L7.0525 5.20312L7.17873 5.56056C7.23584 5.7223 7.32298 5.7936 7.44703 5.7936C7.56819 5.7936 7.61689 5.75436 7.62227 5.65542L7.63751 5.37484L7.78111 5.62546C7.83284 5.71574 7.90419 5.75671 8.00563 5.75671C8.15072 5.75671 8.24763 5.64982 8.24763 5.48213H8.25234H8.41563H8.42034C8.42034 5.64982 8.51725 5.75671 8.66234 5.75671C8.76378 5.75671 8.83512 5.71574 8.88686 5.62546L9.03046 5.37484L9.0457 5.65542C9.05108 5.75436 9.09978 5.7936 9.22094 5.7936C9.34499 5.7936 9.43212 5.7223 9.48924 5.56056L9.61547 5.20312L9.6531 5.57608C9.67174 5.76082 9.72874 5.84752 9.81322 5.85967C9.92825 5.87621 10.0156 5.86836 10.0766 5.8392L10.2005 5.77992V5.88078C10.2395 5.88444 10.3064 5.87798 10.3979 5.8604L10.4245 5.96858L11.044 5.45358L11.1016 5.50764L10.3311 6.14817C10.2187 6.3311 10.1621 6.45184 10.1621 6.502C10.1621 6.57852 9.93678 6.62393 9.49708 6.67058C9.1524 6.70715 8.74558 6.73169 8.41293 6.73533V6.7358L8.37109 6.73568L8.32925 6.7358V6.73533C7.99661 6.73169 7.58979 6.70715 7.24511 6.67058C6.80541 6.62393 6.58012 6.57852 6.58012 6.502C6.58012 6.49184 6.5778 6.47878 6.57316 6.4629C6.53157 6.41429 6.50181 6.33781 6.48152 6.26748C6.46118 6.23127 6.4377 6.19146 6.4111 6.14817L6.24094 6.00671L6.23438 6.00546ZM10.3659 6.01734C10.2281 6.03893 10.1286 6.03679 10.0758 5.99883C9.99336 6.02003 9.89665 6.02206 9.78624 6.00619C9.66831 5.98923 9.58619 5.91992 9.53678 5.80494C9.47224 5.87759 9.39063 5.92243 9.29287 5.93691C9.83038 6.00427 10.2069 6.09895 10.2069 6.09895C10.2069 6.09895 10.1975 6.17039 10.1745 6.25393C10.1986 6.21013 10.2273 6.16137 10.2605 6.10747L10.2686 6.09819L10.3659 6.01734ZM9.03941 5.90871C8.99262 5.88819 8.95526 5.85841 8.92825 5.82003C8.88816 5.85132 8.84255 5.8742 8.7919 5.88831C8.87648 5.89403 8.95917 5.90093 9.03941 5.90871ZM8.49548 5.87387C8.42949 5.84694 8.37473 5.80367 8.33398 5.74819C8.29348 5.80334 8.23911 5.84643 8.17365 5.87339C8.21273 5.87235 8.25204 5.87161 8.29154 5.8712V5.87085L8.32611 5.87094L8.36068 5.87085V5.8712C8.40588 5.87166 8.45084 5.87257 8.49548 5.87387ZM6.46789 6.09347L6.38936 6.02819C6.48239 6.03615 6.55129 6.02824 6.59216 5.99883C6.67461 6.02003 6.77131 6.02206 6.88173 6.00619C6.99965 5.98923 7.08178 5.91992 7.13119 5.80494C7.19419 5.87585 7.27344 5.92027 7.36811 5.93582C6.90324 5.99363 6.55714 6.07223 6.46789 6.09347ZM7.87306 5.88746C7.79108 5.89287 7.71084 5.89941 7.63285 5.90679C7.67764 5.88635 7.71354 5.85723 7.73972 5.82003C7.77902 5.8507 7.82361 5.87329 7.87306 5.88746ZM9.94066 6.50348C9.99994 6.52799 10.0474 6.50319 10.0848 6.45594C10.0814 6.4692 10.0793 6.48116 10.0785 6.49184C10.0736 6.49469 10.066 6.49812 10.0561 6.5018C10.0284 6.51208 9.98616 6.52303 9.93119 6.53411C9.82314 6.55589 9.66934 6.57755 9.48707 6.59688C9.13102 6.63466 8.70762 6.65951 8.37109 6.66145C8.03457 6.65951 7.61117 6.63466 7.25512 6.59688C7.07285 6.57755 6.91905 6.55589 6.811 6.53411C6.76548 6.52494 6.72867 6.51585 6.70165 6.50716C6.70492 6.50609 6.70822 6.50486 6.71156 6.50348C6.89481 6.42771 8.10522 6.3566 8.32611 6.34417C8.547 6.3566 9.75741 6.42771 9.94066 6.50348ZM10.1719 6.4899L10.1706 6.4912L10.1714 6.49025L10.1719 6.4899Z" fill="#C88A02"/>
    <path fill-rule="evenodd" clip-rule="evenodd" d="M8.33403 4.14847C8.47321 4.14847 8.58603 4.04878 8.58603 3.9258C8.58603 3.80282 8.47321 3.70312 8.33403 3.70312C8.19486 3.70312 8.08203 3.80282 8.08203 3.9258C8.08203 4.04878 8.19486 4.14847 8.33403 4.14847Z" fill="#005BBF"/>
    <path fill-rule="evenodd" clip-rule="evenodd" d="M8.17185 5.2398C8.17733 5.2647 8.18594 5.28784 8.19683 5.3084C8.1637 5.29681 8.124 5.29007 8.08134 5.29007C7.96536 5.29007 7.87134 5.33991 7.87134 5.4014C7.87134 5.46289 7.96536 5.51274 8.08134 5.51274C8.19732 5.51274 8.29134 5.46289 8.29134 5.4014L8.29119 5.39714L8.29332 5.3978L8.29322 5.4014C8.29322 5.46289 8.38724 5.51274 8.50322 5.51274C8.6192 5.51274 8.71322 5.46289 8.71322 5.4014C8.71322 5.33991 8.6192 5.29007 8.50322 5.29007C8.47417 5.29007 8.44649 5.29319 8.42133 5.29885C8.42744 5.2684 8.42718 5.23347 8.41922 5.19732C8.39709 5.09672 8.32378 5.02468 8.25547 5.03641C8.18716 5.04814 8.14972 5.1392 8.17185 5.2398ZM6.93415 5.38084C6.92371 5.36075 6.91545 5.33824 6.91013 5.31408C6.888 5.21348 6.92544 5.12242 6.99375 5.11069C7.06206 5.09896 7.13537 5.171 7.1575 5.2716C7.16544 5.30768 7.16572 5.34253 7.15965 5.37294C7.1848 5.36729 7.21246 5.36416 7.2415 5.36416C7.35748 5.36416 7.4515 5.41401 7.4515 5.4755C7.4515 5.53699 7.35748 5.58684 7.2415 5.58684C7.13253 5.58684 7.04295 5.54284 7.03251 5.48652C7.02208 5.54284 6.93249 5.58684 6.82353 5.58684C6.70755 5.58684 6.61353 5.53699 6.61353 5.4755C6.61353 5.41401 6.70755 5.36416 6.82353 5.36416C6.86412 5.36416 6.90203 5.37027 6.93415 5.38084ZM9.3411 5.5338C9.44928 5.54724 9.54514 5.51448 9.564 5.45974C9.56471 5.51709 9.64675 5.57213 9.75516 5.58559C9.87001 5.59986 9.97097 5.56206 9.98065 5.50116C9.99034 5.44027 9.90509 5.37935 9.79023 5.36509C9.76167 5.36154 9.73396 5.36121 9.7083 5.36366C9.71912 5.33427 9.72435 5.29969 9.72217 5.26294C9.7161 5.1606 9.65485 5.08024 9.58536 5.08346C9.51586 5.08668 9.46445 5.17225 9.47052 5.27459C9.47198 5.29921 9.47663 5.32256 9.48383 5.34377C9.45354 5.32917 9.4167 5.31833 9.37617 5.3133C9.26132 5.29903 9.16036 5.33683 9.15068 5.39773C9.141 5.45862 9.22625 5.51954 9.3411 5.5338ZM10.3681 5.74384C10.4705 5.79195 10.58 5.78694 10.6127 5.73265L10.6136 5.73116C10.6233 5.73982 10.6347 5.74615 10.6476 5.74963C10.7141 5.76761 10.7956 5.70273 10.8295 5.60473C10.8634 5.50672 10.8369 5.4127 10.7704 5.39472C10.7038 5.37674 10.6224 5.44162 10.5885 5.53962C10.5805 5.56259 10.5759 5.58533 10.5743 5.60693C10.5517 5.58461 10.5218 5.56384 10.4864 5.54723C10.384 5.49911 10.2745 5.50412 10.2419 5.55842C10.2092 5.61271 10.2657 5.69572 10.3681 5.74384ZM6.24563 5.76666C6.14323 5.81478 6.03373 5.80977 6.00106 5.75547C6.00026 5.75415 5.99952 5.75281 5.99883 5.75145C5.98856 5.76132 5.97631 5.76848 5.96229 5.77227C5.89574 5.79025 5.8143 5.72538 5.78039 5.62737C5.74649 5.52937 5.77294 5.43534 5.83949 5.41737C5.90604 5.39939 5.98747 5.46426 6.02138 5.56227C6.0298 5.5866 6.0345 5.6107 6.03579 5.63344C6.05882 5.60973 6.09003 5.58758 6.12733 5.57005C6.22973 5.52194 6.33923 5.52695 6.3719 5.58124C6.40457 5.63553 6.34804 5.71855 6.24563 5.76666Z" fill="#C88A02"/>
    <path fill-rule="evenodd" clip-rule="evenodd" d="M8.24219 3.30469H8.41719V3.4024H8.53046V3.55704H8.41719V3.86627H8.53046V4.02091H8.125V3.86627H8.24219V3.55704H8.125V3.4024H8.24219V3.30469Z" fill="#C88A02"/>
    <rect x="8.20703" y="4.14453" width="0.336" height="0.964921" fill="#C88A02"/>
    <path d="M6.85465 4.30563L6.85318 4.37985C6.10836 4.36836 5.68112 4.4644 5.57266 4.65583C5.46054 4.85374 5.48139 5.09432 5.6385 5.3801L5.56294 5.41253C5.39531 5.10762 5.37242 4.84346 5.49755 4.6226C5.62635 4.39526 6.07832 4.29366 6.85465 4.30563Z" fill="white"/>
    <path d="M6.99739 4.96412L6.95432 5.02785C6.79212 4.94227 6.71094 4.79623 6.71094 4.59496C6.71094 4.30569 6.87957 4.13607 7.25259 4.01999C7.49065 3.9459 7.81586 3.97628 8.22912 4.10867L8.20049 4.17845C7.80377 4.05135 7.49679 4.02268 7.28049 4.08999C6.93835 4.19647 6.79494 4.34072 6.79494 4.59496C6.79494 4.77158 6.86237 4.89289 6.99739 4.96412Z" fill="white"/>
    <path d="M5.74535 5.2669L5.58684 5.31609C5.42238 4.90233 5.46935 4.62132 5.75037 4.50011C5.99799 4.3933 6.35888 4.34983 6.83483 4.36687L6.82802 4.5152C6.3774 4.49906 6.04215 4.53945 5.82406 4.63351C5.63938 4.71317 5.6056 4.9153 5.74535 5.2669Z" fill="#C88A02"/>
    <path d="M7.59523 4.20704C7.21112 4.20704 7.05339 4.28971 6.96328 4.53378C6.90585 4.68932 6.96155 4.82207 7.14214 4.94599L7.0391 5.06324C6.80529 4.90281 6.72286 4.70632 6.80356 4.48774C6.9184 4.17669 7.14375 4.05859 7.59523 4.05859C7.89114 4.05859 8.12166 4.12729 8.28217 4.2671L8.3072 4.2889V5.00462H8.1392V4.35235C8.01384 4.25614 7.83378 4.20704 7.59523 4.20704Z" fill="#C88A02"/>
    <path d="M9.78598 4.37985L9.78744 4.45406C10.5323 4.44257 10.9595 4.53862 11.068 4.73005C11.1801 4.92795 11.1592 5.16853 11.0021 5.45432L11.0777 5.48675C11.2453 5.18183 11.2682 4.91768 11.1431 4.69682C11.0143 4.46948 10.5623 4.36788 9.78598 4.37985Z" fill="white"/>
    <path d="M9.52215 4.97975L9.56521 5.04348C9.72741 4.9579 9.80859 4.81185 9.80859 4.61058C9.80859 4.32132 9.63996 4.15169 9.26695 4.03561C9.02888 3.96152 8.70367 3.9919 8.29041 4.1243L8.31904 4.19408C8.71577 4.06698 9.02274 4.03831 9.23904 4.10562C9.58118 4.21209 9.72459 4.35635 9.72459 4.61058C9.72459 4.78721 9.65716 4.90851 9.52215 4.97975Z" fill="white"/>
    <path d="M10.95 5.34112L11.1085 5.39031C11.2729 4.97654 11.226 4.69554 10.9449 4.57433C10.6973 4.46752 10.3364 4.42405 9.86049 4.44109L9.86729 4.58942C10.3179 4.57328 10.6532 4.61366 10.8712 4.70773C11.0559 4.78739 11.0897 4.98951 10.95 5.34112Z" fill="#C88A02"/>
    <path d="M9.08836 4.21876C9.47247 4.21876 9.6302 4.30143 9.72032 4.5455C9.77774 4.70104 9.72205 4.83379 9.54146 4.95771L9.6445 5.07496C9.8783 4.91453 9.96074 4.71804 9.88003 4.49945C9.76519 4.18841 9.53985 4.07031 9.08836 4.07031C8.79245 4.07031 8.56193 4.13901 8.40143 4.27882L8.3764 4.30062V5.01633H8.5444V4.36407C8.66975 4.26786 8.84981 4.21876 9.08836 4.21876Z" fill="#C88A02"/>
    <path opacity="0.3" fill-rule="evenodd" clip-rule="evenodd" d="M5.60156 6.74219H11.0616V11.0769C11.0616 11.0769 10.656 12.5317 8.33156 12.5317C6.00714 12.5317 5.60156 11.0386 5.60156 11.0386V6.74219Z" fill="#E1E5E8"/>
    <mask id="mask4_1211_25875" style="mask-type:alpha" maskUnits="userSpaceOnUse" x="5" y="6" width="7" height="7">
    <path fill-rule="evenodd" clip-rule="evenodd" d="M5.60156 6.74219H11.0616V11.0769C11.0616 11.0769 10.656 12.5317 8.33156 12.5317C6.00714 12.5317 5.60156 11.0386 5.60156 11.0386V6.74219Z" fill="white"/>
    </mask>
    <g mask="url(#mask4_1211_25875)">
    <rect x="5.60156" y="9.41406" width="2.772" height="2.89476" fill="#FFC034"/>
    <rect x="5.9375" y="9.5625" width="0.336" height="2.74631" fill="#AD1619"/>
    <rect x="7.11328" y="9.5625" width="0.336" height="2.74631" fill="#AD1619"/>
    <rect x="6.52734" y="9.5625" width="0.336" height="2.74631" fill="#AD1619"/>
    <rect x="7.70312" y="9.5625" width="0.336" height="2.74631" fill="#AD1619"/>
    <rect x="5.60156" y="6.66797" width="2.772" height="2.82054" fill="#AD1619"/>
    <rect x="8.28906" y="9.33984" width="2.772" height="2.82054" fill="#AD1619"/>
    <rect x="8.28906" y="6.74219" width="2.94" height="2.74631" fill="#F1F9FF"/>
    <path fill-rule="evenodd" clip-rule="evenodd" d="M6.78125 6.96484H7.03325V7.58066H7.19922V7.27274H7.45122V7.58066H7.70341V7.96553H7.45331V8.6582H7.70341V9.04307H6.19141V8.6582H6.44531V7.96553H6.19141V7.58066H6.3595V7.27274H6.6115V7.58066H6.78125V6.96484Z" fill="#C88A02"/>
    <path d="M9.73047 7.09241L9.90249 6.92969L10.2636 7.2278L10.0916 7.39052L9.73047 7.09241Z" fill="#C88A02"/>
    <path fill-rule="evenodd" clip-rule="evenodd" d="M10.768 11.3008V9.67578H8.66797V11.2872L8.6713 11.2998C8.77761 11.7 9.13963 11.9025 9.71797 11.9025C10.2958 11.9025 10.6577 11.7052 10.7645 11.3137L10.768 11.3008ZM9.71987 11.6798C9.25585 11.6798 9.00244 11.5417 8.92188 11.2609V9.89844H10.5179V11.2738C10.4375 11.5455 10.1841 11.6798 9.71987 11.6798Z" fill="#FFC034"/>
    <path fill-rule="evenodd" clip-rule="evenodd" d="M9.80391 9.80859H9.62891V10.5444L8.94008 9.88239L8.81641 9.98286L9.44015 10.5823H8.875V10.805H9.30923H9.4554L8.81762 11.4179L8.94129 11.5184L9.62891 10.8576V11.7165H9.80391V10.9319L10.4142 11.5184L10.5378 11.4179L9.90007 10.805H10.6119V10.5823H9.91532L10.5391 9.98286L10.4154 9.88239L9.80391 10.4701V9.80859Z" fill="#FFC034"/>
    <path fill-rule="evenodd" clip-rule="evenodd" d="M10.1109 12.1638C10.1109 12.1638 8.33175 12.2874 8.33175 11.2734C8.33175 11.2734 8.31478 12.1638 6.45703 12.1638V12.9642H10.1109V12.1638Z" fill="#F1F9FF"/>
    <path fill-rule="evenodd" clip-rule="evenodd" d="M8.33312 10.0079C8.68106 10.0079 8.96312 9.74206 8.96312 9.41411C8.96312 9.08616 8.68106 8.82031 8.33312 8.82031C7.98519 8.82031 7.70312 9.08616 7.70312 9.41411C7.70312 9.74206 7.98519 10.0079 8.33312 10.0079Z" fill="#005BBF" stroke="#AD1619" stroke-width="1.16667"/>
    </g>
    </g>
    </g>
  </symbol>

  <symbol id="CHINA" viewBox="0 0 24 18" fill="none">
    <path fill-rule="evenodd" clip-rule="evenodd" d="M0 0.503906H24V16.4092H0V0.503906Z" fill="#E31D1C"/>
    <path fill-rule="evenodd" clip-rule="evenodd" d="M11.2626 3.5165L10.505 3.92065L10.6778 3.13199L10.0469 2.54176L10.9012 2.50985L11.2626 1.77344L11.624 2.50985H12.4769L11.8474 3.13199L12.0369 3.92065L11.2626 3.5165Z" fill="#FECA00"/>
    <path fill-rule="evenodd" clip-rule="evenodd" d="M5.26395 6.87048L3.10332 7.89831L3.59615 5.8926L1.79688 4.39151L4.23319 4.31035L5.26395 2.4375L6.2947 4.31035H8.72687L6.93175 5.8926L7.47219 7.89831L5.26395 6.87048Z" fill="#FECA00"/>
    <path fill-rule="evenodd" clip-rule="evenodd" d="M12.7626 6.16885L12.005 6.57299L12.1778 5.78434L11.5469 5.19411L12.4012 5.16219L12.7626 4.42578L13.124 5.16219H13.9769L13.3474 5.78434L13.5369 6.57299L12.7626 6.16885Z" fill="#FECA00"/>
    <path fill-rule="evenodd" clip-rule="evenodd" d="M12.0126 8.81728L11.255 9.22143L11.4278 8.43278L10.7969 7.84254L11.6512 7.81063L12.0126 7.07422L12.374 7.81063H13.2269L12.5974 8.43278L12.7869 9.22143L12.0126 8.81728Z" fill="#FECA00"/>
    <path fill-rule="evenodd" clip-rule="evenodd" d="M9.7626 10.8056L9.00498 11.2097L9.17779 10.4211L8.54688 9.83082L9.40117 9.79891L9.7626 9.0625L10.124 9.79891H10.9769L10.3474 10.4211L10.5369 11.2097L9.7626 10.8056Z" fill="#FECA00"/>
  </symbol>

  <symbol id="search-cirle" viewBox="0 0 40 40">
    <g>
      <path d="M40 20C40 31.0457 31.0457 40 20 40C8.9543 40 0 31.0457 0 20C0 8.9543 8.9543 0 20 0C31.0457 0 40 8.9543 40 20Z"/>
      <path fill-rule="evenodd" clip-rule="evenodd" d="M19.5 10.75C14.6675 10.75 10.75 14.6675 10.75 19.5C10.75 24.3325 14.6675 28.25 19.5 28.25C24.3325 28.25 28.25 24.3325 28.25 19.5C28.25 14.6675 24.3325 10.75 19.5 10.75ZM9.25 19.5C9.25 13.8391 13.8391 9.25 19.5 9.25C25.1609 9.25 29.75 13.8391 29.75 19.5C29.75 25.1609 25.1609 29.75 19.5 29.75C13.8391 29.75 9.25 25.1609 9.25 19.5ZM27.4697 27.4697C27.7626 27.1768 28.2374 27.1768 28.5303 27.4697L30.5303 29.4697C30.8232 29.7626 30.8232 30.2374 30.5303 30.5303C30.2374 30.8232 29.7626 30.8232 29.4697 30.5303L27.4697 28.5303C27.1768 28.2374 27.1768 27.7626 27.4697 27.4697Z" fill="white"/>
    </g>
  </symbol>

  <symbol id="search" viewBox="0 0 22 22">
    <g>
      <path fill-rule="evenodd" clip-rule="evenodd" d="M10.5 1.75C5.66751 1.75 1.75 5.66751 1.75 10.5C1.75 15.3325 5.66751 19.25 10.5 19.25C15.3325 19.25 19.25 15.3325 19.25 10.5C19.25 5.66751 15.3325 1.75 10.5 1.75ZM0.25 10.5C0.25 4.83908 4.83908 0.25 10.5 0.25C16.1609 0.25 20.75 4.83908 20.75 10.5C20.75 16.1609 16.1609 20.75 10.5 20.75C4.83908 20.75 0.25 16.1609 0.25 10.5ZM18.4697 18.4697C18.7626 18.1768 19.2374 18.1768 19.5303 18.4697L21.5303 20.4697C21.8232 20.7626 21.8232 21.2374 21.5303 21.5303C21.2374 21.8232 20.7626 21.8232 20.4697 21.5303L18.4697 19.5303C18.1768 19.2374 18.1768 18.7626 18.4697 18.4697Z"/>
    </g>
  </symbol>

  <symbol id="eye" viewBox="0 0 40 40">
    <g>
      <path d="M40 20C40 31.0457 31.0457 40 20 40C8.9543 40 0 31.0457 0 20C0 8.9543 8.9543 0 20 0C31.0457 0 40 8.9543 40 20Z"/>
      <path d="M32.3333 16.2C29.2533 11.36 24.7467 8.57333 20 8.57333C17.6267 8.57333 15.32 9.26667 13.2133 10.56C11.1067 11.8667 9.21333 13.7733 7.66667 16.2C6.33333 18.2933 6.33333 21.6933 7.66667 23.7867C10.7467 28.64 15.2533 31.4133 20 31.4133C22.3733 31.4133 24.68 30.72 26.7867 29.4267C28.8933 28.12 30.7867 26.2133 32.3333 23.7867C33.6667 21.7067 33.6667 18.2933 32.3333 16.2ZM20 25.3867C17.0133 25.3867 14.6133 22.9733 14.6133 20C14.6133 17.0267 17.0133 14.6133 20 14.6133C22.9867 14.6133 25.3867 17.0267 25.3867 20C25.3867 22.9733 22.9867 25.3867 20 25.3867Z" fill="white"/>
      <path d="M20 16.1867C17.9067 16.1867 16.2 17.8933 16.2 20C16.2 22.0933 17.9067 23.8 20 23.8C22.0933 23.8 23.8133 22.0933 23.8133 20C23.8133 17.9067 22.0933 16.1867 20 16.1867Z" fill="white"/>
    </g>
  </symbol>

  <symbol id="warning" viewBox="0 0 80 80">
    <g>
      <path d="M80 40C80 62.0914 62.0914 80 40 80C17.9086 80 0 62.0914 0 40C0 17.9086 17.9086 0 40 0C62.0914 0 80 17.9086 80 40Z" fill="#C8102E"/>
      <path d="M42.8636 28.7273L42.2727 44.7273H37.0909L36.5 28.7273H42.8636ZM39.6818 52.3636C38.803 52.3636 38.0492 52.0568 37.4205 51.4432C36.7992 50.822 36.4924 50.0682 36.5 49.1818C36.4924 48.3182 36.7992 47.5795 37.4205 46.9659C38.0492 46.3523 38.803 46.0455 39.6818 46.0455C40.5152 46.0455 41.25 46.3523 41.8864 46.9659C42.5303 47.5795 42.8561 48.3182 42.8636 49.1818C42.8561 49.7727 42.7008 50.3106 42.3977 50.7955C42.1023 51.2727 41.7159 51.6553 41.2386 51.9432C40.7614 52.2235 40.2424 52.3636 39.6818 52.3636Z" fill="white"/>
    </g>
  </symbol>

  <symbol id="chevron_down" viewBox="0 0 17 9" fill="none">
    <g>
      <path d="M16.0902 0.949219L9.84182 7.46922C9.10391 8.23922 7.89641 8.23922 7.15849 7.46922L0.910156 0.949219" stroke="#292D32" stroke-width="1.5" stroke-miterlimit="10" stroke-linecap="round" stroke-linejoin="round"/>
    </g>
  </symbol>

  <symbol id="map-marker" viewBox="0 0 60 62" fill="none">
    <g>
      <path d="M59.1547 20.0697C55.6054 6.23059 41.9828 0 30.0166 0C30.0166 0 30.0166 0 29.9828 0C18.0503 0 4.39397 6.20063 0.844669 20.0397C-3.11027 35.4964 7.57145 48.5866 17.2391 56.8242C20.8222 59.8795 25.4194 61.4072 30.0166 61.4072C34.6138 61.4072 39.211 59.8795 42.7603 56.8242C52.4279 48.5866 63.1096 35.5263 59.1547 20.0697Z" fill="#1F382D"/>
      <path fill-rule="evenodd" clip-rule="evenodd" d="M13.7346 21.931C10.3321 21.3806 10.997 15.8999 14.9262 16.3925C15.6373 15.6596 17.0894 14.8834 19.4876 14.3309C19.874 13.6706 23.2996 10.8694 30.7472 11.5847C40.1213 11.2028 45.527 12.3978 47.3114 16.6926C49.0958 20.9874 47.6532 24.8223 47.8148 26.358C47.9764 27.8936 48.3596 30.7535 47.6636 31.3751C46.9677 31.9968 47.0647 31.3288 47.4536 32.6958C47.8425 34.0627 46.7841 35.7731 42.8597 35.8208C39.7573 35.8586 37.2214 36.3449 37.6321 33.1403C37.4899 33.1495 37.6398 33.1382 37.1542 33.1669C37.5755 35.9055 34.6758 35.9043 32.8004 36.0937C30.1944 36.3568 27.9271 36.1858 28.0239 34.628C27.581 34.8865 26.8307 35.4201 23.8695 35.7311C20.9082 36.0422 20.4063 36.8137 17.8186 35.9608C14.2606 36.0051 13.2172 33.3787 14.1061 30.2507C14.0922 30.162 12.6796 28.9196 12.6955 26.7855C12.7114 24.6513 13.7383 23.3149 13.7383 23.3149C13.7383 23.3149 13.4021 22.7218 13.7347 21.9314L13.7346 21.931Z" fill="#1F382D"/>
      <path fill-rule="evenodd" clip-rule="evenodd" d="M14.5801 23.1045C14.5801 23.1045 14.1804 22.0459 14.5703 21.4877C13.89 21.2143 12.4682 20.9076 12.4454 18.9788C12.4309 17.755 13.8051 16.9279 15.2038 17.0894C16.8366 15.7562 18.2324 15.3334 19.5027 14.9886C23.3378 11.3514 29.5849 11.9995 30.5036 12.1823C30.5036 12.1823 33.0181 12.0605 37.3416 12.3189C43.7269 12.7005 46.3311 14.8148 47.083 18.6175C47.4558 20.5025 47.2507 22.9502 47.0679 25.5153C46.9687 26.9052 47.3167 27.7619 47.2648 29.2588C47.213 30.7557 46.0625 31.1796 46.1813 31.2974C46.3001 31.4153 47.2283 33.2149 46.033 34.2521C44.8376 35.2893 40.7046 35.173 39.2141 34.9303C37.7237 34.6875 38.1726 32.4622 38.1726 32.4622C38.1726 32.4622 37.3119 32.474 36.5736 32.5222C37.0503 33.7274 36.0052 34.6093 35.5473 34.8984C35.0894 35.1875 32.6161 35.5336 30.6165 35.451C28.617 35.3684 28.6272 34.2775 28.5412 33.586C28.5101 33.6035 28.4787 33.6214 28.4473 33.64C28.0263 33.8891 27.682 34.1413 27.226 34.3041C26.301 34.6172 25.334 34.8042 24.354 34.8596C23.9349 34.8754 23.3386 35.0881 22.7189 35.2473C22.0992 35.4066 20.3192 35.7319 19.6492 35.7095C18.9792 35.6871 18.6149 35.4835 18.2124 35.39C17.6288 35.378 13.2519 35.5631 14.7751 30.0562C12.8797 28.2794 13.227 24.8008 14.5805 23.105L14.5801 23.1045ZM16.3388 17.4615C16.7668 17.7122 17.1254 18.0568 17.3848 18.4665C18.4848 17.3582 22.4829 17.3163 22.4829 17.3163C22.5726 16.751 22.774 16.2071 23.0763 15.7131C21.4012 15.6458 19.759 15.8744 18.8523 16.1274C17.9227 16.3932 17.0652 16.8485 16.3392 17.4615H16.3388ZM24.0041 14.8401C24.4016 14.6439 24.8534 14.5699 25.297 14.6282C26.2949 14.7358 26.9227 15.2104 27.2125 15.8256C28.8917 16.7661 30.0842 18.3538 30.6051 20.6981C31.1428 23.1183 30.5347 25.313 30.4049 26.0215C30.3522 26.3085 30.3041 26.5596 30.2604 26.7799C30.215 27.5654 30.0888 28.1723 30.1071 28.3769C30.2501 28.5726 30.3741 28.7802 30.4777 28.9972C30.7919 28.6157 31.055 28.2534 31.9624 28.0234C32.0709 27.9956 32.2718 28.1146 32.2549 28.2434C32.3096 28.4378 31.717 28.655 31.4541 28.9044C31.0277 29.3222 30.7804 29.8763 30.7606 30.4584C30.696 31.2916 30.2634 32.0257 29.7804 32.6108C29.463 33.2394 29.5093 33.8884 29.8291 34.1568C30.6842 34.872 32.1626 34.4823 33.5035 34.379C34.2343 34.3226 34.9243 34.2939 35.4431 33.8356C35.718 33.5928 35.575 32.8803 35.2995 32.084C34.9671 31.1226 35.5585 30.3239 35.4712 29.8055C35.38 29.2649 35.2199 29.103 35.1763 28.4921C35.1651 28.3348 35.1028 28.0246 35.4853 27.9983C35.9019 28.0177 36.2185 28.4841 36.2998 29.4857C36.3478 30.0767 36.2317 30.7598 36.2609 31.4693C36.7714 31.423 38.292 31.3656 38.292 31.3656C38.6416 31.0505 38.8698 30.6328 38.94 30.1795C39.1569 28.4776 39.7393 28.1601 40.2564 28.0235C40.5093 28.0125 40.6838 28.108 40.6786 28.3416C40.6727 28.6107 40.0416 28.9122 39.8723 29.8053C39.8092 30.1386 39.996 30.9499 39.7493 31.2694C39.0228 32.2103 38.8738 33.5306 39.4586 33.9532C40.318 34.5734 44.3032 34.1013 45.2955 33.6563C46.2877 33.2112 45.1774 32.0026 45.0883 31.2246C44.9991 30.4467 45.6321 30.776 46.1823 29.6274C46.2714 29.4413 46.3597 28.9921 46.3115 28.4316C46.2621 27.8595 45.9321 26.391 45.9978 25.8976C46.421 22.7128 46.2132 18.9621 45.9053 18.0999C44.1135 13.0833 35.7419 12.9383 33.2142 13.0739C34.6917 13.6173 36.2848 14.841 37.1656 16.0836C37.2537 16.2078 36.988 16.3736 36.7922 16.2088C34.6005 14.3642 31.9779 13.3842 29.5136 13.0439C26.8786 12.6802 23.5411 13.6665 21.3572 14.7981C22.2385 14.7283 23.125 14.7427 24.0033 14.841L24.0041 14.8401ZM27.3841 16.9802C27.2952 17.6292 26.9711 18.2284 26.4678 18.6744C27.7783 19.3862 28.2364 20.9997 28.0591 21.8761C28.77 22.2929 29.3418 22.8933 29.7081 23.6074L29.7179 23.4777C29.8838 21.297 29.6735 19.6471 27.8158 17.4067C27.6864 17.2519 27.5418 17.1091 27.3841 16.9802ZM24.2059 15.8068L24.2192 15.8086C24.4664 15.6377 24.7617 15.5411 25.0671 15.5314C25.8479 15.502 26.5032 16.0128 26.5304 16.6723C26.5387 16.8858 26.4808 17.0968 26.364 17.2792C26.0449 18.0035 25.445 18.7004 25.3827 18.8308C25.6843 19.0968 27.1751 19.8041 27.1963 22.3859C29.2198 23.8182 29.5561 25.1739 29.2295 27.2655C28.8704 26.9837 28.4852 26.7335 28.0785 26.5181C27.8975 26.4186 27.5805 26.2767 27.2224 26.0451C25.869 25.17 25.1525 23.2915 25.1394 22.2187C26.6121 21.1712 25.6665 19.0789 24.2604 19.0768C22.4878 19.0741 22.1689 20.487 22.7179 20.62C23.1709 20.7296 23.162 19.8744 24.0221 19.8116C24.6468 19.7659 25.4018 20.3263 24.9108 21.0277C24.8776 20.9522 24.8262 20.8852 24.7609 20.832C24.6956 20.7788 24.6182 20.7408 24.5347 20.7211C24.4512 20.7015 24.3641 20.7006 24.2803 20.7187C24.1964 20.7368 24.1181 20.7732 24.0517 20.8252C23.9853 20.8772 23.9326 20.9432 23.8977 21.018C23.8629 21.0928 23.8469 21.1743 23.851 21.256C23.8552 21.3378 23.8793 21.4174 23.9216 21.4887C23.9638 21.56 24.023 21.6209 24.0943 21.6665C24.7046 26.0733 25.5787 25.835 28.2729 27.7815C30.9727 29.732 29.2879 32.7373 27.7406 32.4629C26.0342 32.1604 25.5827 32.2592 24.3443 32.6044C23.106 32.9495 22.7587 32.1341 22.7587 32.1341C21.8734 33.8483 20.7968 32.6426 19.3357 33.6899C18.6534 34.179 18.2488 34.6007 17.0164 34.4027C14.851 34.0545 15.3176 31.0769 16.1291 29.7692C16.8693 28.5764 17.6997 27.59 17.5753 26.2276C17.4955 25.2531 17.2657 24.295 16.8932 23.384C16.9771 23.3231 17.041 23.2405 17.0771 23.1462C17.1132 23.0518 17.1201 22.9496 17.097 22.8516C17.0739 22.7536 17.0217 22.6639 16.9466 22.5933C16.8716 22.5227 16.7768 22.4741 16.6736 22.4532C16.5704 22.4323 16.463 22.44 16.3643 22.4755C16.2655 22.5109 16.1795 22.5726 16.1165 22.6532C16.0535 22.7337 16.0161 22.8298 16.0088 22.93C16.0014 23.0302 16.0244 23.1303 16.0751 23.2184C15.7626 23.0921 15.5771 23.1128 15.4118 22.4428C15.1516 21.3879 16.7085 20.9714 17.2738 21.4073C17.8736 21.8696 18.6692 21.4421 17.963 20.6277C17.3823 20.2585 16.8653 20.3602 16.2709 20.3738C15.6765 20.3874 14.7329 20.6541 14.1569 20.3225C13.5809 19.9909 12.9158 18.8684 14.0132 18.2214C15.3062 17.4591 16.3417 18.679 17.1172 19.6194C17.9878 18.9885 21.1842 17.8013 23.2543 18.2942C23.4288 17.9137 23.4643 17.0536 23.7559 16.4056C23.8126 16.2422 23.9064 16.0927 24.0307 15.9677C24.083 15.9087 24.1414 15.8551 24.2051 15.8075L24.2059 15.8068ZM15.3445 23.7809L16.0953 24.038C16.0953 24.038 17.375 26.7622 15.3414 29.217C14.8243 28.7608 13.3903 26.4366 15.3446 23.7808L15.3445 23.7809ZM19.4894 34.7019C19.4894 34.7019 19.8174 34.2003 21.2345 34.0446C22.6516 33.8889 22.7149 33.7035 23.008 33.5632C23.2524 33.6219 23.9451 33.6774 24.7615 33.4564C25.5779 33.2354 26.4445 33.026 27.0682 33.3015C26.6098 33.7468 24.6446 33.8957 23.8791 33.9721C23.1136 34.0486 22.7533 34.2863 22.0196 34.443C21.2859 34.5997 20.3658 34.8994 19.4894 34.7015V34.7019Z" fill="#FEFEFE"/>
      <path fill-rule="evenodd" clip-rule="evenodd" d="M19.7421 29.8723C20.2209 29.8538 20.6176 30.0523 20.6286 30.3146C20.6396 30.5768 20.2601 30.8041 19.7813 30.8222C19.3025 30.8402 18.9058 30.6422 18.8948 30.3799C18.8838 30.1176 19.2633 29.8903 19.7421 29.8723Z" fill="#FEFEFE"/>
      <path fill-rule="evenodd" clip-rule="evenodd" d="M24.365 29.0572C24.8313 28.9522 25.2605 29.0742 25.3237 29.3298C25.3868 29.5853 25.0598 29.8774 24.5935 29.9824C24.1271 30.0874 23.6979 29.9655 23.6348 29.71C23.5716 29.4545 23.8985 29.1622 24.365 29.0572Z" fill="#FEFEFE"/>
      <path fill-rule="evenodd" clip-rule="evenodd" d="M24.0787 31.2074C24.1162 31.2052 24.1535 31.2137 24.1859 31.2318C24.2182 31.2498 24.2443 31.2766 24.2606 31.3088C24.277 31.3409 24.283 31.377 24.2778 31.4124C24.2727 31.4477 24.2566 31.4809 24.2317 31.5075C24.2067 31.5342 24.174 31.5533 24.1377 31.5623C24.1014 31.5713 24.0631 31.5698 24.0276 31.558C23.9922 31.5463 23.9612 31.5248 23.9386 31.4962C23.916 31.4677 23.9028 31.4335 23.9007 31.3978C23.8993 31.3742 23.9027 31.3505 23.9109 31.3281C23.919 31.3057 23.9317 31.2851 23.9483 31.2674C23.9648 31.2497 23.9848 31.2353 24.0072 31.225C24.0296 31.2147 24.0539 31.2087 24.0787 31.2074Z" fill="#FEFEFE"/>
      <path fill-rule="evenodd" clip-rule="evenodd" d="M25.694 31.0667C25.7314 31.0646 25.7687 31.0731 25.8011 31.0912C25.8335 31.1092 25.8595 31.136 25.8759 31.1682C25.8922 31.2003 25.8982 31.2364 25.893 31.2718C25.8879 31.3072 25.8718 31.3403 25.8468 31.367C25.8219 31.3937 25.7892 31.4127 25.7529 31.4216C25.7165 31.4306 25.6782 31.4291 25.6428 31.4173C25.6074 31.4056 25.5764 31.3841 25.5538 31.3555C25.5312 31.327 25.5181 31.2927 25.5159 31.2571C25.5145 31.2334 25.5179 31.2098 25.5261 31.1874C25.5343 31.1651 25.547 31.1444 25.5635 31.1268C25.5801 31.1091 25.6001 31.0947 25.6225 31.0844C25.6448 31.0741 25.6691 31.0681 25.694 31.0667Z" fill="#FEFEFE"/>
      <path fill-rule="evenodd" clip-rule="evenodd" d="M26.6491 30.3792C26.6865 30.3771 26.7238 30.3856 26.7562 30.4037C26.7885 30.4217 26.8146 30.4485 26.8309 30.4807C26.8473 30.5128 26.8533 30.5488 26.8481 30.5842C26.843 30.6196 26.8269 30.6528 26.802 30.6794C26.777 30.7061 26.7443 30.7252 26.708 30.7341C26.6717 30.7431 26.6334 30.7416 26.5979 30.7299C26.5625 30.7181 26.5315 30.6966 26.509 30.6681C26.4864 30.6396 26.4731 30.6053 26.471 30.5696C26.4696 30.546 26.473 30.5223 26.4812 30.5C26.4894 30.4776 26.5021 30.457 26.5186 30.4393C26.5352 30.4216 26.5552 30.4072 26.5776 30.3969C26.5999 30.3866 26.6242 30.3806 26.6491 30.3792Z" fill="#FEFEFE"/>
      <path fill-rule="evenodd" clip-rule="evenodd" d="M27.3248 31.0394C27.3623 31.0373 27.3996 31.0458 27.432 31.0638C27.4643 31.0819 27.4904 31.1087 27.5067 31.1408C27.5231 31.173 27.5291 31.209 27.5239 31.2444C27.5188 31.2798 27.5027 31.3129 27.4777 31.3396C27.4528 31.3663 27.4201 31.3853 27.3838 31.3943C27.3475 31.4033 27.3092 31.4018 27.2737 31.39C27.2383 31.3783 27.2073 31.3568 27.1847 31.3283C27.1621 31.2997 27.1489 31.2655 27.1468 31.2298C27.1454 31.2062 27.1488 31.1825 27.157 31.1601C27.1651 31.1378 27.1778 31.1171 27.1944 31.0995C27.2109 31.0818 27.2309 31.0674 27.2533 31.057C27.2757 31.0467 27.3 31.0407 27.3248 31.0394Z" fill="#FEFEFE"/>
      <path fill-rule="evenodd" clip-rule="evenodd" d="M20.9711 31.9228C20.9362 31.936 20.9063 31.9588 20.885 31.9882C20.8637 32.0176 20.8521 32.0524 20.8516 32.0881C20.8511 32.1238 20.8617 32.1589 20.8822 32.1888C20.9026 32.2188 20.932 32.2423 20.9665 32.2563C21.0009 32.2704 21.039 32.2744 21.0759 32.2679C21.1128 32.2613 21.1468 32.2444 21.1736 32.2194C21.2004 32.1944 21.2189 32.1624 21.2265 32.1275C21.2342 32.0925 21.2309 32.0562 21.2168 32.0231C21.198 31.9789 21.1617 31.9435 21.1156 31.9247C21.0696 31.906 21.0177 31.9053 20.9711 31.9228Z" fill="#FEFEFE"/>
      <path fill-rule="evenodd" clip-rule="evenodd" d="M19.4455 32.4464C19.4107 32.4596 19.3807 32.4823 19.3595 32.5118C19.3383 32.5412 19.3267 32.576 19.3262 32.6117C19.3257 32.6474 19.3364 32.6825 19.3568 32.7124C19.3773 32.7423 19.4066 32.7658 19.4411 32.7799C19.4756 32.7939 19.5137 32.7979 19.5505 32.7914C19.5874 32.7848 19.6214 32.7679 19.6482 32.7429C19.675 32.7179 19.6934 32.686 19.7011 32.651C19.7088 32.6161 19.7055 32.5797 19.6915 32.5466C19.6727 32.5023 19.6363 32.4669 19.5902 32.4481C19.5441 32.4294 19.4921 32.4287 19.4455 32.4464Z" fill="#FEFEFE"/>
      <path fill-rule="evenodd" clip-rule="evenodd" d="M18.2736 32.2159C18.2388 32.2291 18.2088 32.2519 18.1876 32.2813C18.1664 32.3107 18.1548 32.3455 18.1543 32.3813C18.1538 32.417 18.1645 32.452 18.185 32.4819C18.2055 32.5119 18.2348 32.5353 18.2693 32.5494C18.3038 32.5634 18.3419 32.5674 18.3787 32.5608C18.4156 32.5542 18.4496 32.5373 18.4764 32.5124C18.5032 32.4874 18.5216 32.4554 18.5293 32.4204C18.537 32.3855 18.5336 32.3491 18.5196 32.316C18.5007 32.2718 18.4643 32.2364 18.4183 32.2177C18.3722 32.1989 18.3202 32.1983 18.2736 32.2159Z" fill="#FEFEFE"/>
      <path fill-rule="evenodd" clip-rule="evenodd" d="M17.9575 33.0869C17.9226 33.1 17.8926 33.1228 17.8713 33.1522C17.85 33.1816 17.8384 33.2164 17.8379 33.2521C17.8374 33.2878 17.848 33.3229 17.8685 33.3528C17.8889 33.3828 17.9182 33.4063 17.9527 33.4204C17.9872 33.4345 18.0253 33.4385 18.0622 33.4319C18.0991 33.4254 18.1331 33.4085 18.1599 33.3835C18.1867 33.3585 18.2051 33.3266 18.2129 33.2916C18.2206 33.2567 18.2172 33.2203 18.2032 33.1872C18.1844 33.143 18.148 33.1076 18.102 33.0888C18.056 33.0701 18.004 33.0693 17.9575 33.0869Z" fill="#FEFEFE"/>
    </g>
  </symbol>

  <symbol id="chevron-circle-down" viewBox="0 0 22 22">
    <g>
      <path fill-rule="evenodd" clip-rule="evenodd" d="M11 1.75C5.89137 1.75 1.75 5.89136 1.75 11C1.75 16.1086 5.89136 20.25 11 20.25C16.1086 20.25 20.25 16.1086 20.25 11C20.25 5.89137 16.1086 1.75 11 1.75ZM0.25 11C0.250001 5.06294 5.06294 0.249999 11 0.25C16.9371 0.250001 21.75 5.06294 21.75 11C21.75 16.9371 16.9371 21.75 11 21.75C5.06294 21.75 0.249999 16.9371 0.25 11ZM6.93919 9.21043C7.23167 8.91712 7.70654 8.91645 7.99985 9.20893L11.0003 12.2009L14.0007 9.20893C14.294 8.91645 14.7689 8.91712 15.0614 9.21043C15.3538 9.50374 15.3532 9.97861 15.0599 10.2711L11.5299 13.7911C11.2371 14.083 10.7634 14.083 10.4707 13.7911L6.9407 10.2711C6.64739 9.97861 6.64671 9.50374 6.93919 9.21043Z"/>
    </g>
  </symbol>

  <symbol id="check" viewBox="0 0 17 13">
    <g>
      <path d="M16.2616 2.12117C16.6521 1.73064 16.6521 1.09748 16.2616 0.706956C15.8711 0.316431 15.2379 0.316431 14.8474 0.706956L4.94791 10.6065C4.55738 10.997 4.55738 11.6301 4.94791 12.0207C5.33843 12.4112 5.9716 12.4112 6.36212 12.0207L16.2616 2.12117Z"/>
      <path d="M0.707078 7.7784C0.316554 7.38787 0.316554 6.75471 0.707078 6.36418C1.0976 5.97366 1.73077 5.97366 2.12129 6.36418L6.36393 10.6068C6.75446 10.9973 6.75446 11.6305 6.36393 12.021C5.97341 12.4116 5.34024 12.4116 4.94972 12.021L0.707078 7.7784Z"/>
    </g>
  </symbol>

  <symbol id="pin" viewBox="0 0 19 22" fill="none">
    <g>
      <path d="M12.7119 5.85927L4.57796 14.6375C4.30867 14.9529 4.16399 15.3662 4.17386 15.7917C4.18373 16.2173 4.3474 16.6225 4.63099 16.9235C4.91457 17.2244 5.29635 17.3982 5.69728 17.4086C6.09821 17.4191 6.48758 17.2655 6.78478 16.9797L16.4811 6.54328C17.0197 5.91241 17.309 5.08588 17.2893 4.23482C17.2696 3.38376 16.9422 2.57334 16.3751 1.97137C15.8079 1.36939 15.0443 1.02196 14.2425 1.00101C13.4406 0.980052 12.6619 1.28718 12.0675 1.8588L2.37114 12.2953C1.49321 13.2271 1 14.4908 1 15.8086C1 17.1264 1.49321 18.3902 2.37114 19.322C3.24907 20.2538 4.43979 20.7773 5.68137 20.7773C6.92294 20.7773 8.11367 20.2538 8.9916 19.322L17.0084 10.8339" stroke="#2C2C2C" stroke-width="1.5" stroke-linecap="round" stroke-linejoin="round"/>
    </g>
  </symbol>

  <symbol id="doc" viewBox="0 0 22 22">
    <g>
      <path fill-rule="evenodd" clip-rule="evenodd" d="M3.15533 3.15533C2.2398 4.07086 1.75 5.57397 1.75 8V14C1.75 16.426 2.2398 17.9291 3.15533 18.8447C4.07086 19.7602 5.57397 20.25 8 20.25H14C16.426 20.25 17.9291 19.7602 18.8447 18.8447C19.7602 17.9291 20.25 16.426 20.25 14V9.75H17C15.4585 9.75 14.1921 9.50275 13.3447 8.65533C12.4972 7.80791 12.25 6.54155 12.25 5V1.75H8C5.57397 1.75 4.07086 2.2398 3.15533 3.15533ZM13.75 2.81066L19.1893 8.25H17C15.5415 8.25 14.8079 7.99725 14.4053 7.59467C14.0028 7.19209 13.75 6.45845 13.75 5V2.81066ZM2.09467 2.09467C3.42914 0.760201 5.42603 0.25 8 0.25H13C13.1989 0.25 13.3897 0.329018 13.5303 0.46967L21.5303 8.46967C21.671 8.61032 21.75 8.80109 21.75 9V14C21.75 16.574 21.2398 18.5709 19.9053 19.9053C18.5709 21.2398 16.574 21.75 14 21.75H8C5.42603 21.75 3.42914 21.2398 2.09467 19.9053C0.760201 18.5709 0.25 16.574 0.25 14V8C0.25 5.42603 0.760201 3.42914 2.09467 2.09467Z" fill="#292D32"/>
    </g>
  </symbol>

  <symbol id="doc-text" viewBox="0 0 16 16">
    <g>
      <path fill-rule="evenodd" clip-rule="evenodd" d="M2.76989 2.76893C2.15954 3.37929 1.83301 4.38136 1.83301 5.99871V9.99871C1.83301 11.6161 2.15954 12.6181 2.76989 13.2285C3.38025 13.8388 4.38232 14.1654 5.99967 14.1654H9.99967C11.617 14.1654 12.6191 13.8388 13.2295 13.2285C13.8398 12.6181 14.1663 11.6161 14.1663 9.99871V6.66538C14.1663 6.38924 14.3902 6.16538 14.6663 6.16538C14.9425 6.16538 15.1663 6.38924 15.1663 6.66538V9.99871C15.1663 11.7147 14.8262 13.046 13.9366 13.9356C13.0469 14.8252 11.7157 15.1654 9.99967 15.1654H5.99967C4.28369 15.1654 2.95243 14.8252 2.06279 13.9356C1.17314 13.046 0.833008 11.7147 0.833008 9.99871V5.99871C0.833008 4.28273 1.17314 2.95147 2.06279 2.06183C2.95243 1.17218 4.28369 0.832046 5.99967 0.832046H9.33301C9.60915 0.832046 9.83301 1.0559 9.83301 1.33205C9.83301 1.60819 9.60915 1.83205 9.33301 1.83205H5.99967C4.38232 1.83205 3.38025 2.15858 2.76989 2.76893Z" fill="#91B93A"/>
      <path fill-rule="evenodd" clip-rule="evenodd" d="M9.14167 0.870106C9.3285 0.792716 9.54356 0.835493 9.68656 0.978492L15.0199 6.31183C15.1629 6.45482 15.2057 6.66988 15.1283 6.85672C15.0509 7.04356 14.8686 7.16538 14.6663 7.16538H11.9997C10.972 7.16538 10.1277 7.00055 9.56279 6.4356C8.99784 5.87065 8.83301 5.02641 8.83301 3.99871V1.33205C8.83301 1.12981 8.95483 0.947497 9.14167 0.870106ZM9.83301 2.53915V3.99871C9.83301 4.97101 10.0015 5.46011 10.2699 5.72849C10.5383 5.99688 11.0274 6.16538 11.9997 6.16538H13.4592L9.83301 2.53915Z" fill="#91B93A"/>
      <path fill-rule="evenodd" clip-rule="evenodd" d="M4.16699 8.6653C4.16699 8.38916 4.39085 8.1653 4.66699 8.1653H8.66699C8.94313 8.1653 9.16699 8.38916 9.16699 8.6653C9.16699 8.94144 8.94313 9.1653 8.66699 9.1653H4.66699C4.39085 9.1653 4.16699 8.94144 4.16699 8.6653Z" fill="#91B93A"/>
      <path fill-rule="evenodd" clip-rule="evenodd" d="M4.16699 11.332C4.16699 11.0559 4.39085 10.832 4.66699 10.832H7.33366C7.6098 10.832 7.83366 11.0559 7.83366 11.332C7.83366 11.6082 7.6098 11.832 7.33366 11.832H4.66699C4.39085 11.832 4.16699 11.6082 4.16699 11.332Z" fill="#91B93A"/>
    </g>
  </symbol>

  <symbol id="doc-download" viewBox="0 0 16 16">
    <g>
      <path fill-rule="evenodd" clip-rule="evenodd" d="M2.76989 2.76892C2.15954 3.37927 1.83301 4.38135 1.83301 5.9987V9.9987C1.83301 11.616 2.15954 12.6181 2.76989 13.2285C3.38025 13.8388 4.38232 14.1654 5.99967 14.1654H9.99967C11.617 14.1654 12.6191 13.8388 13.2295 13.2285C13.8398 12.6181 14.1663 11.616 14.1663 9.9987V7.16536L11.9997 7.16536C10.972 7.16536 10.1277 7.00053 9.56279 6.43559C8.99784 5.87064 8.83301 5.0264 8.83301 3.9987L8.83301 1.83203H5.99967C4.38232 1.83203 3.38025 2.15856 2.76989 2.76892ZM9.83301 2.53914L13.4592 6.16536L11.9997 6.16536C11.0274 6.16536 10.5383 5.99686 10.2699 5.72848C10.0015 5.46009 9.83301 4.971 9.83301 3.9987L9.83301 2.53914ZM2.06279 2.06181C2.95243 1.17217 4.28369 0.832031 5.99967 0.832031H9.33301C9.46562 0.832031 9.59279 0.88471 9.68656 0.978478L15.0199 6.31181C15.1137 6.40558 15.1663 6.53276 15.1663 6.66536V9.9987C15.1663 11.7147 14.8262 13.0459 13.9366 13.9356C13.0469 14.8252 11.7157 15.1654 9.99967 15.1654H5.99967C4.28369 15.1654 2.95243 14.8252 2.06279 13.9356C1.17314 13.0459 0.833008 11.7147 0.833008 9.9987V5.9987C0.833008 4.28272 1.17314 2.95146 2.06279 2.06181ZM6 6.83199C6.27614 6.83199 6.5 7.05585 6.5 7.33199V10.1249L6.97978 9.6451C7.17504 9.44984 7.49162 9.44984 7.68689 9.6451C7.88215 9.84037 7.88215 10.1569 7.68689 10.3522L6.35355 11.6855C6.25978 11.7793 6.13259 11.832 5.99997 11.832C5.86735 11.832 5.74017 11.7793 5.6464 11.6855L4.3134 10.3522C4.11816 10.1569 4.1182 9.8403 4.31348 9.64506C4.50877 9.44982 4.82535 9.44986 5.02059 9.64515L5.5 10.1247V7.33199C5.5 7.05585 5.72386 6.83199 6 6.83199Z" fill="#91B93A"/>
    </g>
  </symbol>

  <symbol id="gear" viewBox="0 0 16 14" fill="none">
    <g>
      <path d="M8 8.99963C9.10457 8.99963 10 8.1042 10 6.99963C10 5.89506 9.10457 4.99963 8 4.99963C6.89543 4.99963 6 5.89506 6 6.99963C6 8.1042 6.89543 8.99963 8 8.99963Z" stroke="#292D32" stroke-miterlimit="10" stroke-linecap="round" stroke-linejoin="round"/>
      <path d="M1.33301 7.5863V6.41297C1.33301 5.71963 1.89967 5.1463 2.59967 5.1463C3.80634 5.1463 4.29967 4.29297 3.69301 3.2463C3.34634 2.6463 3.55301 1.8663 4.15967 1.51963L5.31301 0.859632C5.83967 0.546299 6.51967 0.732966 6.83301 1.25963L6.90634 1.3863C7.50634 2.43297 8.49301 2.43297 9.09967 1.3863L9.17301 1.25963C9.48634 0.732966 10.1663 0.546299 10.693 0.859632L11.8463 1.51963C12.453 1.8663 12.6597 2.6463 12.313 3.2463C11.7063 4.29297 12.1997 5.1463 13.4063 5.1463C14.0997 5.1463 14.673 5.71297 14.673 6.41297V7.5863C14.673 8.27963 14.1063 8.85297 13.4063 8.85297C12.1997 8.85297 11.7063 9.7063 12.313 10.753C12.6597 11.3596 12.453 12.133 11.8463 12.4796L10.693 13.1396C10.1663 13.453 9.48634 13.2663 9.17301 12.7396L9.09967 12.613C8.49967 11.5663 7.51301 11.5663 6.90634 12.613L6.83301 12.7396C6.51967 13.2663 5.83967 13.453 5.31301 13.1396L4.15967 12.4796C3.55301 12.133 3.34634 11.353 3.69301 10.753C4.29967 9.7063 3.80634 8.85297 2.59967 8.85297C1.89967 8.85297 1.33301 8.27963 1.33301 7.5863Z" stroke="#292D32" stroke-miterlimit="10" stroke-linecap="round" stroke-linejoin="round"/>
    </g>
  </symbol>

  <symbol id="show-menu" viewBox="0 0 24 24">
    <g>
      <path fill-rule="evenodd" clip-rule="evenodd" d="M10.6191 7.87988C10.6191 7.46567 10.9549 7.12988 11.3691 7.12988H16.6191C17.0334 7.12988 17.3691 7.46567 17.3691 7.87988C17.3691 8.2941 17.0334 8.62988 16.6191 8.62988H11.3691C10.9549 8.62988 10.6191 8.2941 10.6191 7.87988Z" fill="#91B93A"/>
      <path fill-rule="evenodd" clip-rule="evenodd" d="M8.91119 5.84955C9.20408 6.14245 9.20408 6.61732 8.91119 6.91021L6.66119 9.16021C6.3683 9.45311 5.89342 9.45311 5.60053 9.16021L4.85053 8.41021C4.55764 8.11732 4.55764 7.64245 4.85053 7.34955C5.14342 7.05666 5.6183 7.05666 5.91119 7.34955L6.13086 7.56922L7.85053 5.84955C8.14342 5.55666 8.6183 5.55666 8.91119 5.84955Z" fill="#91B93A"/>
      <path fill-rule="evenodd" clip-rule="evenodd" d="M10.6191 14.8799C10.6191 14.4657 10.9549 14.1299 11.3691 14.1299H16.6191C17.0334 14.1299 17.3691 14.4657 17.3691 14.8799C17.3691 15.2941 17.0334 15.6299 16.6191 15.6299H11.3691C10.9549 15.6299 10.6191 15.2941 10.6191 14.8799Z" fill="#91B93A"/>
      <path fill-rule="evenodd" clip-rule="evenodd" d="M8.91119 12.8496C9.20408 13.1424 9.20408 13.6173 8.91119 13.9102L6.66119 16.1602C6.3683 16.4531 5.89342 16.4531 5.60053 16.1602L4.85053 15.4102C4.55764 15.1173 4.55764 14.6424 4.85053 14.3496C5.14342 14.0567 5.6183 14.0567 5.91119 14.3496L6.13086 14.5692L7.85053 12.8496C8.14342 12.5567 8.6183 12.5567 8.91119 12.8496Z" fill="#91B93A"/>
      <path fill-rule="evenodd" clip-rule="evenodd" d="M2.09467 2.09467C3.42914 0.760201 5.42603 0.25 8 0.25H14C16.574 0.25 18.5709 0.760201 19.9053 2.09467C21.2398 3.42914 21.75 5.42603 21.75 8V14C21.75 16.574 21.2398 18.5709 19.9053 19.9053C18.5709 21.2398 16.574 21.75 14 21.75H8C5.42603 21.75 3.42914 21.2398 2.09467 19.9053C0.760201 18.5709 0.25 16.574 0.25 14V8C0.25 5.42603 0.760201 3.42914 2.09467 2.09467ZM3.15533 3.15533C2.2398 4.07086 1.75 5.57397 1.75 8V14C1.75 16.426 2.2398 17.9291 3.15533 18.8447C4.07086 19.7602 5.57397 20.25 8 20.25H14C16.426 20.25 17.9291 19.7602 18.8447 18.8447C19.7602 17.9291 20.25 16.426 20.25 14V8C20.25 5.57397 19.7602 4.07086 18.8447 3.15533C17.9291 2.2398 16.426 1.75 14 1.75H8C5.57397 1.75 4.07086 2.2398 3.15533 3.15533Z" fill="#91B93A"/>
    </g>
  </symbol>

  <symbol id="show-map" viewBox="0 0 24 24">
    <g>
      <path fill-rule="evenodd" clip-rule="evenodd" d="M21.9378 5.54939C22.2001 5.62502 22.4006 5.83723 22.4613 6.10342C22.6565 6.96025 22.75 7.91799 22.75 9.00003V15C22.75 17.5747 22.2395 19.5693 20.9127 20.908C20.7723 21.0497 20.5812 21.1296 20.3817 21.13C20.1822 21.1305 19.9907 21.0514 19.8497 20.9104L13.4697 14.5304C13.329 14.3897 13.25 14.1989 13.25 14C13.25 13.8011 13.329 13.6104 13.4697 13.4697L21.1997 5.73971C21.3927 5.54666 21.6754 5.47376 21.9378 5.54939ZM15.0607 14L20.3217 19.2611C20.9289 18.3252 21.25 16.9643 21.25 15V9.00003C21.25 8.5927 21.2356 8.21131 21.2073 7.85337L15.0607 14Z" fill="#91B93A"/>
      <path fill-rule="evenodd" clip-rule="evenodd" d="M4.15533 4.15533C3.2398 5.07086 2.75 6.57397 2.75 9V15C2.75 16.9167 3.05795 18.2629 3.64147 19.1925C4.14893 20.001 4.90987 20.5652 6.04287 20.8965L20.8965 6.04288C20.5653 4.90989 20.001 4.14894 19.1925 3.64148C18.2629 3.05795 16.9167 2.75 15 2.75H9C6.57397 2.75 5.07086 3.2398 4.15533 4.15533ZM3.09467 3.09467C4.42914 1.7602 6.42603 1.25 9 1.25H15C17.0433 1.25 18.7171 1.57205 19.99 2.37102C21.2935 3.18925 22.0815 4.44655 22.4611 6.10242C22.5187 6.3541 22.4429 6.61776 22.2603 6.80033L6.80032 22.2603C6.61774 22.4429 6.35408 22.5187 6.10241 22.461C4.44654 22.0814 3.18924 21.2935 2.37102 19.99C1.57205 18.7171 1.25 17.0433 1.25 15V9C1.25 6.42603 1.7602 4.42914 3.09467 3.09467Z" fill="#91B93A"/>
      <path fill-rule="evenodd" clip-rule="evenodd" d="M13.4692 13.4697C13.7621 13.1768 14.237 13.1768 14.5299 13.4697L20.9099 19.8497C21.051 19.9907 21.13 20.1822 21.1296 20.3817C21.1291 20.5812 21.0492 20.7723 20.9075 20.9127C19.5689 22.2395 17.5743 22.75 14.9996 22.75H8.99956C7.91751 22.75 6.95975 22.6565 6.10293 22.4613C5.83674 22.4006 5.62453 22.2001 5.5489 21.9378C5.47327 21.6754 5.54617 21.3927 5.73922 21.1997L13.4692 13.4697ZM7.85288 21.2073C8.21083 21.2356 8.59222 21.25 8.99956 21.25H14.9996C16.9638 21.25 18.3247 20.9289 19.2606 20.3217L13.9996 15.0607L7.85288 21.2073Z" fill="#91B93A"/>
      <path fill-rule="evenodd" clip-rule="evenodd" d="M9.12036 6.53247C8.1244 6.53247 7.21631 7.09228 6.97094 8.14953L6.97086 8.14986C6.66811 9.45169 7.48085 10.6481 8.3955 11.5149C8.80869 11.9038 9.44417 11.8985 9.84193 11.518L9.84454 11.5155L9.84454 11.5155C10.7555 10.6525 11.5645 9.45377 11.2694 8.14771C11.0234 7.09164 10.1158 6.53247 9.12036 6.53247ZM9.12036 5.03247C10.6644 5.03247 12.2963 5.93766 12.7309 7.81042L12.7318 7.81412L12.7318 7.81412C13.2153 9.94649 11.8658 11.6665 10.8773 12.6033C9.89522 13.5413 8.3522 13.5356 7.36586 12.6057L7.36456 12.6044C6.37954 11.6713 5.01282 9.94811 5.50977 7.81042M9.12036 5.03247C7.57641 5.03247 5.9446 5.93756 5.50985 7.81009Z" fill="#91B93A"/>
      <path fill-rule="evenodd" clip-rule="evenodd" d="M8.09375 8.69995C8.09375 8.14767 8.54147 7.69995 9.09375 7.69995H9.10273C9.65502 7.69995 10.1027 8.14767 10.1027 8.69995C10.1027 9.25224 9.65502 9.69995 9.10273 9.69995H9.09375C8.54147 9.69995 8.09375 9.25224 8.09375 8.69995Z" fill="#91B93A"/>
    </g>
  </symbol>

  <symbol id="note" viewBox="0 0 32 32">
    <g>
      <path fill-rule="evenodd" clip-rule="evenodd" d="M15.5759 4.62022C14.4655 5.00342 13.5927 5.80577 12.9016 7.2352L12.8987 7.24126C12.544 7.96254 12.2452 8.86996 11.9883 9.96162C11.9882 9.96185 11.9883 9.9614 11.9883 9.96162L10.6817 15.5477C10.0512 18.237 10.2157 19.9941 10.9692 21.2073C11.7234 22.4216 13.2278 23.3496 15.9123 23.987L18.156 24.5212C18.8877 24.6978 19.5553 24.808 20.1611 24.8564L20.1771 24.8579C22.083 25.0411 23.3742 24.676 24.3178 23.8685C25.2952 23.0321 26.0609 21.5863 26.6007 19.2666L26.6011 19.265L27.9077 13.6917C28.5385 11.0012 28.3767 9.24149 27.6233 8.02713C26.8699 6.81283 25.3641 5.88453 22.6673 5.25373C22.6672 5.2537 22.6674 5.25375 22.6673 5.25373L20.4406 4.73373L20.4378 4.73308C18.2924 4.22563 16.7328 4.22097 15.5759 4.62022ZM20.8968 2.78645C18.5895 2.24086 16.5962 2.15234 14.9235 2.72964C13.2048 3.32277 11.9713 4.56603 11.1025 6.36164C10.658 7.26623 10.3174 8.33083 10.0413 9.50422L8.73442 15.0917C8.73446 15.0915 8.73437 15.0918 8.73442 15.0917C8.05837 17.9755 8.10043 20.3792 9.2702 22.2625C10.4392 24.1448 12.5746 25.2501 15.4497 25.9327M15.4497 25.9327L17.6867 26.4653C17.6873 26.4655 17.6879 26.4656 17.6885 26.4658C18.4999 26.6615 19.2689 26.791 19.9936 26.8494C22.2442 27.0645 24.1369 26.6557 25.6182 25.388C27.0673 24.148 27.9682 22.2141 28.5484 19.721C28.5485 19.7206 28.5486 19.7203 28.5487 19.7199L29.8549 14.1482C30.5308 11.2653 30.4927 8.85837 29.3228 6.97273C28.1528 5.08708 26.0121 3.98207 23.1224 3.30621L20.8982 2.78678C20.8977 2.78667 20.8973 2.78656 20.8968 2.78645" fill="white"/>
      <path fill-rule="evenodd" clip-rule="evenodd" d="M12.7964 6.19461C13.0258 6.49614 13.0651 6.90142 12.8979 7.2414C12.5432 7.96263 12.2444 8.87 11.9875 9.96157C11.9874 9.96186 11.9875 9.96128 11.9875 9.96157L10.6809 15.5478C10.0504 18.2371 10.2148 19.9943 10.9683 21.2075C11.7225 22.4218 13.2269 23.3498 15.9115 23.9871L18.1552 24.5213C18.8868 24.6979 19.5545 24.8081 20.1603 24.8566C20.5835 24.8905 20.9392 25.1879 21.0475 25.5985C21.1557 26.009 20.9929 26.4432 20.6414 26.6813C19.7104 27.312 18.5758 27.8138 17.2583 28.2438C17.258 28.2439 17.2586 28.2437 17.2583 28.2438L15.1474 28.9385C12.4078 29.8218 10.0702 29.9803 8.14502 28.9953C6.22017 28.0105 4.97947 26.0215 4.08946 23.2824L2.38209 18.0136C1.4991 15.2749 1.33701 12.9347 2.31765 11.0081C3.29874 9.08062 5.28459 7.83962 8.02406 6.95594L10.1382 6.26013C10.7 6.082 11.2638 5.92173 11.8146 5.81751C12.1869 5.74708 12.567 5.89308 12.7964 6.19461ZM10.3625 8.29184L8.64071 8.85852C6.08836 9.68144 4.72193 10.6936 4.10004 11.9154C3.4774 13.1386 3.46193 14.8449 4.28537 17.3992C4.28545 17.3994 4.28529 17.3989 4.28537 17.3992L5.99156 22.6644C5.99159 22.6645 5.99153 22.6643 5.99156 22.6644C6.82153 25.2185 7.83423 26.5897 9.05601 27.2148C10.277 27.8396 11.9786 27.8584 14.5308 27.0359C14.5317 27.0356 14.5327 27.0353 14.5336 27.035L16.6346 26.3435L16.637 26.3427C16.7122 26.3182 16.7863 26.2935 16.8594 26.2687L15.4495 25.933C12.5741 25.2504 10.4385 24.1451 9.26936 22.2627C8.09953 20.3792 8.05741 17.9759 8.73358 15.0918L10.0404 9.50437C10.139 9.08556 10.2457 8.68061 10.3625 8.29184Z" fill="white"/>
      <path fill-rule="evenodd" clip-rule="evenodd" d="M15.8825 11.1275C16.0183 10.5921 16.5623 10.2682 17.0976 10.404L23.5643 12.044C24.0996 12.1797 24.4235 12.7238 24.2878 13.2591C24.152 13.7945 23.608 14.1184 23.0726 13.9826L16.606 12.3426C16.0706 12.2068 15.7467 11.6628 15.8825 11.1275Z" fill="white"/>
      <path fill-rule="evenodd" clip-rule="evenodd" d="M14.5782 16.2862C14.7147 15.7511 15.2592 15.4279 15.7944 15.5645L19.661 16.5512C20.1962 16.6877 20.5193 17.2322 20.3827 17.7674C20.2462 18.3025 19.7017 18.6256 19.1665 18.4891L15.2999 17.5024C14.7647 17.3658 14.4416 16.8213 14.5782 16.2862Z" fill="white"/>
    </g>
  </symbol>

  <symbol id="book" viewBox="0 0 32 32">
    <g>
      <path fill-rule="evenodd" clip-rule="evenodd" d="M5.63018 2.56339C8.58831 2.80324 12.975 4.26536 15.483 5.82683L15.8091 6.02252L15.8205 6.02946C15.821 6.02961 15.835 6.03695 15.866 6.04467C15.9023 6.05372 15.9491 6.06001 16.0013 6.06001C16.0535 6.06001 16.1003 6.05372 16.1366 6.04467C16.1623 6.03826 16.1764 6.03212 16.1807 6.03013L16.402 5.88688C18.9104 4.30858 23.3171 2.83061 26.2759 2.577C26.3043 2.57456 26.3328 2.57334 26.3613 2.57334H26.4024C28.5469 2.4177 30.3346 4.05095 30.3346 6.22668V22.32C30.3346 24.0965 28.9268 25.7288 27.1387 25.9523L27.135 25.9527L26.7008 26.0054C23.9201 26.3765 19.5687 27.8138 17.1177 29.1652C16.7564 29.3707 16.3463 29.4433 15.993 29.4433C15.642 29.4433 15.2415 29.3718 14.8848 29.1798L14.8474 29.1611C14.8365 29.1556 14.8256 29.1499 14.8148 29.1441C12.3622 27.8028 8.01322 26.3749 5.24217 26.0045L5.238 26.004L4.8571 25.9514C3.07219 25.7246 1.66797 24.0942 1.66797 22.32V6.21334C1.66797 4.04595 3.45688 2.38161 5.63018 2.56339ZM5.46423 4.5565C4.46489 4.47252 3.66797 5.20791 3.66797 6.21334V22.32C3.66797 23.1035 4.34016 23.8713 5.112 23.9677L5.12462 23.9693L5.5071 24.0222C5.50772 24.0222 5.50833 24.0223 5.50895 24.0224C8.51842 24.425 13.0888 25.9247 15.758 27.3803L15.7952 27.3989C15.8076 27.4051 15.8199 27.4116 15.8321 27.4183C15.8323 27.4184 15.8452 27.4244 15.8731 27.4308C15.9059 27.4383 15.9474 27.4433 15.993 27.4433C16.0386 27.4433 16.0781 27.4382 16.1071 27.4315C16.1227 27.4279 16.1316 27.4247 16.1346 27.4236L16.1446 27.4179C18.8132 25.9447 23.4123 24.4252 26.4428 24.0221L26.4543 24.0205L26.8906 23.9677C26.8912 23.9677 26.8917 23.9676 26.8923 23.9675C27.6634 23.8702 28.3346 23.103 28.3346 22.32V6.22668C28.3346 5.21756 27.534 4.48504 26.525 4.56983C26.4972 4.57217 26.4692 4.57334 26.4413 4.57334H26.4051C23.7647 4.81031 19.7002 6.1766 17.4725 7.57643L17.2512 7.71958L17.2353 7.72965C16.8464 7.97104 16.395 8.06001 16.0013 8.06001C15.6101 8.06001 15.162 7.97219 14.7749 7.73433L14.4468 7.5375L14.4322 7.52854C12.1927 6.13203 8.1062 4.77038 5.46728 4.55675L5.46423 4.5565Z" fill="white"/>
      <path fill-rule="evenodd" clip-rule="evenodd" d="M16 6.32007C16.5523 6.32007 17 6.76778 17 7.32007V27.3201C17 27.8724 16.5523 28.3201 16 28.3201C15.4477 28.3201 15 27.8724 15 27.3201V7.32007C15 6.76778 15.4477 6.32007 16 6.32007Z" fill="white"/>
      <path fill-rule="evenodd" clip-rule="evenodd" d="M6.33594 11.3201C6.33594 10.7678 6.78365 10.3201 7.33594 10.3201H10.3359C10.8882 10.3201 11.3359 10.7678 11.3359 11.3201C11.3359 11.8724 10.8882 12.3201 10.3359 12.3201H7.33594C6.78365 12.3201 6.33594 11.8724 6.33594 11.3201Z" fill="white"/>
      <path fill-rule="evenodd" clip-rule="evenodd" d="M6.33594 15.3201C6.33594 14.7678 6.78365 14.3201 7.33594 14.3201H11.3359C11.8882 14.3201 12.3359 14.7678 12.3359 15.3201C12.3359 15.8724 11.8882 16.3201 11.3359 16.3201H7.33594C6.78365 16.3201 6.33594 15.8724 6.33594 15.3201Z" fill="white"/>
    </g>
  </symbol>

  <symbol id="red-list" viewBox="0 0 22 20">
    <g>
      <path fill-rule="evenodd" clip-rule="evenodd" d="M11.4968 12.9766H12.3098C12.6017 12.9766 12.7581 12.8223 12.7581 12.5447C12.7581 12.2722 12.5392 12.1488 12.2681 12.1488H11.4968V12.9766ZM10.5273 11.3828H12.4245C13.0812 11.3828 13.7276 11.6758 13.7276 12.4162C13.7276 12.8121 13.5347 13.1874 13.1438 13.3365V13.3468C13.5399 13.4393 13.6545 13.8764 13.6859 14.2259C13.6963 14.3802 13.7119 14.9201 13.8422 15.0537H12.8831C12.7997 14.9303 12.7841 14.5705 12.7737 14.4676C12.7477 14.0974 12.6851 13.717 12.2316 13.717H11.4968V15.0537H10.5273V11.3828Z" fill="white"/>
      <path fill-rule="evenodd" clip-rule="evenodd" d="M14.1875 11.3828H17.1532V12.1488H15.1569V12.7915H16.9811V13.5319H15.1569V14.2311H17.2053V15.0537H14.1875V11.3828Z" fill="white"/>
      <path fill-rule="evenodd" clip-rule="evenodd" d="M18.6218 14.2311H19.0804C19.8154 14.2157 20.1071 13.933 20.1071 13.1976C20.1071 12.5293 19.7423 12.2054 19.0804 12.2054H18.6218V14.2311ZM17.6523 11.3828H19.2524C20.3939 11.3828 21.0767 12.0666 21.0767 13.2029C21.0767 14.4059 20.3834 15.0537 19.2524 15.0537H17.6523V11.3828Z" fill="white"/>
      <path fill-rule="evenodd" clip-rule="evenodd" d="M10.5273 15.4316H11.4968V18.28H13.2323V19.1026H10.5273V15.4316Z" fill="white"/>
      <path fill-rule="evenodd" clip-rule="evenodd" d="M13.5039 19.1026H14.4733V15.4316H13.5039V19.1026Z" fill="white"/>
      <path fill-rule="evenodd" clip-rule="evenodd" d="M15.6921 17.8697C15.7129 18.3015 15.9839 18.4404 16.3957 18.4404C16.6876 18.4404 16.9899 18.3375 16.9899 18.065C16.9899 17.7411 16.4582 17.6794 15.9214 17.5303C15.3898 17.3811 14.8321 17.1447 14.8321 16.4711C14.8321 15.6691 15.6504 15.3555 16.3488 15.3555C17.0889 15.3555 17.8342 15.7102 17.8394 16.538H16.87C16.8856 16.2038 16.5677 16.0958 16.2706 16.0958C16.0621 16.0958 15.8015 16.1678 15.8015 16.4094C15.8015 16.6922 16.3383 16.7436 16.8804 16.8928C17.4172 17.0419 17.9593 17.2887 17.9593 17.9519C17.9593 18.8825 17.1567 19.1807 16.3383 19.1807C15.4836 19.1807 14.7278 18.8106 14.7227 17.8697H15.6921Z" fill="white"/>
      <path fill-rule="evenodd" clip-rule="evenodd" d="M21.0258 16.2543H19.9157V19.1026H18.9462V16.2543H17.8361V15.4317H21.0258V16.2543Z" fill="white"/>
      <path fill-rule="evenodd" clip-rule="evenodd" d="M17.7239 2.79536C16.9767 3.50721 16.8162 4.5382 17.365 5.09891C17.9141 5.65955 18.9649 5.53678 19.7117 4.82515C20.4587 4.11345 20.6195 3.08196 20.0703 2.52168C19.5216 1.96097 18.4706 2.08395 17.7239 2.79536Z" fill="white"/>
      <path fill-rule="evenodd" clip-rule="evenodd" d="M17.1256 6.2567C16.3791 6.96833 16.2186 7.99961 16.7674 8.55996C17.3165 9.12067 18.3668 8.99805 19.1133 8.28634C19.8607 7.57457 20.0209 6.54329 19.472 5.9823C18.9237 5.42195 17.8729 5.54493 17.1256 6.2567Z" fill="white"/>
      <path fill-rule="evenodd" clip-rule="evenodd" d="M11.9932 1.194C11.2462 1.90591 11.0858 2.93705 11.6347 3.4979C12.1835 4.05832 13.2344 3.9357 13.981 3.22386C14.7276 2.51215 14.8882 1.48045 14.3395 0.920167C13.7908 0.359671 12.7398 0.48194 11.9932 1.194Z" fill="white"/>
      <path fill-rule="evenodd" clip-rule="evenodd" d="M15.5285 0.647036C14.7816 1.35909 14.6209 2.39016 15.1694 2.95058C15.7189 3.51108 16.7692 3.38881 17.5162 2.67689C18.263 1.96512 18.4237 0.933277 17.8745 0.373206C17.326 -0.187503 16.2754 -0.0644531 15.5285 0.647036Z" fill="white"/>
      <path fill-rule="evenodd" clip-rule="evenodd" d="M16.2064 6.94805C16.2064 8.5489 14.8905 9.84727 13.2673 9.84727C11.644 9.84727 10.3281 8.5489 10.3281 6.94805C10.3281 5.34684 11.644 4.04883 13.2673 4.04883C14.8905 4.04883 16.2064 5.34684 16.2064 6.94805Z" fill="white"/>
      <path fill-rule="evenodd" clip-rule="evenodd" d="M9.38104 5.21247C9.38104 7.76623 7.28212 9.83566 4.69417 9.83566C2.10594 9.83566 0.0078125 7.76623 0.0078125 5.21247C0.0078125 2.6597 2.10594 0.589844 4.69417 0.589844H9.38693L9.38104 5.21247Z" fill="white"/>
      <path fill-rule="evenodd" clip-rule="evenodd" d="M9.43124 15.3493C9.43124 17.9183 7.31974 20.0009 4.71533 20.0009C2.11135 20.0009 0 17.9183 0 15.3493C0 12.7797 2.11135 10.6973 4.71533 10.6973C7.31974 10.6973 9.43124 12.7797 9.43124 15.3493Z" fill="white"/>
      <path fill-rule="evenodd" clip-rule="evenodd" d="M2.61328 15.839H2.82207V14.9023H2.61328V15.839Z" fill="#DA2A1C"/>
      <path fill-rule="evenodd" clip-rule="evenodd" d="M3.67877 15.7675C3.60694 15.8292 3.50765 15.86 3.38083 15.86C3.25228 15.86 3.15278 15.8294 3.08232 15.7682C3.01179 15.707 2.97656 15.6126 2.97656 15.4848V14.9023H3.18535V15.4848C3.18535 15.5101 3.18758 15.5351 3.19203 15.5596C3.19649 15.584 3.20577 15.6057 3.21993 15.6245C3.23409 15.6433 3.25386 15.6587 3.2791 15.6704C3.30441 15.6822 3.33834 15.6882 3.38083 15.6882C3.45539 15.6882 3.50672 15.6718 3.53512 15.639C3.56352 15.6062 3.57768 15.5548 3.57768 15.4848V14.9023H3.78654V15.4848C3.78654 15.6116 3.75059 15.7059 3.67877 15.7675Z" fill="#DA2A1C"/>
      <path fill-rule="evenodd" clip-rule="evenodd" d="M4.54483 15.151C4.53239 15.1314 4.51693 15.1141 4.49831 15.0993C4.47962 15.0844 4.45855 15.0728 4.43511 15.0645C4.4116 15.0562 4.38701 15.052 4.36128 15.052C4.31433 15.052 4.27443 15.061 4.24157 15.0789C4.20879 15.0968 4.18218 15.1209 4.16184 15.151C4.14142 15.1812 4.12654 15.2156 4.11726 15.2541C4.10799 15.2925 4.10332 15.3323 4.10332 15.3734C4.10332 15.4128 4.10799 15.4511 4.11726 15.4882C4.12654 15.5254 4.14142 15.5588 4.16184 15.5886C4.18218 15.6183 4.20879 15.6421 4.24157 15.6601C4.27443 15.678 4.31433 15.687 4.36128 15.687C4.42512 15.687 4.47501 15.6678 4.51096 15.6293C4.54684 15.5907 4.56877 15.54 4.57675 15.4771H4.77892C4.7736 15.5356 4.75979 15.5886 4.73765 15.6358C4.7155 15.683 4.68624 15.7233 4.64994 15.7566C4.61356 15.7898 4.571 15.8151 4.52225 15.8326C4.47351 15.85 4.4198 15.8588 4.36128 15.8588C4.28859 15.8588 4.22324 15.8464 4.16515 15.8215C4.10705 15.7966 4.05809 15.7622 4.01819 15.7184C3.97829 15.6747 3.94773 15.6234 3.92645 15.5643C3.90517 15.5053 3.89453 15.4417 3.89453 15.3734C3.89453 15.3034 3.90517 15.2386 3.92645 15.1786C3.94773 15.1187 3.97829 15.0664 4.01819 15.0218C4.05809 14.9772 4.10705 14.9422 4.16515 14.9169C4.22324 14.8915 4.28859 14.8789 4.36128 14.8789C4.41362 14.8789 4.46301 14.8863 4.5096 14.9012C4.55611 14.916 4.59781 14.9377 4.63462 14.9661C4.67136 14.9945 4.70177 15.0297 4.72571 15.0717C4.74966 15.1137 4.76468 15.1617 4.77094 15.216H4.56877C4.56517 15.1923 4.55726 15.1707 4.54483 15.151Z" fill="#DA2A1C"/>
      <path fill-rule="evenodd" clip-rule="evenodd" d="M5.10202 14.9023L5.49831 15.5306H5.50097V14.9023H5.69645V15.839H5.48767L5.09268 15.2119H5.09001V15.839H4.89453V14.9023H5.10202Z" fill="#DA2A1C"/>
      <path fill-rule="evenodd" clip-rule="evenodd" d="M4.60229 16.3516C4.58489 16.3704 4.56699 16.389 4.5488 16.4071C4.2738 16.6782 3.89498 16.8456 3.47569 16.8456C3.05596 16.8456 2.67736 16.6782 2.40214 16.4071C2.12722 16.1358 1.95776 15.7622 1.95762 15.3483C1.95776 14.9345 2.12722 14.5607 2.40214 14.2895C2.67736 14.0183 3.05596 13.851 3.47569 13.8507C3.89498 13.851 4.2738 14.0183 4.5488 14.2895C4.58065 14.3207 4.6107 14.3534 4.63946 14.3875H5.25913C4.91431 13.7644 4.24432 13.3421 3.47411 13.3418C2.35146 13.3421 1.44155 14.2395 1.44141 15.3472C1.44155 16.4546 2.35146 17.3522 3.47411 17.3522C4.22563 17.3522 4.88196 16.9498 5.2336 16.3516H4.60229Z" fill="#DA2A1C"/>
      <path fill-rule="evenodd" clip-rule="evenodd" d="M21.7211 11.7625C21.6979 11.8905 21.5997 11.9699 21.4796 11.9699C21.3049 11.9699 21.1903 11.8393 21.1903 11.6657C21.1903 11.5027 21.2994 11.3775 21.4769 11.3762C21.601 11.3762 21.702 11.4476 21.7198 11.5795H21.627C21.6133 11.5108 21.5547 11.4637 21.4769 11.4637C21.3622 11.4637 21.2994 11.5539 21.2994 11.6657C21.2994 11.7827 21.369 11.8824 21.4796 11.8824C21.5601 11.8824 21.6174 11.8325 21.627 11.7625H21.7211ZM21.4631 11.2497C21.2421 11.2497 21.0701 11.4206 21.0701 11.6657C21.0701 11.8945 21.2203 12.0816 21.4631 12.0816C21.6815 12.0816 21.8535 11.912 21.8535 11.6657C21.8535 11.4206 21.6815 11.2497 21.4631 11.2497ZM21.4631 12.1691C21.1697 12.1691 20.9609 11.9524 20.9609 11.6657C20.9609 11.3627 21.193 11.1621 21.4631 11.1621C21.7307 11.1621 21.9627 11.3627 21.9627 11.6657C21.9627 11.9685 21.7307 12.1691 21.4631 12.1691Z" fill="white"/>
    </g>
  </symbol>
</svg>