<svg width="20" height="14" viewBox="0 0 20 14" fill="none" xmlns="http://www.w3.org/2000/svg">
<path fill-rule="evenodd" clip-rule="evenodd" d="M8.1021 0.362068C8.39401 0.655937 8.39243 1.13081 8.09856 1.42272L3.31924 6.17025H18.5C18.9142 6.17025 19.25 6.50603 19.25 6.92025C19.25 7.33446 18.9142 7.67025 18.5 7.67025H3.31924L8.09856 12.4178C8.39243 12.7097 8.39401 13.1846 8.1021 13.4784C7.81018 13.7723 7.33531 13.7739 7.04144 13.482L0.971443 7.45234C0.829706 7.31155 0.75 7.12003 0.75 6.92025C0.75 6.72047 0.829706 6.52894 0.971443 6.38815L7.04144 0.358528C7.33531 0.066614 7.81018 0.0681986 8.1021 0.362068Z" fill="#2C2C2C"/>
</svg>
