<svg width="20" height="14" viewBox="0 0 20 14" fill="none" xmlns="http://www.w3.org/2000/svg">
<path fill-rule="evenodd" clip-rule="evenodd" d="M11.8979 0.522224C12.1898 0.228355 12.6647 0.22677 12.9586 0.518684L19.0286 6.54831C19.1703 6.6891 19.25 6.88062 19.25 7.0804C19.25 7.28018 19.1703 7.47171 19.0286 7.6125L12.9586 13.6421C12.6647 13.934 12.1898 13.9325 11.8979 13.6386C11.606 13.3447 11.6076 12.8698 11.9014 12.5779L16.6808 7.8304L1.5 7.8304C1.08579 7.8304 0.75 7.49462 0.75 7.0804C0.75 6.66619 1.08579 6.3304 1.5 6.3304L16.6808 6.3304L11.9014 1.58288C11.6076 1.29096 11.606 0.816093 11.8979 0.522224Z" fill="#2C2C2C"/>
</svg>
