<svg width="17" height="13" viewBox="0 0 17 13" fill="none" xmlns="http://www.w3.org/2000/svg">
<path d="M16.2616 2.12117C16.6521 1.73064 16.6521 1.09748 16.2616 0.706956C15.8711 0.316431 15.2379 0.316431 14.8474 0.706956L4.94791 10.6065C4.55738 10.997 4.55738 11.6301 4.94791 12.0207C5.33843 12.4112 5.9716 12.4112 6.36212 12.0207L16.2616 2.12117Z" fill="white"/>
<path d="M0.707078 7.7784C0.316554 7.38787 0.316554 6.75471 0.707078 6.36418C1.0976 5.97366 1.73077 5.97366 2.12129 6.36418L6.36393 10.6068C6.75446 10.9973 6.75446 11.6305 6.36393 12.021C5.97341 12.4116 5.34024 12.4116 4.94972 12.021L0.707078 7.7784Z" fill="white"/>
</svg>
