<svg width="24" height="17" viewBox="0 0 24 17" fill="none" xmlns="http://www.w3.org/2000/svg">
<path fill-rule="evenodd" clip-rule="evenodd" d="M0 0.503906H24V16.4092H0V0.503906Z" fill="#E31D1C"/>
<path fill-rule="evenodd" clip-rule="evenodd" d="M11.2626 3.5165L10.505 3.92065L10.6778 3.13199L10.0469 2.54176L10.9012 2.50985L11.2626 1.77344L11.624 2.50985H12.4769L11.8474 3.13199L12.0369 3.92065L11.2626 3.5165Z" fill="#FECA00"/>
<path fill-rule="evenodd" clip-rule="evenodd" d="M5.26395 6.87048L3.10332 7.89831L3.59615 5.8926L1.79688 4.39151L4.23319 4.31035L5.26395 2.4375L6.2947 4.31035H8.72687L6.93175 5.8926L7.47219 7.89831L5.26395 6.87048Z" fill="#FECA00"/>
<path fill-rule="evenodd" clip-rule="evenodd" d="M12.7626 6.16885L12.005 6.57299L12.1778 5.78434L11.5469 5.19411L12.4012 5.16219L12.7626 4.42578L13.124 5.16219H13.9769L13.3474 5.78434L13.5369 6.57299L12.7626 6.16885Z" fill="#FECA00"/>
<path fill-rule="evenodd" clip-rule="evenodd" d="M12.0126 8.81728L11.255 9.22143L11.4278 8.43278L10.7969 7.84254L11.6512 7.81063L12.0126 7.07422L12.374 7.81063H13.2269L12.5974 8.43278L12.7869 9.22143L12.0126 8.81728Z" fill="#FECA00"/>
<path fill-rule="evenodd" clip-rule="evenodd" d="M9.7626 10.8056L9.00498 11.2097L9.17779 10.4211L8.54688 9.83082L9.40117 9.79891L9.7626 9.0625L10.124 9.79891H10.9769L10.3474 10.4211L10.5369 11.2097L9.7626 10.8056Z" fill="#FECA00"/>
</svg>
