<svg width="16" height="16" viewBox="0 0 16 16" fill="none" xmlns="http://www.w3.org/2000/svg">
<path fill-rule="evenodd" clip-rule="evenodd" d="M2.76989 2.76892C2.15954 3.37927 1.83301 4.38135 1.83301 5.9987V9.9987C1.83301 11.616 2.15954 12.6181 2.76989 13.2285C3.38025 13.8388 4.38232 14.1654 5.99967 14.1654H9.99967C11.617 14.1654 12.6191 13.8388 13.2295 13.2285C13.8398 12.6181 14.1663 11.616 14.1663 9.9987V7.16536L11.9997 7.16536C10.972 7.16536 10.1277 7.00053 9.56279 6.43559C8.99784 5.87064 8.83301 5.0264 8.83301 3.9987L8.83301 1.83203H5.99967C4.38232 1.83203 3.38025 2.15856 2.76989 2.76892ZM9.83301 2.53914L13.4592 6.16536L11.9997 6.16536C11.0274 6.16536 10.5383 5.99686 10.2699 5.72848C10.0015 5.46009 9.83301 4.971 9.83301 3.9987L9.83301 2.53914ZM2.06279 2.06181C2.95243 1.17217 4.28369 0.832031 5.99967 0.832031H9.33301C9.46562 0.832031 9.59279 0.88471 9.68656 0.978478L15.0199 6.31181C15.1137 6.40558 15.1663 6.53276 15.1663 6.66536V9.9987C15.1663 11.7147 14.8262 13.0459 13.9366 13.9356C13.0469 14.8252 11.7157 15.1654 9.99967 15.1654H5.99967C4.28369 15.1654 2.95243 14.8252 2.06279 13.9356C1.17314 13.0459 0.833008 11.7147 0.833008 9.9987V5.9987C0.833008 4.28272 1.17314 2.95146 2.06279 2.06181ZM6 6.83199C6.27614 6.83199 6.5 7.05585 6.5 7.33199V10.1249L6.97978 9.6451C7.17504 9.44984 7.49162 9.44984 7.68689 9.6451C7.88215 9.84037 7.88215 10.1569 7.68689 10.3522L6.35355 11.6855C6.25978 11.7793 6.13259 11.832 5.99997 11.832C5.86735 11.832 5.74017 11.7793 5.6464 11.6855L4.3134 10.3522C4.11816 10.1569 4.1182 9.8403 4.31348 9.64506C4.50877 9.44982 4.82535 9.44986 5.02059 9.64515L5.5 10.1247V7.33199C5.5 7.05585 5.72386 6.83199 6 6.83199Z" fill="#91B93A"/>
</svg>
