<svg width="16" height="16" viewBox="0 0 16 16" fill="none" xmlns="http://www.w3.org/2000/svg">
<path fill-rule="evenodd" clip-rule="evenodd" d="M2.76989 2.76893C2.15954 3.37929 1.83301 4.38136 1.83301 5.99871V9.99871C1.83301 11.6161 2.15954 12.6181 2.76989 13.2285C3.38025 13.8388 4.38232 14.1654 5.99967 14.1654H9.99967C11.617 14.1654 12.6191 13.8388 13.2295 13.2285C13.8398 12.6181 14.1663 11.6161 14.1663 9.99871V6.66538C14.1663 6.38924 14.3902 6.16538 14.6663 6.16538C14.9425 6.16538 15.1663 6.38924 15.1663 6.66538V9.99871C15.1663 11.7147 14.8262 13.046 13.9366 13.9356C13.0469 14.8252 11.7157 15.1654 9.99967 15.1654H5.99967C4.28369 15.1654 2.95243 14.8252 2.06279 13.9356C1.17314 13.046 0.833008 11.7147 0.833008 9.99871V5.99871C0.833008 4.28273 1.17314 2.95147 2.06279 2.06183C2.95243 1.17218 4.28369 0.832046 5.99967 0.832046H9.33301C9.60915 0.832046 9.83301 1.0559 9.83301 1.33205C9.83301 1.60819 9.60915 1.83205 9.33301 1.83205H5.99967C4.38232 1.83205 3.38025 2.15858 2.76989 2.76893Z" fill="#91B93A"/>
<path fill-rule="evenodd" clip-rule="evenodd" d="M9.14167 0.870106C9.3285 0.792716 9.54356 0.835493 9.68656 0.978492L15.0199 6.31183C15.1629 6.45482 15.2057 6.66988 15.1283 6.85672C15.0509 7.04356 14.8686 7.16538 14.6663 7.16538H11.9997C10.972 7.16538 10.1277 7.00055 9.56279 6.4356C8.99784 5.87065 8.83301 5.02641 8.83301 3.99871V1.33205C8.83301 1.12981 8.95483 0.947497 9.14167 0.870106ZM9.83301 2.53915V3.99871C9.83301 4.97101 10.0015 5.46011 10.2699 5.72849C10.5383 5.99688 11.0274 6.16538 11.9997 6.16538H13.4592L9.83301 2.53915Z" fill="#91B93A"/>
<path fill-rule="evenodd" clip-rule="evenodd" d="M4.16699 8.6653C4.16699 8.38916 4.39085 8.1653 4.66699 8.1653H8.66699C8.94313 8.1653 9.16699 8.38916 9.16699 8.6653C9.16699 8.94144 8.94313 9.1653 8.66699 9.1653H4.66699C4.39085 9.1653 4.16699 8.94144 4.16699 8.6653Z" fill="#91B93A"/>
<path fill-rule="evenodd" clip-rule="evenodd" d="M4.16699 11.332C4.16699 11.0559 4.39085 10.832 4.66699 10.832H7.33366C7.6098 10.832 7.83366 11.0559 7.83366 11.332C7.83366 11.6082 7.6098 11.832 7.33366 11.832H4.66699C4.39085 11.832 4.16699 11.6082 4.16699 11.332Z" fill="#91B93A"/>
</svg>
