<svg width="40" height="40" viewBox="0 0 40 40" fill="none" xmlns="http://www.w3.org/2000/svg">
<path d="M40 20C40 31.0457 31.0457 40 20 40C8.9543 40 0 31.0457 0 20C0 8.9543 8.9543 0 20 0C31.0457 0 40 8.9543 40 20Z" fill="#D26524"/>
<path d="M32.3333 16.2C29.2533 11.36 24.7467 8.57333 20 8.57333C17.6267 8.57333 15.32 9.26667 13.2133 10.56C11.1067 11.8667 9.21333 13.7733 7.66667 16.2C6.33333 18.2933 6.33333 21.6933 7.66667 23.7867C10.7467 28.64 15.2533 31.4133 20 31.4133C22.3733 31.4133 24.68 30.72 26.7867 29.4267C28.8933 28.12 30.7867 26.2133 32.3333 23.7867C33.6667 21.7067 33.6667 18.2933 32.3333 16.2ZM20 25.3867C17.0133 25.3867 14.6133 22.9733 14.6133 20C14.6133 17.0267 17.0133 14.6133 20 14.6133C22.9867 14.6133 25.3867 17.0267 25.3867 20C25.3867 22.9733 22.9867 25.3867 20 25.3867Z" fill="white"/>
<path d="M20 16.1867C17.9067 16.1867 16.2 17.8933 16.2 20C16.2 22.0933 17.9067 23.8 20 23.8C22.0933 23.8 23.8133 22.0933 23.8133 20C23.8133 17.9067 22.0933 16.1867 20 16.1867Z" fill="white"/>
</svg>
