<svg width="60" height="62" viewBox="0 0 60 62" fill="none" xmlns="http://www.w3.org/2000/svg">
<path d="M59.1547 20.0697C55.6054 6.23059 41.9828 0 30.0166 0C30.0166 0 30.0166 0 29.9828 0C18.0503 0 4.39397 6.20063 0.844669 20.0397C-3.11027 35.4964 7.57145 48.5866 17.2391 56.8242C20.8222 59.8795 25.4194 61.4072 30.0166 61.4072C34.6138 61.4072 39.211 59.8795 42.7603 56.8242C52.4279 48.5866 63.1096 35.5263 59.1547 20.0697Z" fill="#1F382D"/>
<path fill-rule="evenodd" clip-rule="evenodd" d="M13.7346 21.931C10.3321 21.3806 10.997 15.8999 14.9262 16.3925C15.6373 15.6596 17.0894 14.8834 19.4876 14.3309C19.874 13.6706 23.2996 10.8694 30.7472 11.5847C40.1213 11.2028 45.527 12.3978 47.3114 16.6926C49.0958 20.9874 47.6532 24.8223 47.8148 26.358C47.9764 27.8936 48.3596 30.7535 47.6636 31.3751C46.9677 31.9968 47.0647 31.3288 47.4536 32.6958C47.8425 34.0627 46.7841 35.7731 42.8597 35.8208C39.7573 35.8586 37.2214 36.3449 37.6321 33.1403C37.4899 33.1495 37.6398 33.1382 37.1542 33.1669C37.5755 35.9055 34.6758 35.9043 32.8004 36.0937C30.1944 36.3568 27.9271 36.1858 28.0239 34.628C27.581 34.8865 26.8307 35.4201 23.8695 35.7311C20.9082 36.0422 20.4063 36.8137 17.8186 35.9608C14.2606 36.0051 13.2172 33.3787 14.1061 30.2507C14.0922 30.162 12.6796 28.9196 12.6955 26.7855C12.7114 24.6513 13.7383 23.3149 13.7383 23.3149C13.7383 23.3149 13.4021 22.7218 13.7347 21.9314L13.7346 21.931Z" fill="#1F382D"/>
<path fill-rule="evenodd" clip-rule="evenodd" d="M14.5801 23.1045C14.5801 23.1045 14.1804 22.0459 14.5703 21.4877C13.89 21.2143 12.4682 20.9076 12.4454 18.9788C12.4309 17.755 13.8051 16.9279 15.2038 17.0894C16.8366 15.7562 18.2324 15.3334 19.5027 14.9886C23.3378 11.3514 29.5849 11.9995 30.5036 12.1823C30.5036 12.1823 33.0181 12.0605 37.3416 12.3189C43.7269 12.7005 46.3311 14.8148 47.083 18.6175C47.4558 20.5025 47.2507 22.9502 47.0679 25.5153C46.9687 26.9052 47.3167 27.7619 47.2648 29.2588C47.213 30.7557 46.0625 31.1796 46.1813 31.2974C46.3001 31.4153 47.2283 33.2149 46.033 34.2521C44.8376 35.2893 40.7046 35.173 39.2141 34.9303C37.7237 34.6875 38.1726 32.4622 38.1726 32.4622C38.1726 32.4622 37.3119 32.474 36.5736 32.5222C37.0503 33.7274 36.0052 34.6093 35.5473 34.8984C35.0894 35.1875 32.6161 35.5336 30.6165 35.451C28.617 35.3684 28.6272 34.2775 28.5412 33.586C28.5101 33.6035 28.4787 33.6214 28.4473 33.64C28.0263 33.8891 27.682 34.1413 27.226 34.3041C26.301 34.6172 25.334 34.8042 24.354 34.8596C23.9349 34.8754 23.3386 35.0881 22.7189 35.2473C22.0992 35.4066 20.3192 35.7319 19.6492 35.7095C18.9792 35.6871 18.6149 35.4835 18.2124 35.39C17.6288 35.378 13.2519 35.5631 14.7751 30.0562C12.8797 28.2794 13.227 24.8008 14.5805 23.105L14.5801 23.1045ZM16.3388 17.4615C16.7668 17.7122 17.1254 18.0568 17.3848 18.4665C18.4848 17.3582 22.4829 17.3163 22.4829 17.3163C22.5726 16.751 22.774 16.2071 23.0763 15.7131C21.4012 15.6458 19.759 15.8744 18.8523 16.1274C17.9227 16.3932 17.0652 16.8485 16.3392 17.4615H16.3388ZM24.0041 14.8401C24.4016 14.6439 24.8534 14.5699 25.297 14.6282C26.2949 14.7358 26.9227 15.2104 27.2125 15.8256C28.8917 16.7661 30.0842 18.3538 30.6051 20.6981C31.1428 23.1183 30.5347 25.313 30.4049 26.0215C30.3522 26.3085 30.3041 26.5596 30.2604 26.7799C30.215 27.5654 30.0888 28.1723 30.1071 28.3769C30.2501 28.5726 30.3741 28.7802 30.4777 28.9972C30.7919 28.6157 31.055 28.2534 31.9624 28.0234C32.0709 27.9956 32.2718 28.1146 32.2549 28.2434C32.3096 28.4378 31.717 28.655 31.4541 28.9044C31.0277 29.3222 30.7804 29.8763 30.7606 30.4584C30.696 31.2916 30.2634 32.0257 29.7804 32.6108C29.463 33.2394 29.5093 33.8884 29.8291 34.1568C30.6842 34.872 32.1626 34.4823 33.5035 34.379C34.2343 34.3226 34.9243 34.2939 35.4431 33.8356C35.718 33.5928 35.575 32.8803 35.2995 32.084C34.9671 31.1226 35.5585 30.3239 35.4712 29.8055C35.38 29.2649 35.2199 29.103 35.1763 28.4921C35.1651 28.3348 35.1028 28.0246 35.4853 27.9983C35.9019 28.0177 36.2185 28.4841 36.2998 29.4857C36.3478 30.0767 36.2317 30.7598 36.2609 31.4693C36.7714 31.423 38.292 31.3656 38.292 31.3656C38.6416 31.0505 38.8698 30.6328 38.94 30.1795C39.1569 28.4776 39.7393 28.1601 40.2564 28.0235C40.5093 28.0125 40.6838 28.108 40.6786 28.3416C40.6727 28.6107 40.0416 28.9122 39.8723 29.8053C39.8092 30.1386 39.996 30.9499 39.7493 31.2694C39.0228 32.2103 38.8738 33.5306 39.4586 33.9532C40.318 34.5734 44.3032 34.1013 45.2955 33.6563C46.2877 33.2112 45.1774 32.0026 45.0883 31.2246C44.9991 30.4467 45.6321 30.776 46.1823 29.6274C46.2714 29.4413 46.3597 28.9921 46.3115 28.4316C46.2621 27.8595 45.9321 26.391 45.9978 25.8976C46.421 22.7128 46.2132 18.9621 45.9053 18.0999C44.1135 13.0833 35.7419 12.9383 33.2142 13.0739C34.6917 13.6173 36.2848 14.841 37.1656 16.0836C37.2537 16.2078 36.988 16.3736 36.7922 16.2088C34.6005 14.3642 31.9779 13.3842 29.5136 13.0439C26.8786 12.6802 23.5411 13.6665 21.3572 14.7981C22.2385 14.7283 23.125 14.7427 24.0033 14.841L24.0041 14.8401ZM27.3841 16.9802C27.2952 17.6292 26.9711 18.2284 26.4678 18.6744C27.7783 19.3862 28.2364 20.9997 28.0591 21.8761C28.77 22.2929 29.3418 22.8933 29.7081 23.6074L29.7179 23.4777C29.8838 21.297 29.6735 19.6471 27.8158 17.4067C27.6864 17.2519 27.5418 17.1091 27.3841 16.9802ZM24.2059 15.8068L24.2192 15.8086C24.4664 15.6377 24.7617 15.5411 25.0671 15.5314C25.8479 15.502 26.5032 16.0128 26.5304 16.6723C26.5387 16.8858 26.4808 17.0968 26.364 17.2792C26.0449 18.0035 25.445 18.7004 25.3827 18.8308C25.6843 19.0968 27.1751 19.8041 27.1963 22.3859C29.2198 23.8182 29.5561 25.1739 29.2295 27.2655C28.8704 26.9837 28.4852 26.7335 28.0785 26.5181C27.8975 26.4186 27.5805 26.2767 27.2224 26.0451C25.869 25.17 25.1525 23.2915 25.1394 22.2187C26.6121 21.1712 25.6665 19.0789 24.2604 19.0768C22.4878 19.0741 22.1689 20.487 22.7179 20.62C23.1709 20.7296 23.162 19.8744 24.0221 19.8116C24.6468 19.7659 25.4018 20.3263 24.9108 21.0277C24.8776 20.9522 24.8262 20.8852 24.7609 20.832C24.6956 20.7788 24.6182 20.7408 24.5347 20.7211C24.4512 20.7015 24.3641 20.7006 24.2803 20.7187C24.1964 20.7368 24.1181 20.7732 24.0517 20.8252C23.9853 20.8772 23.9326 20.9432 23.8977 21.018C23.8629 21.0928 23.8469 21.1743 23.851 21.256C23.8552 21.3378 23.8793 21.4174 23.9216 21.4887C23.9638 21.56 24.023 21.6209 24.0943 21.6665C24.7046 26.0733 25.5787 25.835 28.2729 27.7815C30.9727 29.732 29.2879 32.7373 27.7406 32.4629C26.0342 32.1604 25.5827 32.2592 24.3443 32.6044C23.106 32.9495 22.7587 32.1341 22.7587 32.1341C21.8734 33.8483 20.7968 32.6426 19.3357 33.6899C18.6534 34.179 18.2488 34.6007 17.0164 34.4027C14.851 34.0545 15.3176 31.0769 16.1291 29.7692C16.8693 28.5764 17.6997 27.59 17.5753 26.2276C17.4955 25.2531 17.2657 24.295 16.8932 23.384C16.9771 23.3231 17.041 23.2405 17.0771 23.1462C17.1132 23.0518 17.1201 22.9496 17.097 22.8516C17.0739 22.7536 17.0217 22.6639 16.9466 22.5933C16.8716 22.5227 16.7768 22.4741 16.6736 22.4532C16.5704 22.4323 16.463 22.44 16.3643 22.4755C16.2655 22.5109 16.1795 22.5726 16.1165 22.6532C16.0535 22.7337 16.0161 22.8298 16.0088 22.93C16.0014 23.0302 16.0244 23.1303 16.0751 23.2184C15.7626 23.0921 15.5771 23.1128 15.4118 22.4428C15.1516 21.3879 16.7085 20.9714 17.2738 21.4073C17.8736 21.8696 18.6692 21.4421 17.963 20.6277C17.3823 20.2585 16.8653 20.3602 16.2709 20.3738C15.6765 20.3874 14.7329 20.6541 14.1569 20.3225C13.5809 19.9909 12.9158 18.8684 14.0132 18.2214C15.3062 17.4591 16.3417 18.679 17.1172 19.6194C17.9878 18.9885 21.1842 17.8013 23.2543 18.2942C23.4288 17.9137 23.4643 17.0536 23.7559 16.4056C23.8126 16.2422 23.9064 16.0927 24.0307 15.9677C24.083 15.9087 24.1414 15.8551 24.2051 15.8075L24.2059 15.8068ZM15.3445 23.7809L16.0953 24.038C16.0953 24.038 17.375 26.7622 15.3414 29.217C14.8243 28.7608 13.3903 26.4366 15.3446 23.7808L15.3445 23.7809ZM19.4894 34.7019C19.4894 34.7019 19.8174 34.2003 21.2345 34.0446C22.6516 33.8889 22.7149 33.7035 23.008 33.5632C23.2524 33.6219 23.9451 33.6774 24.7615 33.4564C25.5779 33.2354 26.4445 33.026 27.0682 33.3015C26.6098 33.7468 24.6446 33.8957 23.8791 33.9721C23.1136 34.0486 22.7533 34.2863 22.0196 34.443C21.2859 34.5997 20.3658 34.8994 19.4894 34.7015V34.7019Z" fill="#FEFEFE"/>
<path fill-rule="evenodd" clip-rule="evenodd" d="M19.7421 29.8723C20.2209 29.8538 20.6176 30.0523 20.6286 30.3146C20.6396 30.5768 20.2601 30.8041 19.7813 30.8222C19.3025 30.8402 18.9058 30.6422 18.8948 30.3799C18.8838 30.1176 19.2633 29.8903 19.7421 29.8723Z" fill="#FEFEFE"/>
<path fill-rule="evenodd" clip-rule="evenodd" d="M24.365 29.0572C24.8313 28.9522 25.2605 29.0742 25.3237 29.3298C25.3868 29.5853 25.0598 29.8774 24.5935 29.9824C24.1271 30.0874 23.6979 29.9655 23.6348 29.71C23.5716 29.4545 23.8985 29.1622 24.365 29.0572Z" fill="#FEFEFE"/>
<path fill-rule="evenodd" clip-rule="evenodd" d="M24.0787 31.2074C24.1162 31.2052 24.1535 31.2137 24.1859 31.2318C24.2182 31.2498 24.2443 31.2766 24.2606 31.3088C24.277 31.3409 24.283 31.377 24.2778 31.4124C24.2727 31.4477 24.2566 31.4809 24.2317 31.5075C24.2067 31.5342 24.174 31.5533 24.1377 31.5623C24.1014 31.5713 24.0631 31.5698 24.0276 31.558C23.9922 31.5463 23.9612 31.5248 23.9386 31.4962C23.916 31.4677 23.9028 31.4335 23.9007 31.3978C23.8993 31.3742 23.9027 31.3505 23.9109 31.3281C23.919 31.3057 23.9317 31.2851 23.9483 31.2674C23.9648 31.2497 23.9848 31.2353 24.0072 31.225C24.0296 31.2147 24.0539 31.2087 24.0787 31.2074Z" fill="#FEFEFE"/>
<path fill-rule="evenodd" clip-rule="evenodd" d="M25.694 31.0667C25.7314 31.0646 25.7687 31.0731 25.8011 31.0912C25.8335 31.1092 25.8595 31.136 25.8759 31.1682C25.8922 31.2003 25.8982 31.2364 25.893 31.2718C25.8879 31.3072 25.8718 31.3403 25.8468 31.367C25.8219 31.3937 25.7892 31.4127 25.7529 31.4216C25.7165 31.4306 25.6782 31.4291 25.6428 31.4173C25.6074 31.4056 25.5764 31.3841 25.5538 31.3555C25.5312 31.327 25.5181 31.2927 25.5159 31.2571C25.5145 31.2334 25.5179 31.2098 25.5261 31.1874C25.5343 31.1651 25.547 31.1444 25.5635 31.1268C25.5801 31.1091 25.6001 31.0947 25.6225 31.0844C25.6448 31.0741 25.6691 31.0681 25.694 31.0667Z" fill="#FEFEFE"/>
<path fill-rule="evenodd" clip-rule="evenodd" d="M26.6491 30.3792C26.6865 30.3771 26.7238 30.3856 26.7562 30.4037C26.7885 30.4217 26.8146 30.4485 26.8309 30.4807C26.8473 30.5128 26.8533 30.5488 26.8481 30.5842C26.843 30.6196 26.8269 30.6528 26.802 30.6794C26.777 30.7061 26.7443 30.7252 26.708 30.7341C26.6717 30.7431 26.6334 30.7416 26.5979 30.7299C26.5625 30.7181 26.5315 30.6966 26.509 30.6681C26.4864 30.6396 26.4731 30.6053 26.471 30.5696C26.4696 30.546 26.473 30.5223 26.4812 30.5C26.4894 30.4776 26.5021 30.457 26.5186 30.4393C26.5352 30.4216 26.5552 30.4072 26.5776 30.3969C26.5999 30.3866 26.6242 30.3806 26.6491 30.3792Z" fill="#FEFEFE"/>
<path fill-rule="evenodd" clip-rule="evenodd" d="M27.3248 31.0394C27.3623 31.0373 27.3996 31.0458 27.432 31.0638C27.4643 31.0819 27.4904 31.1087 27.5067 31.1408C27.5231 31.173 27.5291 31.209 27.5239 31.2444C27.5188 31.2798 27.5027 31.3129 27.4777 31.3396C27.4528 31.3663 27.4201 31.3853 27.3838 31.3943C27.3475 31.4033 27.3092 31.4018 27.2737 31.39C27.2383 31.3783 27.2073 31.3568 27.1847 31.3283C27.1621 31.2997 27.1489 31.2655 27.1468 31.2298C27.1454 31.2062 27.1488 31.1825 27.157 31.1601C27.1651 31.1378 27.1778 31.1171 27.1944 31.0995C27.2109 31.0818 27.2309 31.0674 27.2533 31.057C27.2757 31.0467 27.3 31.0407 27.3248 31.0394Z" fill="#FEFEFE"/>
<path fill-rule="evenodd" clip-rule="evenodd" d="M20.9711 31.9228C20.9362 31.936 20.9063 31.9588 20.885 31.9882C20.8637 32.0176 20.8521 32.0524 20.8516 32.0881C20.8511 32.1238 20.8617 32.1589 20.8822 32.1888C20.9026 32.2188 20.932 32.2423 20.9665 32.2563C21.0009 32.2704 21.039 32.2744 21.0759 32.2679C21.1128 32.2613 21.1468 32.2444 21.1736 32.2194C21.2004 32.1944 21.2189 32.1624 21.2265 32.1275C21.2342 32.0925 21.2309 32.0562 21.2168 32.0231C21.198 31.9789 21.1617 31.9435 21.1156 31.9247C21.0696 31.906 21.0177 31.9053 20.9711 31.9228Z" fill="#FEFEFE"/>
<path fill-rule="evenodd" clip-rule="evenodd" d="M19.4455 32.4464C19.4107 32.4596 19.3807 32.4823 19.3595 32.5118C19.3383 32.5412 19.3267 32.576 19.3262 32.6117C19.3257 32.6474 19.3364 32.6825 19.3568 32.7124C19.3773 32.7423 19.4066 32.7658 19.4411 32.7799C19.4756 32.7939 19.5137 32.7979 19.5505 32.7914C19.5874 32.7848 19.6214 32.7679 19.6482 32.7429C19.675 32.7179 19.6934 32.686 19.7011 32.651C19.7088 32.6161 19.7055 32.5797 19.6915 32.5466C19.6727 32.5023 19.6363 32.4669 19.5902 32.4481C19.5441 32.4294 19.4921 32.4287 19.4455 32.4464Z" fill="#FEFEFE"/>
<path fill-rule="evenodd" clip-rule="evenodd" d="M18.2736 32.2159C18.2388 32.2291 18.2088 32.2519 18.1876 32.2813C18.1664 32.3107 18.1548 32.3455 18.1543 32.3813C18.1538 32.417 18.1645 32.452 18.185 32.4819C18.2055 32.5119 18.2348 32.5353 18.2693 32.5494C18.3038 32.5634 18.3419 32.5674 18.3787 32.5608C18.4156 32.5542 18.4496 32.5373 18.4764 32.5124C18.5032 32.4874 18.5216 32.4554 18.5293 32.4204C18.537 32.3855 18.5336 32.3491 18.5196 32.316C18.5007 32.2718 18.4643 32.2364 18.4183 32.2177C18.3722 32.1989 18.3202 32.1983 18.2736 32.2159Z" fill="#FEFEFE"/>
<path fill-rule="evenodd" clip-rule="evenodd" d="M17.9575 33.0869C17.9226 33.1 17.8926 33.1228 17.8713 33.1522C17.85 33.1816 17.8384 33.2164 17.8379 33.2521C17.8374 33.2878 17.848 33.3229 17.8685 33.3528C17.8889 33.3828 17.9182 33.4063 17.9527 33.4204C17.9872 33.4345 18.0253 33.4385 18.0622 33.4319C18.0991 33.4254 18.1331 33.4085 18.1599 33.3835C18.1867 33.3585 18.2051 33.3266 18.2129 33.2916C18.2206 33.2567 18.2172 33.2203 18.2032 33.1872C18.1844 33.143 18.148 33.1076 18.102 33.0888C18.056 33.0701 18.004 33.0693 17.9575 33.0869Z" fill="#FEFEFE"/>
</svg>
