<svg width="32" height="32" viewBox="0 0 32 32" fill="none" xmlns="http://www.w3.org/2000/svg">
<path fill-rule="evenodd" clip-rule="evenodd" d="M15.5759 4.62022C14.4655 5.00342 13.5927 5.80577 12.9016 7.2352L12.8987 7.24126C12.544 7.96254 12.2452 8.86996 11.9883 9.96162C11.9882 9.96185 11.9883 9.9614 11.9883 9.96162L10.6817 15.5477C10.0512 18.237 10.2157 19.9941 10.9692 21.2073C11.7234 22.4216 13.2278 23.3496 15.9123 23.987L18.156 24.5212C18.8877 24.6978 19.5553 24.808 20.1611 24.8564L20.1771 24.8579C22.083 25.0411 23.3742 24.676 24.3178 23.8685C25.2952 23.0321 26.0609 21.5863 26.6007 19.2666L26.6011 19.265L27.9077 13.6917C28.5385 11.0012 28.3767 9.24149 27.6233 8.02713C26.8699 6.81283 25.3641 5.88453 22.6673 5.25373C22.6672 5.2537 22.6674 5.25375 22.6673 5.25373L20.4406 4.73373L20.4378 4.73308C18.2924 4.22563 16.7328 4.22097 15.5759 4.62022ZM20.8968 2.78645C18.5895 2.24086 16.5962 2.15234 14.9235 2.72964C13.2048 3.32277 11.9713 4.56603 11.1025 6.36164C10.658 7.26623 10.3174 8.33083 10.0413 9.50422L8.73442 15.0917C8.73446 15.0915 8.73437 15.0918 8.73442 15.0917C8.05837 17.9755 8.10043 20.3792 9.2702 22.2625C10.4392 24.1448 12.5746 25.2501 15.4497 25.9327M15.4497 25.9327L17.6867 26.4653C17.6873 26.4655 17.6879 26.4656 17.6885 26.4658C18.4999 26.6615 19.2689 26.791 19.9936 26.8494C22.2442 27.0645 24.1369 26.6557 25.6182 25.388C27.0673 24.148 27.9682 22.2141 28.5484 19.721C28.5485 19.7206 28.5486 19.7203 28.5487 19.7199L29.8549 14.1482C30.5308 11.2653 30.4927 8.85837 29.3228 6.97273C28.1528 5.08708 26.0121 3.98207 23.1224 3.30621L20.8982 2.78678C20.8977 2.78667 20.8973 2.78656 20.8968 2.78645" fill="white"/>
<path fill-rule="evenodd" clip-rule="evenodd" d="M12.7964 6.19461C13.0258 6.49614 13.0651 6.90142 12.8979 7.2414C12.5432 7.96263 12.2444 8.87 11.9875 9.96157C11.9874 9.96186 11.9875 9.96128 11.9875 9.96157L10.6809 15.5478C10.0504 18.2371 10.2148 19.9943 10.9683 21.2075C11.7225 22.4218 13.2269 23.3498 15.9115 23.9871L18.1552 24.5213C18.8868 24.6979 19.5545 24.8081 20.1603 24.8566C20.5835 24.8905 20.9392 25.1879 21.0475 25.5985C21.1557 26.009 20.9929 26.4432 20.6414 26.6813C19.7104 27.312 18.5758 27.8138 17.2583 28.2438C17.258 28.2439 17.2586 28.2437 17.2583 28.2438L15.1474 28.9385C12.4078 29.8218 10.0702 29.9803 8.14502 28.9953C6.22017 28.0105 4.97947 26.0215 4.08946 23.2824L2.38209 18.0136C1.4991 15.2749 1.33701 12.9347 2.31765 11.0081C3.29874 9.08062 5.28459 7.83962 8.02406 6.95594L10.1382 6.26013C10.7 6.082 11.2638 5.92173 11.8146 5.81751C12.1869 5.74708 12.567 5.89308 12.7964 6.19461ZM10.3625 8.29184L8.64071 8.85852C6.08836 9.68144 4.72193 10.6936 4.10004 11.9154C3.4774 13.1386 3.46193 14.8449 4.28537 17.3992C4.28545 17.3994 4.28529 17.3989 4.28537 17.3992L5.99156 22.6644C5.99159 22.6645 5.99153 22.6643 5.99156 22.6644C6.82153 25.2185 7.83423 26.5897 9.05601 27.2148C10.277 27.8396 11.9786 27.8584 14.5308 27.0359C14.5317 27.0356 14.5327 27.0353 14.5336 27.035L16.6346 26.3435L16.637 26.3427C16.7122 26.3182 16.7863 26.2935 16.8594 26.2687L15.4495 25.933C12.5741 25.2504 10.4385 24.1451 9.26936 22.2627C8.09953 20.3792 8.05741 17.9759 8.73358 15.0918L10.0404 9.50437C10.139 9.08556 10.2457 8.68061 10.3625 8.29184Z" fill="white"/>
<path fill-rule="evenodd" clip-rule="evenodd" d="M15.8825 11.1275C16.0183 10.5921 16.5623 10.2682 17.0976 10.404L23.5643 12.044C24.0996 12.1797 24.4235 12.7238 24.2878 13.2591C24.152 13.7945 23.608 14.1184 23.0726 13.9826L16.606 12.3426C16.0706 12.2068 15.7467 11.6628 15.8825 11.1275Z" fill="white"/>
<path fill-rule="evenodd" clip-rule="evenodd" d="M14.5782 16.2862C14.7147 15.7511 15.2592 15.4279 15.7944 15.5645L19.661 16.5512C20.1962 16.6877 20.5193 17.2322 20.3827 17.7674C20.2462 18.3025 19.7017 18.6256 19.1665 18.4891L15.2999 17.5024C14.7647 17.3658 14.4416 16.8213 14.5782 16.2862Z" fill="white"/>
</svg>
