<svg width="32" height="32" viewBox="0 0 32 32" fill="none" xmlns="http://www.w3.org/2000/svg">
<path d="M7.29362 12.0013C9.87095 12.0013 11.9603 9.91196 11.9603 7.33464C11.9603 4.75731 9.87095 2.66797 7.29362 2.66797C4.71629 2.66797 2.62695 4.75731 2.62695 7.33464C2.62695 9.91196 4.71629 12.0013 7.29362 12.0013Z" stroke="white" stroke-width="2"/>
<path d="M22.6266 20H26.6266C28.0933 20 29.2933 21.2 29.2933 22.6667V26.6667C29.2933 28.1333 28.0933 29.3333 26.6266 29.3333H22.6266C21.16 29.3333 19.96 28.1333 19.96 26.6667V22.6667C19.96 21.2 21.16 20 22.6266 20Z" stroke="white" stroke-width="2"/>
<path d="M16.0003 6.66797H19.5736C22.0403 6.66797 23.1869 9.7213 21.3336 11.348L10.6803 20.668C8.82692 22.2813 9.97358 25.3346 12.4269 25.3346H16.0003" stroke="white" stroke-width="2" stroke-linecap="round" stroke-linejoin="round"/>
<path d="M7.31496 7.33464H7.33036" stroke="white" stroke-width="2" stroke-linecap="round" stroke-linejoin="round"/>
<path d="M24.648 24.6667H24.6634" stroke="white" stroke-width="2" stroke-linecap="round" stroke-linejoin="round"/>
</svg>
