<svg width="40" height="40" viewBox="0 0 40 40" fill="none" xmlns="http://www.w3.org/2000/svg">
<path d="M40 20C40 31.0457 31.0457 40 20 40C8.9543 40 0 31.0457 0 20C0 8.9543 8.9543 0 20 0C31.0457 0 40 8.9543 40 20Z" fill="#91B93A"/>
<path fill-rule="evenodd" clip-rule="evenodd" d="M19.5 10.75C14.6675 10.75 10.75 14.6675 10.75 19.5C10.75 24.3325 14.6675 28.25 19.5 28.25C24.3325 28.25 28.25 24.3325 28.25 19.5C28.25 14.6675 24.3325 10.75 19.5 10.75ZM9.25 19.5C9.25 13.8391 13.8391 9.25 19.5 9.25C25.1609 9.25 29.75 13.8391 29.75 19.5C29.75 25.1609 25.1609 29.75 19.5 29.75C13.8391 29.75 9.25 25.1609 9.25 19.5ZM27.4697 27.4697C27.7626 27.1768 28.2374 27.1768 28.5303 27.4697L30.5303 29.4697C30.8232 29.7626 30.8232 30.2374 30.5303 30.5303C30.2374 30.8232 29.7626 30.8232 29.4697 30.5303L27.4697 28.5303C27.1768 28.2374 27.1768 27.7626 27.4697 27.4697Z" fill="white"/>
</svg>
