<svg width="22" height="22" viewBox="0 0 22 22" fill="none" xmlns="http://www.w3.org/2000/svg">
<path fill-rule="evenodd" clip-rule="evenodd" d="M10.6191 7.87988C10.6191 7.46567 10.9549 7.12988 11.3691 7.12988H16.6191C17.0334 7.12988 17.3691 7.46567 17.3691 7.87988C17.3691 8.2941 17.0334 8.62988 16.6191 8.62988H11.3691C10.9549 8.62988 10.6191 8.2941 10.6191 7.87988Z" fill="#91B93A"/>
<path fill-rule="evenodd" clip-rule="evenodd" d="M8.91119 5.84955C9.20408 6.14245 9.20408 6.61732 8.91119 6.91021L6.66119 9.16021C6.3683 9.45311 5.89342 9.45311 5.60053 9.16021L4.85053 8.41021C4.55764 8.11732 4.55764 7.64245 4.85053 7.34955C5.14342 7.05666 5.6183 7.05666 5.91119 7.34955L6.13086 7.56922L7.85053 5.84955C8.14342 5.55666 8.6183 5.55666 8.91119 5.84955Z" fill="#91B93A"/>
<path fill-rule="evenodd" clip-rule="evenodd" d="M10.6191 14.8799C10.6191 14.4657 10.9549 14.1299 11.3691 14.1299H16.6191C17.0334 14.1299 17.3691 14.4657 17.3691 14.8799C17.3691 15.2941 17.0334 15.6299 16.6191 15.6299H11.3691C10.9549 15.6299 10.6191 15.2941 10.6191 14.8799Z" fill="#91B93A"/>
<path fill-rule="evenodd" clip-rule="evenodd" d="M8.91119 12.8496C9.20408 13.1424 9.20408 13.6173 8.91119 13.9102L6.66119 16.1602C6.3683 16.4531 5.89342 16.4531 5.60053 16.1602L4.85053 15.4102C4.55764 15.1173 4.55764 14.6424 4.85053 14.3496C5.14342 14.0567 5.6183 14.0567 5.91119 14.3496L6.13086 14.5692L7.85053 12.8496C8.14342 12.5567 8.6183 12.5567 8.91119 12.8496Z" fill="#91B93A"/>
<path fill-rule="evenodd" clip-rule="evenodd" d="M2.09467 2.09467C3.42914 0.760201 5.42603 0.25 8 0.25H14C16.574 0.25 18.5709 0.760201 19.9053 2.09467C21.2398 3.42914 21.75 5.42603 21.75 8V14C21.75 16.574 21.2398 18.5709 19.9053 19.9053C18.5709 21.2398 16.574 21.75 14 21.75H8C5.42603 21.75 3.42914 21.2398 2.09467 19.9053C0.760201 18.5709 0.25 16.574 0.25 14V8C0.25 5.42603 0.760201 3.42914 2.09467 2.09467ZM3.15533 3.15533C2.2398 4.07086 1.75 5.57397 1.75 8V14C1.75 16.426 2.2398 17.9291 3.15533 18.8447C4.07086 19.7602 5.57397 20.25 8 20.25H14C16.426 20.25 17.9291 19.7602 18.8447 18.8447C19.7602 17.9291 20.25 16.426 20.25 14V8C20.25 5.57397 19.7602 4.07086 18.8447 3.15533C17.9291 2.2398 16.426 1.75 14 1.75H8C5.57397 1.75 4.07086 2.2398 3.15533 3.15533Z" fill="#91B93A"/>
</svg>
