<svg width="30" height="24" viewBox="0 0 30 24" fill="none" xmlns="http://www.w3.org/2000/svg">
<path fill-rule="evenodd" clip-rule="evenodd" d="M2.29322 1.95826C3.61123 0.64025 5.67414 0.332031 8.33366 0.332031H21.667C24.3265 0.332031 26.3894 0.64025 27.7074 1.95826C29.0254 3.27627 29.3337 5.33918 29.3337 7.9987V9.33203C29.3337 9.88432 28.8859 10.332 28.3337 10.332C27.0459 10.332 26.0003 11.3776 26.0003 12.6654C26.0003 13.9531 27.0459 14.9987 28.3337 14.9987C28.8859 14.9987 29.3337 15.4464 29.3337 15.9987C29.3337 18.6582 29.0254 20.7211 27.7074 22.0391C26.3894 23.3571 24.3265 23.6654 21.667 23.6654H8.33366C5.67414 23.6654 3.61123 23.3571 2.29322 22.0391C0.975211 20.7211 0.666992 18.6582 0.666992 15.9987V15.332C0.666992 14.7797 1.11471 14.332 1.66699 14.332C2.95471 14.332 4.00033 13.2864 4.00033 11.9987C4.00033 10.711 2.95471 9.66536 1.66699 9.66536C1.11471 9.66536 0.666992 9.21765 0.666992 8.66536V7.9987C0.666992 5.33918 0.975211 3.27627 2.29322 1.95826ZM2.6678 7.78163C4.57798 8.23366 6.00033 9.95085 6.00033 11.9987C6.00033 14.0465 4.57798 15.7637 2.6678 16.2158C2.68692 18.7418 3.04416 19.9617 3.70743 20.6249C4.38942 21.3069 5.65985 21.6654 8.33366 21.6654H21.667C24.3408 21.6654 25.6112 21.3069 26.2932 20.6249C26.8956 20.0226 27.2455 18.9611 27.3191 16.8791C25.4158 16.4221 24.0003 14.7083 24.0003 12.6654C24.0003 10.6172 25.4231 8.89984 27.3337 8.44811V7.9987C27.3337 5.32488 26.9752 4.05446 26.2932 3.37247C25.6112 2.69048 24.3408 2.33203 21.667 2.33203H8.33366C5.65985 2.33203 4.38942 2.69048 3.70743 3.37247C3.04416 4.03574 2.68692 5.25557 2.6678 7.78163Z" fill="white"/>
<path fill-rule="evenodd" clip-rule="evenodd" d="M12.334 0.332031C12.8863 0.332031 13.334 0.779746 13.334 1.33203L13.334 3.9987C13.334 4.55098 12.8863 4.9987 12.334 4.9987C11.7817 4.9987 11.334 4.55098 11.334 3.9987L11.334 1.33203C11.334 0.779746 11.7817 0.332031 12.334 0.332031ZM12.334 8.33203C12.8863 8.33203 13.334 8.77975 13.334 9.33203L13.334 14.6654C13.334 15.2176 12.8863 15.6654 12.334 15.6654C11.7817 15.6654 11.334 15.2176 11.334 14.6654L11.334 9.33203C11.334 8.77975 11.7817 8.33203 12.334 8.33203ZM12.334 18.9987C12.8863 18.9987 13.334 19.4464 13.334 19.9987L13.334 22.6654C13.334 23.2176 12.8863 23.6654 12.334 23.6654C11.7817 23.6654 11.334 23.2176 11.334 22.6654L11.334 19.9987C11.334 19.4464 11.7817 18.9987 12.334 18.9987Z" fill="white"/>
</svg>
