<svg width="32" height="32" viewBox="0 0 32 32" fill="none" xmlns="http://www.w3.org/2000/svg">
<path fill-rule="evenodd" clip-rule="evenodd" d="M5.63018 2.56339C8.58831 2.80324 12.975 4.26536 15.483 5.82683L15.8091 6.02252L15.8205 6.02946C15.821 6.02961 15.835 6.03695 15.866 6.04467C15.9023 6.05372 15.9491 6.06001 16.0013 6.06001C16.0535 6.06001 16.1003 6.05372 16.1366 6.04467C16.1623 6.03826 16.1764 6.03212 16.1807 6.03013L16.402 5.88688C18.9104 4.30858 23.3171 2.83061 26.2759 2.577C26.3043 2.57456 26.3328 2.57334 26.3613 2.57334H26.4024C28.5469 2.4177 30.3346 4.05095 30.3346 6.22668V22.32C30.3346 24.0965 28.9268 25.7288 27.1387 25.9523L27.135 25.9527L26.7008 26.0054C23.9201 26.3765 19.5687 27.8138 17.1177 29.1652C16.7564 29.3707 16.3463 29.4433 15.993 29.4433C15.642 29.4433 15.2415 29.3718 14.8848 29.1798L14.8474 29.1611C14.8365 29.1556 14.8256 29.1499 14.8148 29.1441C12.3622 27.8028 8.01322 26.3749 5.24217 26.0045L5.238 26.004L4.8571 25.9514C3.07219 25.7246 1.66797 24.0942 1.66797 22.32V6.21334C1.66797 4.04595 3.45688 2.38161 5.63018 2.56339ZM5.46423 4.5565C4.46489 4.47252 3.66797 5.20791 3.66797 6.21334V22.32C3.66797 23.1035 4.34016 23.8713 5.112 23.9677L5.12462 23.9693L5.5071 24.0222C5.50772 24.0222 5.50833 24.0223 5.50895 24.0224C8.51842 24.425 13.0888 25.9247 15.758 27.3803L15.7952 27.3989C15.8076 27.4051 15.8199 27.4116 15.8321 27.4183C15.8323 27.4184 15.8452 27.4244 15.8731 27.4308C15.9059 27.4383 15.9474 27.4433 15.993 27.4433C16.0386 27.4433 16.0781 27.4382 16.1071 27.4315C16.1227 27.4279 16.1316 27.4247 16.1346 27.4236L16.1446 27.4179C18.8132 25.9447 23.4123 24.4252 26.4428 24.0221L26.4543 24.0205L26.8906 23.9677C26.8912 23.9677 26.8917 23.9676 26.8923 23.9675C27.6634 23.8702 28.3346 23.103 28.3346 22.32V6.22668C28.3346 5.21756 27.534 4.48504 26.525 4.56983C26.4972 4.57217 26.4692 4.57334 26.4413 4.57334H26.4051C23.7647 4.81031 19.7002 6.1766 17.4725 7.57643L17.2512 7.71958L17.2353 7.72965C16.8464 7.97104 16.395 8.06001 16.0013 8.06001C15.6101 8.06001 15.162 7.97219 14.7749 7.73433L14.4468 7.5375L14.4322 7.52854C12.1927 6.13203 8.1062 4.77038 5.46728 4.55675L5.46423 4.5565Z" fill="white"/>
<path fill-rule="evenodd" clip-rule="evenodd" d="M16 6.32007C16.5523 6.32007 17 6.76778 17 7.32007V27.3201C17 27.8724 16.5523 28.3201 16 28.3201C15.4477 28.3201 15 27.8724 15 27.3201V7.32007C15 6.76778 15.4477 6.32007 16 6.32007Z" fill="white"/>
<path fill-rule="evenodd" clip-rule="evenodd" d="M6.33594 11.3201C6.33594 10.7678 6.78365 10.3201 7.33594 10.3201H10.3359C10.8882 10.3201 11.3359 10.7678 11.3359 11.3201C11.3359 11.8724 10.8882 12.3201 10.3359 12.3201H7.33594C6.78365 12.3201 6.33594 11.8724 6.33594 11.3201Z" fill="white"/>
<path fill-rule="evenodd" clip-rule="evenodd" d="M6.33594 15.3201C6.33594 14.7678 6.78365 14.3201 7.33594 14.3201H11.3359C11.8882 14.3201 12.3359 14.7678 12.3359 15.3201C12.3359 15.8724 11.8882 16.3201 11.3359 16.3201H7.33594C6.78365 16.3201 6.33594 15.8724 6.33594 15.3201Z" fill="white"/>
</svg>
