<svg width="22" height="22" viewBox="0 0 22 22" fill="none" xmlns="http://www.w3.org/2000/svg">
<path fill-rule="evenodd" clip-rule="evenodd" d="M11 1.75C5.89137 1.75 1.75 5.89136 1.75 11C1.75 16.1086 5.89136 20.25 11 20.25C16.1086 20.25 20.25 16.1086 20.25 11C20.25 5.89137 16.1086 1.75 11 1.75ZM0.25 11C0.250001 5.06294 5.06294 0.249999 11 0.25C16.9371 0.250001 21.75 5.06294 21.75 11C21.75 16.9371 16.9371 21.75 11 21.75C5.06294 21.75 0.249999 16.9371 0.25 11ZM6.93919 9.21043C7.23167 8.91712 7.70654 8.91645 7.99985 9.20893L11.0003 12.2009L14.0007 9.20893C14.294 8.91645 14.7689 8.91712 15.0614 9.21043C15.3538 9.50374 15.3532 9.97861 15.0599 10.2711L11.5299 13.7911C11.2371 14.083 10.7634 14.083 10.4707 13.7911L6.9407 10.2711C6.64739 9.97861 6.64671 9.50374 6.93919 9.21043Z" fill="#2C2C2C"/>
</svg>
