<svg width="32" height="32" viewBox="0 0 32 32" fill="none" xmlns="http://www.w3.org/2000/svg">
<path d="M3.41421 1.41391C2.63317 0.632863 1.36683 0.632863 0.585786 1.41391C-0.195262 2.19496 -0.195262 3.46129 0.585786 4.24234L12.8431 16.4997L0.8873 28.4555C0.106251 29.2366 0.106251 30.5029 0.8873 31.284C1.66835 32.065 2.93468 32.065 3.71573 31.284L15.6716 19.3281L27.4558 31.1124C28.2369 31.8934 29.5032 31.8934 30.2843 31.1124C31.0653 30.3313 31.0653 29.065 30.2843 28.284L18.5 16.4997L30.5858 4.41391C31.3668 3.63286 31.3668 2.36653 30.5858 1.58548C29.8047 0.804436 28.5384 0.804436 27.7574 1.58548L15.6716 13.6713L3.41421 1.41391Z" fill="white"/>
</svg>
