<svg width="22" height="22" viewBox="0 0 22 22" fill="none" xmlns="http://www.w3.org/2000/svg">
<path fill-rule="evenodd" clip-rule="evenodd" d="M3.15533 3.15533C2.2398 4.07086 1.75 5.57397 1.75 8V14C1.75 16.426 2.2398 17.9291 3.15533 18.8447C4.07086 19.7602 5.57397 20.25 8 20.25H14C16.426 20.25 17.9291 19.7602 18.8447 18.8447C19.7602 17.9291 20.25 16.426 20.25 14V9.75H17C15.4585 9.75 14.1921 9.50275 13.3447 8.65533C12.4972 7.80791 12.25 6.54155 12.25 5V1.75H8C5.57397 1.75 4.07086 2.2398 3.15533 3.15533ZM13.75 2.81066L19.1893 8.25H17C15.5415 8.25 14.8079 7.99725 14.4053 7.59467C14.0028 7.19209 13.75 6.45845 13.75 5V2.81066ZM2.09467 2.09467C3.42914 0.760201 5.42603 0.25 8 0.25H13C13.1989 0.25 13.3897 0.329018 13.5303 0.46967L21.5303 8.46967C21.671 8.61032 21.75 8.80109 21.75 9V14C21.75 16.574 21.2398 18.5709 19.9053 19.9053C18.5709 21.2398 16.574 21.75 14 21.75H8C5.42603 21.75 3.42914 21.2398 2.09467 19.9053C0.760201 18.5709 0.25 16.574 0.25 14V8C0.25 5.42603 0.760201 3.42914 2.09467 2.09467Z" fill="#292D32"/>
</svg>
