<svg width="24" height="17" viewBox="0 0 24 17" fill="none" xmlns="http://www.w3.org/2000/svg">
<mask id="mask0_1211_25875" style="mask-type:alpha" maskUnits="userSpaceOnUse" x="0" y="0" width="24" height="17">
<rect y="0.601562" width="24" height="15.9053" fill="white"/>
</mask>
<g mask="url(#mask0_1211_25875)">
<path fill-rule="evenodd" clip-rule="evenodd" d="M0 0.601562V16.5068H24V0.601562H0Z" fill="#FFB400"/>
<mask id="mask1_1211_25875" style="mask-type:alpha" maskUnits="userSpaceOnUse" x="0" y="0" width="24" height="17">
<path fill-rule="evenodd" clip-rule="evenodd" d="M0 0.601562V16.5068H24V0.601562H0Z" fill="white"/>
</mask>
<g mask="url(#mask1_1211_25875)">
<path fill-rule="evenodd" clip-rule="evenodd" d="M0 0.601562V4.57788H24V0.601562H0Z" fill="#C51918"/>
<path fill-rule="evenodd" clip-rule="evenodd" d="M0 12.5312V16.5076H24V12.5312H0Z" fill="#C51918"/>
<rect x="3.75391" y="7.41016" width="0.84" height="3.85968" fill="#F1F9FF"/>
<path fill-rule="evenodd" clip-rule="evenodd" d="M4.92997 6.74219H3.41797V7.11331H3.67188V7.41022H4.67988V7.11331H4.92997V6.74219Z" fill="#C88A02"/>
<path fill-rule="evenodd" clip-rule="evenodd" d="M4.67797 11.4922H4.92997V11.8633H3.41797V11.4922H3.66997V11.1953H4.67797V11.4922Z" fill="#C88A02"/>
<path fill-rule="evenodd" clip-rule="evenodd" d="M4.17394 6.81647C4.35674 6.81647 4.37532 6.75565 4.48316 6.66481C4.5669 6.59427 4.76194 6.50678 4.76194 6.40824C4.76194 6.18277 4.49868 6 4.17394 6C3.84919 6 3.58594 6.18277 3.58594 6.40824C3.58594 6.51803 3.72025 6.59144 3.8218 6.66481C3.92879 6.74211 4.00733 6.81647 4.17394 6.81647Z" fill="#AD1619"/>
<path fill-rule="evenodd" clip-rule="evenodd" d="M3.41797 11.8633H4.92997V12.4571C4.92997 12.4571 4.74097 12.3829 4.55197 12.3829C4.36297 12.3829 4.17397 12.4571 4.17397 12.4571C4.17397 12.4571 3.98497 12.3829 3.79597 12.3829C3.60697 12.3829 3.41797 12.4571 3.41797 12.4571V11.8633Z" fill="#005BBF"/>
<mask id="mask2_1211_25875" style="mask-type:alpha" maskUnits="userSpaceOnUse" x="3" y="11" width="2" height="2">
<path fill-rule="evenodd" clip-rule="evenodd" d="M3.41797 11.8633H4.92997V12.4571C4.92997 12.4571 4.74097 12.3829 4.55197 12.3829C4.36297 12.3829 4.17397 12.4571 4.17397 12.4571C4.17397 12.4571 3.98497 12.3829 3.79597 12.3829C3.60697 12.3829 3.41797 12.4571 3.41797 12.4571V11.8633Z" fill="white"/>
</mask>
<g mask="url(#mask2_1211_25875)">
<path d="M3.4041 12.339L3.37109 12.2679C3.50728 12.2144 3.64395 12.1875 3.78082 12.1875C3.86925 12.1875 3.91543 12.1984 3.99394 12.2293C4.06289 12.2564 4.09864 12.2648 4.17405 12.2648C4.24946 12.2648 4.28521 12.2564 4.35416 12.2293C4.43267 12.1984 4.47884 12.1875 4.56728 12.1875C4.70415 12.1875 4.84082 12.2144 4.977 12.2679L4.944 12.339C4.81803 12.2895 4.69255 12.2648 4.56728 12.2648C4.49186 12.2648 4.45612 12.2733 4.38716 12.3004C4.30866 12.3312 4.26248 12.3421 4.17405 12.3421C4.08562 12.3421 4.03944 12.3312 3.96093 12.3004C3.89198 12.2733 3.85624 12.2648 3.78082 12.2648C3.65555 12.2648 3.53006 12.2895 3.4041 12.339Z" fill="white"/>
<path d="M3.4041 12.1164L3.37109 12.0453C3.50728 11.9917 3.64395 11.9648 3.78082 11.9648C3.86925 11.9648 3.91543 11.9757 3.99394 12.0066C4.06289 12.0337 4.09864 12.0422 4.17405 12.0422C4.24946 12.0422 4.28521 12.0337 4.35416 12.0066C4.43267 11.9757 4.47884 11.9648 4.56728 11.9648C4.70415 11.9648 4.84082 11.9917 4.977 12.0453L4.944 12.1164C4.81803 12.0668 4.69255 12.0422 4.56728 12.0422C4.49186 12.0422 4.45612 12.0506 4.38716 12.0777C4.30866 12.1086 4.26248 12.1195 4.17405 12.1195C4.08562 12.1195 4.03944 12.1086 3.96093 12.0777C3.89198 12.0506 3.85624 12.0422 3.78082 12.0422C3.65555 12.0422 3.53006 12.0668 3.4041 12.1164Z" fill="white"/>
</g>
<rect x="11.9883" y="7.41016" width="0.84" height="3.85968" fill="#F1F9FF"/>
<path fill-rule="evenodd" clip-rule="evenodd" d="M13.1643 6.74219H11.6523V7.11331H11.9023V7.41012H12.9103V7.11331H13.1643V6.74219Z" fill="#C88A02"/>
<path fill-rule="evenodd" clip-rule="evenodd" d="M12.9123 11.4922H13.1643V11.8633H11.6523V11.4922H11.9043V11.1953H12.9123V11.4922Z" fill="#C88A02"/>
<path fill-rule="evenodd" clip-rule="evenodd" d="M12.4083 6.81647C12.5911 6.81647 12.6097 6.75565 12.7175 6.66481C12.8013 6.59427 12.9963 6.50678 12.9963 6.40824C12.9963 6.18277 12.7331 6 12.4083 6C12.0836 6 11.8203 6.18277 11.8203 6.40824C11.8203 6.51803 11.9546 6.59144 12.0562 6.66481C12.1632 6.74211 12.2417 6.81647 12.4083 6.81647Z" fill="#AD1619"/>
<path fill-rule="evenodd" clip-rule="evenodd" d="M11.6523 11.8633H13.1643V12.4571C13.1643 12.4571 12.9753 12.3829 12.7863 12.3829C12.5973 12.3829 12.4083 12.4571 12.4083 12.4571C12.4083 12.4571 12.2193 12.3829 12.0303 12.3829C11.8413 12.3829 11.6523 12.4571 11.6523 12.4571V11.8633Z" fill="#005BBF"/>
<mask id="mask3_1211_25875" style="mask-type:alpha" maskUnits="userSpaceOnUse" x="11" y="11" width="3" height="2">
<path fill-rule="evenodd" clip-rule="evenodd" d="M11.6523 11.8633H13.1643V12.4571C13.1643 12.4571 12.9753 12.3829 12.7863 12.3829C12.5973 12.3829 12.4083 12.4571 12.4083 12.4571C12.4083 12.4571 12.2193 12.3829 12.0303 12.3829C11.8413 12.3829 11.6523 12.4571 11.6523 12.4571V11.8633Z" fill="white"/>
</mask>
<g mask="url(#mask3_1211_25875)">
<path d="M11.6385 12.339L11.6055 12.2679C11.7417 12.2144 11.8783 12.1875 12.0152 12.1875C12.1036 12.1875 12.1498 12.1984 12.2283 12.2293C12.2973 12.2564 12.333 12.2648 12.4084 12.2648C12.4838 12.2648 12.5196 12.2564 12.5885 12.2293C12.667 12.1984 12.7132 12.1875 12.8017 12.1875C12.9385 12.1875 13.0752 12.2144 13.2114 12.2679L13.1784 12.339C13.0524 12.2895 12.9269 12.2648 12.8017 12.2648C12.7262 12.2648 12.6905 12.2733 12.6215 12.3004C12.543 12.3312 12.4969 12.3421 12.4084 12.3421C12.32 12.3421 12.2738 12.3312 12.1953 12.3004C12.1264 12.2733 12.0906 12.2648 12.0152 12.2648C11.8899 12.2648 11.7644 12.2895 11.6385 12.339Z" fill="white"/>
<path d="M11.6385 12.1164L11.6055 12.0453C11.7417 11.9917 11.8783 11.9648 12.0152 11.9648C12.1036 11.9648 12.1498 11.9757 12.2283 12.0066C12.2973 12.0337 12.333 12.0422 12.4084 12.0422C12.4838 12.0422 12.5196 12.0337 12.5885 12.0066C12.667 11.9757 12.7132 11.9648 12.8017 11.9648C12.9385 11.9648 13.0752 11.9917 13.2114 12.0453L13.1784 12.1164C13.0524 12.0668 12.9269 12.0422 12.8017 12.0422C12.7262 12.0422 12.6905 12.0506 12.6215 12.0777C12.543 12.1086 12.4969 12.1195 12.4084 12.1195C12.32 12.1195 12.2738 12.1086 12.1953 12.0777C12.1264 12.0506 12.0906 12.0422 12.0152 12.0422C11.8899 12.0422 11.7644 12.0668 11.6385 12.1164Z" fill="white"/>
</g>
<path fill-rule="evenodd" clip-rule="evenodd" d="M3.73911 10.9939C3.89055 10.8316 3.97524 10.684 3.97524 10.5273C3.97524 10.4284 3.94195 10.343 3.88363 10.2733L3.89349 10.2694C3.89258 10.2698 4.05963 10.2054 4.11779 10.1808C4.2259 10.135 4.32115 10.0864 4.41401 10.0268C4.4733 9.98867 4.55274 9.94718 4.67384 9.88972L4.78772 9.8362L4.81836 9.82182C4.87722 9.79407 4.92104 9.7728 4.96176 9.75193C5.08864 9.6869 5.17248 9.63316 5.23661 9.5613C5.3885 9.3911 5.35696 9.1604 5.14412 9.03235C5.03984 8.96961 4.89912 8.93361 4.69285 8.90528L4.65016 8.89944L4.39783 8.86487C4.29912 8.85118 4.21105 8.83839 4.13252 8.82627C4.64894 8.75034 5.38637 8.77825 5.71074 8.92623L6.01903 8.39861C5.35803 8.09704 3.85193 8.12784 3.28933 8.4702C2.87668 8.7213 2.93205 9.10089 3.36139 9.26434C3.5408 9.33264 3.77467 9.37796 4.20745 9.4394C4.13493 9.47658 4.0748 9.51054 4.01877 9.54654C3.96196 9.58305 3.90108 9.61406 3.82725 9.64534C3.79194 9.6603 3.68739 9.70086 3.63945 9.71946L3.63944 9.71947L3.63942 9.71948L3.61533 9.72885C3.26562 9.86936 3.09589 10.0637 3.14661 10.4146L3.17407 10.6046L3.22331 10.6179L3.73911 10.9939ZM3.30575 10.503L3.30469 10.5057L3.3055 10.5038L3.30575 10.503ZM12.5287 10.5273C12.5287 10.684 12.6134 10.8316 12.7648 10.9939L13.2806 10.6179L13.3298 10.6046L13.3573 10.4146C13.408 10.0637 13.2383 9.86937 12.8886 9.72885L12.8644 9.71946L12.8644 9.71945C12.8165 9.70085 12.712 9.6603 12.6767 9.64534C12.6028 9.61406 12.542 9.58305 12.4851 9.54654C12.4291 9.51054 12.369 9.47658 12.2965 9.4394C12.7292 9.37796 12.9631 9.33264 13.1425 9.26434C13.5719 9.10089 13.6272 8.72131 13.2146 8.4702C12.652 8.12784 11.1459 8.09704 10.4849 8.39861L10.7932 8.92624C11.1175 8.77825 11.855 8.75034 12.3714 8.82628C12.2929 8.8384 12.2048 8.85118 12.1061 8.86487L11.8539 8.89941L11.8111 8.90528C11.6048 8.93361 11.4641 8.96961 11.3598 9.03235C11.1469 9.1604 11.1154 9.39111 11.2673 9.5613C11.3314 9.63316 11.4153 9.6869 11.5421 9.75194C11.5829 9.77281 11.6267 9.79407 11.6855 9.82182L11.7163 9.83626L11.8301 9.88972C11.9512 9.94718 12.0306 9.98867 12.0899 10.0268C12.1828 10.0865 12.278 10.135 12.3861 10.1808C12.4443 10.2054 12.6113 10.2698 12.6104 10.2694L12.6203 10.2733C12.562 10.343 12.5287 10.4284 12.5287 10.5273Z" fill="#AD1619"/>
<path d="M4.44042 8.82031L4.68836 8.86564V9.19218C4.42429 9.37837 3.75391 9.69216 3.75391 9.69216V8.82031H4.44042Z" fill="#F1F9FF"/>
<path d="M12.2354 8.82031L11.9874 8.86564V9.19218C12.2515 9.37837 12.9219 9.69216 12.9219 9.69216V8.82031H12.2354Z" fill="#F1F9FF"/>
<path fill-rule="evenodd" clip-rule="evenodd" d="M11.0809 5.37759V5.26892C10.6489 4.99492 10.1964 4.85792 9.72355 4.85792C9.27086 4.6809 8.81266 4.61204 8.34894 4.65133C8.34906 4.65017 8.34912 4.64959 8.34912 4.64959C7.65089 4.58922 6.94721 4.85792 6.94721 4.85792C6.23793 4.85792 5.58984 5.26892 5.58984 5.26892V5.37759L6.43707 6.12947C6.43707 6.12947 6.67536 6.8526 8.34375 6.68326V6.6849C8.34375 6.6849 9.44951 6.65823 9.52721 6.6354C9.55804 6.62634 9.59001 6.61809 9.62268 6.60966C9.83927 6.55379 10.0865 6.49001 10.2337 6.12947L11.0809 5.37759ZM8.34375 4.70484C8.31526 5.0053 8.1888 6.43787 8.34375 6.67512V4.70484Z" fill="#AD1619"/>
<path fill-rule="evenodd" clip-rule="evenodd" d="M6.23438 6.00546L6.23523 6.00197L5.64062 5.50764L5.69818 5.45358L6.25605 5.91736L6.27007 5.8604C6.36157 5.87798 6.42845 5.88444 6.46743 5.88078V5.77992L6.59141 5.8392C6.65239 5.86836 6.73972 5.87621 6.85474 5.85967C6.93923 5.84752 6.99623 5.76082 7.01487 5.57608L7.0525 5.20312L7.17873 5.56056C7.23584 5.7223 7.32298 5.7936 7.44703 5.7936C7.56819 5.7936 7.61689 5.75436 7.62227 5.65542L7.63751 5.37484L7.78111 5.62546C7.83284 5.71574 7.90419 5.75671 8.00563 5.75671C8.15072 5.75671 8.24763 5.64982 8.24763 5.48213H8.25234H8.41563H8.42034C8.42034 5.64982 8.51725 5.75671 8.66234 5.75671C8.76378 5.75671 8.83512 5.71574 8.88686 5.62546L9.03046 5.37484L9.0457 5.65542C9.05108 5.75436 9.09978 5.7936 9.22094 5.7936C9.34499 5.7936 9.43212 5.7223 9.48924 5.56056L9.61547 5.20312L9.6531 5.57608C9.67174 5.76082 9.72874 5.84752 9.81322 5.85967C9.92825 5.87621 10.0156 5.86836 10.0766 5.8392L10.2005 5.77992V5.88078C10.2395 5.88444 10.3064 5.87798 10.3979 5.8604L10.4245 5.96858L11.044 5.45358L11.1016 5.50764L10.3311 6.14817C10.2187 6.3311 10.1621 6.45184 10.1621 6.502C10.1621 6.57852 9.93678 6.62393 9.49708 6.67058C9.1524 6.70715 8.74558 6.73169 8.41293 6.73533V6.7358L8.37109 6.73568L8.32925 6.7358V6.73533C7.99661 6.73169 7.58979 6.70715 7.24511 6.67058C6.80541 6.62393 6.58012 6.57852 6.58012 6.502C6.58012 6.49184 6.5778 6.47878 6.57316 6.4629C6.53157 6.41429 6.50181 6.33781 6.48152 6.26748C6.46118 6.23127 6.4377 6.19146 6.4111 6.14817L6.24094 6.00671L6.23438 6.00546ZM10.3659 6.01734C10.2281 6.03893 10.1286 6.03679 10.0758 5.99883C9.99336 6.02003 9.89665 6.02206 9.78624 6.00619C9.66831 5.98923 9.58619 5.91992 9.53678 5.80494C9.47224 5.87759 9.39063 5.92243 9.29287 5.93691C9.83038 6.00427 10.2069 6.09895 10.2069 6.09895C10.2069 6.09895 10.1975 6.17039 10.1745 6.25393C10.1986 6.21013 10.2273 6.16137 10.2605 6.10747L10.2686 6.09819L10.3659 6.01734ZM9.03941 5.90871C8.99262 5.88819 8.95526 5.85841 8.92825 5.82003C8.88816 5.85132 8.84255 5.8742 8.7919 5.88831C8.87648 5.89403 8.95917 5.90093 9.03941 5.90871ZM8.49548 5.87387C8.42949 5.84694 8.37473 5.80367 8.33398 5.74819C8.29348 5.80334 8.23911 5.84643 8.17365 5.87339C8.21273 5.87235 8.25204 5.87161 8.29154 5.8712V5.87085L8.32611 5.87094L8.36068 5.87085V5.8712C8.40588 5.87166 8.45084 5.87257 8.49548 5.87387ZM6.46789 6.09347L6.38936 6.02819C6.48239 6.03615 6.55129 6.02824 6.59216 5.99883C6.67461 6.02003 6.77131 6.02206 6.88173 6.00619C6.99965 5.98923 7.08178 5.91992 7.13119 5.80494C7.19419 5.87585 7.27344 5.92027 7.36811 5.93582C6.90324 5.99363 6.55714 6.07223 6.46789 6.09347ZM7.87306 5.88746C7.79108 5.89287 7.71084 5.89941 7.63285 5.90679C7.67764 5.88635 7.71354 5.85723 7.73972 5.82003C7.77902 5.8507 7.82361 5.87329 7.87306 5.88746ZM9.94066 6.50348C9.99994 6.52799 10.0474 6.50319 10.0848 6.45594C10.0814 6.4692 10.0793 6.48116 10.0785 6.49184C10.0736 6.49469 10.066 6.49812 10.0561 6.5018C10.0284 6.51208 9.98616 6.52303 9.93119 6.53411C9.82314 6.55589 9.66934 6.57755 9.48707 6.59688C9.13102 6.63466 8.70762 6.65951 8.37109 6.66145C8.03457 6.65951 7.61117 6.63466 7.25512 6.59688C7.07285 6.57755 6.91905 6.55589 6.811 6.53411C6.76548 6.52494 6.72867 6.51585 6.70165 6.50716C6.70492 6.50609 6.70822 6.50486 6.71156 6.50348C6.89481 6.42771 8.10522 6.3566 8.32611 6.34417C8.547 6.3566 9.75741 6.42771 9.94066 6.50348ZM10.1719 6.4899L10.1706 6.4912L10.1714 6.49025L10.1719 6.4899Z" fill="#C88A02"/>
<path fill-rule="evenodd" clip-rule="evenodd" d="M8.33403 4.14847C8.47321 4.14847 8.58603 4.04878 8.58603 3.9258C8.58603 3.80282 8.47321 3.70312 8.33403 3.70312C8.19486 3.70312 8.08203 3.80282 8.08203 3.9258C8.08203 4.04878 8.19486 4.14847 8.33403 4.14847Z" fill="#005BBF"/>
<path fill-rule="evenodd" clip-rule="evenodd" d="M8.17185 5.2398C8.17733 5.2647 8.18594 5.28784 8.19683 5.3084C8.1637 5.29681 8.124 5.29007 8.08134 5.29007C7.96536 5.29007 7.87134 5.33991 7.87134 5.4014C7.87134 5.46289 7.96536 5.51274 8.08134 5.51274C8.19732 5.51274 8.29134 5.46289 8.29134 5.4014L8.29119 5.39714L8.29332 5.3978L8.29322 5.4014C8.29322 5.46289 8.38724 5.51274 8.50322 5.51274C8.6192 5.51274 8.71322 5.46289 8.71322 5.4014C8.71322 5.33991 8.6192 5.29007 8.50322 5.29007C8.47417 5.29007 8.44649 5.29319 8.42133 5.29885C8.42744 5.2684 8.42718 5.23347 8.41922 5.19732C8.39709 5.09672 8.32378 5.02468 8.25547 5.03641C8.18716 5.04814 8.14972 5.1392 8.17185 5.2398ZM6.93415 5.38084C6.92371 5.36075 6.91545 5.33824 6.91013 5.31408C6.888 5.21348 6.92544 5.12242 6.99375 5.11069C7.06206 5.09896 7.13537 5.171 7.1575 5.2716C7.16544 5.30768 7.16572 5.34253 7.15965 5.37294C7.1848 5.36729 7.21246 5.36416 7.2415 5.36416C7.35748 5.36416 7.4515 5.41401 7.4515 5.4755C7.4515 5.53699 7.35748 5.58684 7.2415 5.58684C7.13253 5.58684 7.04295 5.54284 7.03251 5.48652C7.02208 5.54284 6.93249 5.58684 6.82353 5.58684C6.70755 5.58684 6.61353 5.53699 6.61353 5.4755C6.61353 5.41401 6.70755 5.36416 6.82353 5.36416C6.86412 5.36416 6.90203 5.37027 6.93415 5.38084ZM9.3411 5.5338C9.44928 5.54724 9.54514 5.51448 9.564 5.45974C9.56471 5.51709 9.64675 5.57213 9.75516 5.58559C9.87001 5.59986 9.97097 5.56206 9.98065 5.50116C9.99034 5.44027 9.90509 5.37935 9.79023 5.36509C9.76167 5.36154 9.73396 5.36121 9.7083 5.36366C9.71912 5.33427 9.72435 5.29969 9.72217 5.26294C9.7161 5.1606 9.65485 5.08024 9.58536 5.08346C9.51586 5.08668 9.46445 5.17225 9.47052 5.27459C9.47198 5.29921 9.47663 5.32256 9.48383 5.34377C9.45354 5.32917 9.4167 5.31833 9.37617 5.3133C9.26132 5.29903 9.16036 5.33683 9.15068 5.39773C9.141 5.45862 9.22625 5.51954 9.3411 5.5338ZM10.3681 5.74384C10.4705 5.79195 10.58 5.78694 10.6127 5.73265L10.6136 5.73116C10.6233 5.73982 10.6347 5.74615 10.6476 5.74963C10.7141 5.76761 10.7956 5.70273 10.8295 5.60473C10.8634 5.50672 10.8369 5.4127 10.7704 5.39472C10.7038 5.37674 10.6224 5.44162 10.5885 5.53962C10.5805 5.56259 10.5759 5.58533 10.5743 5.60693C10.5517 5.58461 10.5218 5.56384 10.4864 5.54723C10.384 5.49911 10.2745 5.50412 10.2419 5.55842C10.2092 5.61271 10.2657 5.69572 10.3681 5.74384ZM6.24563 5.76666C6.14323 5.81478 6.03373 5.80977 6.00106 5.75547C6.00026 5.75415 5.99952 5.75281 5.99883 5.75145C5.98856 5.76132 5.97631 5.76848 5.96229 5.77227C5.89574 5.79025 5.8143 5.72538 5.78039 5.62737C5.74649 5.52937 5.77294 5.43534 5.83949 5.41737C5.90604 5.39939 5.98747 5.46426 6.02138 5.56227C6.0298 5.5866 6.0345 5.6107 6.03579 5.63344C6.05882 5.60973 6.09003 5.58758 6.12733 5.57005C6.22973 5.52194 6.33923 5.52695 6.3719 5.58124C6.40457 5.63553 6.34804 5.71855 6.24563 5.76666Z" fill="#C88A02"/>
<path fill-rule="evenodd" clip-rule="evenodd" d="M8.24219 3.30469H8.41719V3.4024H8.53046V3.55704H8.41719V3.86627H8.53046V4.02091H8.125V3.86627H8.24219V3.55704H8.125V3.4024H8.24219V3.30469Z" fill="#C88A02"/>
<rect x="8.20703" y="4.14453" width="0.336" height="0.964921" fill="#C88A02"/>
<path d="M6.85465 4.30563L6.85318 4.37985C6.10836 4.36836 5.68112 4.4644 5.57266 4.65583C5.46054 4.85374 5.48139 5.09432 5.6385 5.3801L5.56294 5.41253C5.39531 5.10762 5.37242 4.84346 5.49755 4.6226C5.62635 4.39526 6.07832 4.29366 6.85465 4.30563Z" fill="white"/>
<path d="M6.99739 4.96412L6.95432 5.02785C6.79212 4.94227 6.71094 4.79623 6.71094 4.59496C6.71094 4.30569 6.87957 4.13607 7.25259 4.01999C7.49065 3.9459 7.81586 3.97628 8.22912 4.10867L8.20049 4.17845C7.80377 4.05135 7.49679 4.02268 7.28049 4.08999C6.93835 4.19647 6.79494 4.34072 6.79494 4.59496C6.79494 4.77158 6.86237 4.89289 6.99739 4.96412Z" fill="white"/>
<path d="M5.74535 5.2669L5.58684 5.31609C5.42238 4.90233 5.46935 4.62132 5.75037 4.50011C5.99799 4.3933 6.35888 4.34983 6.83483 4.36687L6.82802 4.5152C6.3774 4.49906 6.04215 4.53945 5.82406 4.63351C5.63938 4.71317 5.6056 4.9153 5.74535 5.2669Z" fill="#C88A02"/>
<path d="M7.59523 4.20704C7.21112 4.20704 7.05339 4.28971 6.96328 4.53378C6.90585 4.68932 6.96155 4.82207 7.14214 4.94599L7.0391 5.06324C6.80529 4.90281 6.72286 4.70632 6.80356 4.48774C6.9184 4.17669 7.14375 4.05859 7.59523 4.05859C7.89114 4.05859 8.12166 4.12729 8.28217 4.2671L8.3072 4.2889V5.00462H8.1392V4.35235C8.01384 4.25614 7.83378 4.20704 7.59523 4.20704Z" fill="#C88A02"/>
<path d="M9.78598 4.37985L9.78744 4.45406C10.5323 4.44257 10.9595 4.53862 11.068 4.73005C11.1801 4.92795 11.1592 5.16853 11.0021 5.45432L11.0777 5.48675C11.2453 5.18183 11.2682 4.91768 11.1431 4.69682C11.0143 4.46948 10.5623 4.36788 9.78598 4.37985Z" fill="white"/>
<path d="M9.52215 4.97975L9.56521 5.04348C9.72741 4.9579 9.80859 4.81185 9.80859 4.61058C9.80859 4.32132 9.63996 4.15169 9.26695 4.03561C9.02888 3.96152 8.70367 3.9919 8.29041 4.1243L8.31904 4.19408C8.71577 4.06698 9.02274 4.03831 9.23904 4.10562C9.58118 4.21209 9.72459 4.35635 9.72459 4.61058C9.72459 4.78721 9.65716 4.90851 9.52215 4.97975Z" fill="white"/>
<path d="M10.95 5.34112L11.1085 5.39031C11.2729 4.97654 11.226 4.69554 10.9449 4.57433C10.6973 4.46752 10.3364 4.42405 9.86049 4.44109L9.86729 4.58942C10.3179 4.57328 10.6532 4.61366 10.8712 4.70773C11.0559 4.78739 11.0897 4.98951 10.95 5.34112Z" fill="#C88A02"/>
<path d="M9.08836 4.21876C9.47247 4.21876 9.6302 4.30143 9.72032 4.5455C9.77774 4.70104 9.72205 4.83379 9.54146 4.95771L9.6445 5.07496C9.8783 4.91453 9.96074 4.71804 9.88003 4.49945C9.76519 4.18841 9.53985 4.07031 9.08836 4.07031C8.79245 4.07031 8.56193 4.13901 8.40143 4.27882L8.3764 4.30062V5.01633H8.5444V4.36407C8.66975 4.26786 8.84981 4.21876 9.08836 4.21876Z" fill="#C88A02"/>
<path opacity="0.3" fill-rule="evenodd" clip-rule="evenodd" d="M5.60156 6.74219H11.0616V11.0769C11.0616 11.0769 10.656 12.5317 8.33156 12.5317C6.00714 12.5317 5.60156 11.0386 5.60156 11.0386V6.74219Z" fill="#E1E5E8"/>
<mask id="mask4_1211_25875" style="mask-type:alpha" maskUnits="userSpaceOnUse" x="5" y="6" width="7" height="7">
<path fill-rule="evenodd" clip-rule="evenodd" d="M5.60156 6.74219H11.0616V11.0769C11.0616 11.0769 10.656 12.5317 8.33156 12.5317C6.00714 12.5317 5.60156 11.0386 5.60156 11.0386V6.74219Z" fill="white"/>
</mask>
<g mask="url(#mask4_1211_25875)">
<rect x="5.60156" y="9.41406" width="2.772" height="2.89476" fill="#FFC034"/>
<rect x="5.9375" y="9.5625" width="0.336" height="2.74631" fill="#AD1619"/>
<rect x="7.11328" y="9.5625" width="0.336" height="2.74631" fill="#AD1619"/>
<rect x="6.52734" y="9.5625" width="0.336" height="2.74631" fill="#AD1619"/>
<rect x="7.70312" y="9.5625" width="0.336" height="2.74631" fill="#AD1619"/>
<rect x="5.60156" y="6.66797" width="2.772" height="2.82054" fill="#AD1619"/>
<rect x="8.28906" y="9.33984" width="2.772" height="2.82054" fill="#AD1619"/>
<rect x="8.28906" y="6.74219" width="2.94" height="2.74631" fill="#F1F9FF"/>
<path fill-rule="evenodd" clip-rule="evenodd" d="M6.78125 6.96484H7.03325V7.58066H7.19922V7.27274H7.45122V7.58066H7.70341V7.96553H7.45331V8.6582H7.70341V9.04307H6.19141V8.6582H6.44531V7.96553H6.19141V7.58066H6.3595V7.27274H6.6115V7.58066H6.78125V6.96484Z" fill="#C88A02"/>
<path d="M9.73047 7.09241L9.90249 6.92969L10.2636 7.2278L10.0916 7.39052L9.73047 7.09241Z" fill="#C88A02"/>
<path fill-rule="evenodd" clip-rule="evenodd" d="M10.768 11.3008V9.67578H8.66797V11.2872L8.6713 11.2998C8.77761 11.7 9.13963 11.9025 9.71797 11.9025C10.2958 11.9025 10.6577 11.7052 10.7645 11.3137L10.768 11.3008ZM9.71987 11.6798C9.25585 11.6798 9.00244 11.5417 8.92188 11.2609V9.89844H10.5179V11.2738C10.4375 11.5455 10.1841 11.6798 9.71987 11.6798Z" fill="#FFC034"/>
<path fill-rule="evenodd" clip-rule="evenodd" d="M9.80391 9.80859H9.62891V10.5444L8.94008 9.88239L8.81641 9.98286L9.44015 10.5823H8.875V10.805H9.30923H9.4554L8.81762 11.4179L8.94129 11.5184L9.62891 10.8576V11.7165H9.80391V10.9319L10.4142 11.5184L10.5378 11.4179L9.90007 10.805H10.6119V10.5823H9.91532L10.5391 9.98286L10.4154 9.88239L9.80391 10.4701V9.80859Z" fill="#FFC034"/>
<path fill-rule="evenodd" clip-rule="evenodd" d="M10.1109 12.1638C10.1109 12.1638 8.33175 12.2874 8.33175 11.2734C8.33175 11.2734 8.31478 12.1638 6.45703 12.1638V12.9642H10.1109V12.1638Z" fill="#F1F9FF"/>
<path fill-rule="evenodd" clip-rule="evenodd" d="M8.33312 10.0079C8.68106 10.0079 8.96312 9.74206 8.96312 9.41411C8.96312 9.08616 8.68106 8.82031 8.33312 8.82031C7.98519 8.82031 7.70312 9.08616 7.70312 9.41411C7.70312 9.74206 7.98519 10.0079 8.33312 10.0079Z" fill="#005BBF" stroke="#AD1619" stroke-width="1.16667"/>
</g>
</g>
</g>
</svg>
