<svg width="16" height="14" viewBox="0 0 16 14" fill="none" xmlns="http://www.w3.org/2000/svg">
<path d="M8 8.99963C9.10457 8.99963 10 8.1042 10 6.99963C10 5.89506 9.10457 4.99963 8 4.99963C6.89543 4.99963 6 5.89506 6 6.99963C6 8.1042 6.89543 8.99963 8 8.99963Z" stroke="#292D32" stroke-miterlimit="10" stroke-linecap="round" stroke-linejoin="round"/>
<path d="M1.33301 7.5863V6.41297C1.33301 5.71963 1.89967 5.1463 2.59967 5.1463C3.80634 5.1463 4.29967 4.29297 3.69301 3.2463C3.34634 2.6463 3.55301 1.8663 4.15967 1.51963L5.31301 0.859632C5.83967 0.546299 6.51967 0.732966 6.83301 1.25963L6.90634 1.3863C7.50634 2.43297 8.49301 2.43297 9.09967 1.3863L9.17301 1.25963C9.48634 0.732966 10.1663 0.546299 10.693 0.859632L11.8463 1.51963C12.453 1.8663 12.6597 2.6463 12.313 3.2463C11.7063 4.29297 12.1997 5.1463 13.4063 5.1463C14.0997 5.1463 14.673 5.71297 14.673 6.41297V7.5863C14.673 8.27963 14.1063 8.85297 13.4063 8.85297C12.1997 8.85297 11.7063 9.7063 12.313 10.753C12.6597 11.3596 12.453 12.133 11.8463 12.4796L10.693 13.1396C10.1663 13.453 9.48634 13.2663 9.17301 12.7396L9.09967 12.613C8.49967 11.5663 7.51301 11.5663 6.90634 12.613L6.83301 12.7396C6.51967 13.2663 5.83967 13.453 5.31301 13.1396L4.15967 12.4796C3.55301 12.133 3.34634 11.353 3.69301 10.753C4.29967 9.7063 3.80634 8.85297 2.59967 8.85297C1.89967 8.85297 1.33301 8.27963 1.33301 7.5863Z" stroke="#292D32" stroke-miterlimit="10" stroke-linecap="round" stroke-linejoin="round"/>
</svg>
