<svg width="19" height="22" viewBox="0 0 19 22" fill="none" xmlns="http://www.w3.org/2000/svg">
<path d="M12.7119 5.85927L4.57796 14.6375C4.30867 14.9529 4.16399 15.3662 4.17386 15.7917C4.18373 16.2173 4.3474 16.6225 4.63099 16.9235C4.91457 17.2244 5.29635 17.3982 5.69728 17.4086C6.09821 17.4191 6.48758 17.2655 6.78478 16.9797L16.4811 6.54328C17.0197 5.91241 17.309 5.08588 17.2893 4.23482C17.2696 3.38376 16.9422 2.57334 16.3751 1.97137C15.8079 1.36939 15.0443 1.02196 14.2425 1.00101C13.4406 0.980052 12.6619 1.28718 12.0675 1.8588L2.37114 12.2953C1.49321 13.2271 1 14.4908 1 15.8086C1 17.1264 1.49321 18.3902 2.37114 19.322C3.24907 20.2538 4.43979 20.7773 5.68137 20.7773C6.92294 20.7773 8.11367 20.2538 8.9916 19.322L17.0084 10.8339" stroke="#2C2C2C" stroke-width="1.5" stroke-linecap="round" stroke-linejoin="round"/>
</svg>
