<svg width="22" height="20" viewBox="0 0 22 20" fill="none" xmlns="http://www.w3.org/2000/svg">
<path fill-rule="evenodd" clip-rule="evenodd" d="M11.4968 12.9766H12.3098C12.6017 12.9766 12.7581 12.8223 12.7581 12.5447C12.7581 12.2722 12.5392 12.1488 12.2681 12.1488H11.4968V12.9766ZM10.5273 11.3828H12.4245C13.0812 11.3828 13.7276 11.6758 13.7276 12.4162C13.7276 12.8121 13.5347 13.1874 13.1438 13.3365V13.3468C13.5399 13.4393 13.6545 13.8764 13.6859 14.2259C13.6963 14.3802 13.7119 14.9201 13.8422 15.0537H12.8831C12.7997 14.9303 12.7841 14.5705 12.7737 14.4676C12.7477 14.0974 12.6851 13.717 12.2316 13.717H11.4968V15.0537H10.5273V11.3828Z" fill="white"/>
<path fill-rule="evenodd" clip-rule="evenodd" d="M14.1875 11.3828H17.1532V12.1488H15.1569V12.7915H16.9811V13.5319H15.1569V14.2311H17.2053V15.0537H14.1875V11.3828Z" fill="white"/>
<path fill-rule="evenodd" clip-rule="evenodd" d="M18.6218 14.2311H19.0804C19.8154 14.2157 20.1071 13.933 20.1071 13.1976C20.1071 12.5293 19.7423 12.2054 19.0804 12.2054H18.6218V14.2311ZM17.6523 11.3828H19.2524C20.3939 11.3828 21.0767 12.0666 21.0767 13.2029C21.0767 14.4059 20.3834 15.0537 19.2524 15.0537H17.6523V11.3828Z" fill="white"/>
<path fill-rule="evenodd" clip-rule="evenodd" d="M10.5273 15.4316H11.4968V18.28H13.2323V19.1026H10.5273V15.4316Z" fill="white"/>
<path fill-rule="evenodd" clip-rule="evenodd" d="M13.5039 19.1026H14.4733V15.4316H13.5039V19.1026Z" fill="white"/>
<path fill-rule="evenodd" clip-rule="evenodd" d="M15.6921 17.8697C15.7129 18.3015 15.9839 18.4404 16.3957 18.4404C16.6876 18.4404 16.9899 18.3375 16.9899 18.065C16.9899 17.7411 16.4582 17.6794 15.9214 17.5303C15.3898 17.3811 14.8321 17.1447 14.8321 16.4711C14.8321 15.6691 15.6504 15.3555 16.3488 15.3555C17.0889 15.3555 17.8342 15.7102 17.8394 16.538H16.87C16.8856 16.2038 16.5677 16.0958 16.2706 16.0958C16.0621 16.0958 15.8015 16.1678 15.8015 16.4094C15.8015 16.6922 16.3383 16.7436 16.8804 16.8928C17.4172 17.0419 17.9593 17.2887 17.9593 17.9519C17.9593 18.8825 17.1567 19.1807 16.3383 19.1807C15.4836 19.1807 14.7278 18.8106 14.7227 17.8697H15.6921Z" fill="white"/>
<path fill-rule="evenodd" clip-rule="evenodd" d="M21.0258 16.2543H19.9157V19.1026H18.9462V16.2543H17.8361V15.4317H21.0258V16.2543Z" fill="white"/>
<path fill-rule="evenodd" clip-rule="evenodd" d="M17.7239 2.79536C16.9767 3.50721 16.8162 4.5382 17.365 5.09891C17.9141 5.65955 18.9649 5.53678 19.7117 4.82515C20.4587 4.11345 20.6195 3.08196 20.0703 2.52168C19.5216 1.96097 18.4706 2.08395 17.7239 2.79536Z" fill="white"/>
<path fill-rule="evenodd" clip-rule="evenodd" d="M17.1256 6.2567C16.3791 6.96833 16.2186 7.99961 16.7674 8.55996C17.3165 9.12067 18.3668 8.99805 19.1133 8.28634C19.8607 7.57457 20.0209 6.54329 19.472 5.9823C18.9237 5.42195 17.8729 5.54493 17.1256 6.2567Z" fill="white"/>
<path fill-rule="evenodd" clip-rule="evenodd" d="M11.9932 1.194C11.2462 1.90591 11.0858 2.93705 11.6347 3.4979C12.1835 4.05832 13.2344 3.9357 13.981 3.22386C14.7276 2.51215 14.8882 1.48045 14.3395 0.920167C13.7908 0.359671 12.7398 0.48194 11.9932 1.194Z" fill="white"/>
<path fill-rule="evenodd" clip-rule="evenodd" d="M15.5285 0.647036C14.7816 1.35909 14.6209 2.39016 15.1694 2.95058C15.7189 3.51108 16.7692 3.38881 17.5162 2.67689C18.263 1.96512 18.4237 0.933277 17.8745 0.373206C17.326 -0.187503 16.2754 -0.0644531 15.5285 0.647036Z" fill="white"/>
<path fill-rule="evenodd" clip-rule="evenodd" d="M16.2064 6.94805C16.2064 8.5489 14.8905 9.84727 13.2673 9.84727C11.644 9.84727 10.3281 8.5489 10.3281 6.94805C10.3281 5.34684 11.644 4.04883 13.2673 4.04883C14.8905 4.04883 16.2064 5.34684 16.2064 6.94805Z" fill="white"/>
<path fill-rule="evenodd" clip-rule="evenodd" d="M9.38104 5.21247C9.38104 7.76623 7.28212 9.83566 4.69417 9.83566C2.10594 9.83566 0.0078125 7.76623 0.0078125 5.21247C0.0078125 2.6597 2.10594 0.589844 4.69417 0.589844H9.38693L9.38104 5.21247Z" fill="white"/>
<path fill-rule="evenodd" clip-rule="evenodd" d="M9.43124 15.3493C9.43124 17.9183 7.31974 20.0009 4.71533 20.0009C2.11135 20.0009 0 17.9183 0 15.3493C0 12.7797 2.11135 10.6973 4.71533 10.6973C7.31974 10.6973 9.43124 12.7797 9.43124 15.3493Z" fill="white"/>
<path fill-rule="evenodd" clip-rule="evenodd" d="M2.61328 15.839H2.82207V14.9023H2.61328V15.839Z" fill="#DA2A1C"/>
<path fill-rule="evenodd" clip-rule="evenodd" d="M3.67877 15.7675C3.60694 15.8292 3.50765 15.86 3.38083 15.86C3.25228 15.86 3.15278 15.8294 3.08232 15.7682C3.01179 15.707 2.97656 15.6126 2.97656 15.4848V14.9023H3.18535V15.4848C3.18535 15.5101 3.18758 15.5351 3.19203 15.5596C3.19649 15.584 3.20577 15.6057 3.21993 15.6245C3.23409 15.6433 3.25386 15.6587 3.2791 15.6704C3.30441 15.6822 3.33834 15.6882 3.38083 15.6882C3.45539 15.6882 3.50672 15.6718 3.53512 15.639C3.56352 15.6062 3.57768 15.5548 3.57768 15.4848V14.9023H3.78654V15.4848C3.78654 15.6116 3.75059 15.7059 3.67877 15.7675Z" fill="#DA2A1C"/>
<path fill-rule="evenodd" clip-rule="evenodd" d="M4.54483 15.151C4.53239 15.1314 4.51693 15.1141 4.49831 15.0993C4.47962 15.0844 4.45855 15.0728 4.43511 15.0645C4.4116 15.0562 4.38701 15.052 4.36128 15.052C4.31433 15.052 4.27443 15.061 4.24157 15.0789C4.20879 15.0968 4.18218 15.1209 4.16184 15.151C4.14142 15.1812 4.12654 15.2156 4.11726 15.2541C4.10799 15.2925 4.10332 15.3323 4.10332 15.3734C4.10332 15.4128 4.10799 15.4511 4.11726 15.4882C4.12654 15.5254 4.14142 15.5588 4.16184 15.5886C4.18218 15.6183 4.20879 15.6421 4.24157 15.6601C4.27443 15.678 4.31433 15.687 4.36128 15.687C4.42512 15.687 4.47501 15.6678 4.51096 15.6293C4.54684 15.5907 4.56877 15.54 4.57675 15.4771H4.77892C4.7736 15.5356 4.75979 15.5886 4.73765 15.6358C4.7155 15.683 4.68624 15.7233 4.64994 15.7566C4.61356 15.7898 4.571 15.8151 4.52225 15.8326C4.47351 15.85 4.4198 15.8588 4.36128 15.8588C4.28859 15.8588 4.22324 15.8464 4.16515 15.8215C4.10705 15.7966 4.05809 15.7622 4.01819 15.7184C3.97829 15.6747 3.94773 15.6234 3.92645 15.5643C3.90517 15.5053 3.89453 15.4417 3.89453 15.3734C3.89453 15.3034 3.90517 15.2386 3.92645 15.1786C3.94773 15.1187 3.97829 15.0664 4.01819 15.0218C4.05809 14.9772 4.10705 14.9422 4.16515 14.9169C4.22324 14.8915 4.28859 14.8789 4.36128 14.8789C4.41362 14.8789 4.46301 14.8863 4.5096 14.9012C4.55611 14.916 4.59781 14.9377 4.63462 14.9661C4.67136 14.9945 4.70177 15.0297 4.72571 15.0717C4.74966 15.1137 4.76468 15.1617 4.77094 15.216H4.56877C4.56517 15.1923 4.55726 15.1707 4.54483 15.151Z" fill="#DA2A1C"/>
<path fill-rule="evenodd" clip-rule="evenodd" d="M5.10202 14.9023L5.49831 15.5306H5.50097V14.9023H5.69645V15.839H5.48767L5.09268 15.2119H5.09001V15.839H4.89453V14.9023H5.10202Z" fill="#DA2A1C"/>
<path fill-rule="evenodd" clip-rule="evenodd" d="M4.60229 16.3516C4.58489 16.3704 4.56699 16.389 4.5488 16.4071C4.2738 16.6782 3.89498 16.8456 3.47569 16.8456C3.05596 16.8456 2.67736 16.6782 2.40214 16.4071C2.12722 16.1358 1.95776 15.7622 1.95762 15.3483C1.95776 14.9345 2.12722 14.5607 2.40214 14.2895C2.67736 14.0183 3.05596 13.851 3.47569 13.8507C3.89498 13.851 4.2738 14.0183 4.5488 14.2895C4.58065 14.3207 4.6107 14.3534 4.63946 14.3875H5.25913C4.91431 13.7644 4.24432 13.3421 3.47411 13.3418C2.35146 13.3421 1.44155 14.2395 1.44141 15.3472C1.44155 16.4546 2.35146 17.3522 3.47411 17.3522C4.22563 17.3522 4.88196 16.9498 5.2336 16.3516H4.60229Z" fill="#DA2A1C"/>
<path fill-rule="evenodd" clip-rule="evenodd" d="M21.7211 11.7625C21.6979 11.8905 21.5997 11.9699 21.4796 11.9699C21.3049 11.9699 21.1903 11.8393 21.1903 11.6657C21.1903 11.5027 21.2994 11.3775 21.4769 11.3762C21.601 11.3762 21.702 11.4476 21.7198 11.5795H21.627C21.6133 11.5108 21.5547 11.4637 21.4769 11.4637C21.3622 11.4637 21.2994 11.5539 21.2994 11.6657C21.2994 11.7827 21.369 11.8824 21.4796 11.8824C21.5601 11.8824 21.6174 11.8325 21.627 11.7625H21.7211ZM21.4631 11.2497C21.2421 11.2497 21.0701 11.4206 21.0701 11.6657C21.0701 11.8945 21.2203 12.0816 21.4631 12.0816C21.6815 12.0816 21.8535 11.912 21.8535 11.6657C21.8535 11.4206 21.6815 11.2497 21.4631 11.2497ZM21.4631 12.1691C21.1697 12.1691 20.9609 11.9524 20.9609 11.6657C20.9609 11.3627 21.193 11.1621 21.4631 11.1621C21.7307 11.1621 21.9627 11.3627 21.9627 11.6657C21.9627 11.9685 21.7307 12.1691 21.4631 12.1691Z" fill="white"/>
</svg>
