<svg width="32" height="32" viewBox="0 0 32 32" fill="none" xmlns="http://www.w3.org/2000/svg">
<path d="M28 9.33366V22.667C28 26.667 26 29.3337 21.3333 29.3337H10.6667C6 29.3337 4 26.667 4 22.667V9.33366C4 5.33366 6 2.66699 10.6667 2.66699H21.3333C26 2.66699 28 5.33366 28 9.33366Z" stroke="white" stroke-width="2" stroke-miterlimit="10" stroke-linecap="round" stroke-linejoin="round"/>
<path d="M20.6663 2.66699V13.147C20.6663 13.7336 19.973 14.027 19.5463 13.6403L16.453 10.787C16.1997 10.547 15.7996 10.547 15.5463 10.787L12.453 13.6403C12.0264 14.027 11.333 13.7336 11.333 13.147V2.66699H20.6663Z" stroke="white" stroke-width="2" stroke-miterlimit="10" stroke-linecap="round" stroke-linejoin="round"/>
<path d="M17.667 18.667H23.3337" stroke="white" stroke-width="2" stroke-miterlimit="10" stroke-linecap="round" stroke-linejoin="round"/>
<path d="M12 24H23.3333" stroke="white" stroke-width="2" stroke-miterlimit="10" stroke-linecap="round" stroke-linejoin="round"/>
</svg>
