<svg width="24" height="24" viewBox="0 0 24 24" fill="none" xmlns="http://www.w3.org/2000/svg">
<path fill-rule="evenodd" clip-rule="evenodd" d="M21.9378 5.54939C22.2001 5.62502 22.4006 5.83723 22.4613 6.10342C22.6565 6.96025 22.75 7.91799 22.75 9.00003V15C22.75 17.5747 22.2395 19.5693 20.9127 20.908C20.7723 21.0497 20.5812 21.1296 20.3817 21.13C20.1822 21.1305 19.9907 21.0514 19.8497 20.9104L13.4697 14.5304C13.329 14.3897 13.25 14.1989 13.25 14C13.25 13.8011 13.329 13.6104 13.4697 13.4697L21.1997 5.73971C21.3927 5.54666 21.6754 5.47376 21.9378 5.54939ZM15.0607 14L20.3217 19.2611C20.9289 18.3252 21.25 16.9643 21.25 15V9.00003C21.25 8.5927 21.2356 8.21131 21.2073 7.85337L15.0607 14Z" fill="#91B93A"/>
<path fill-rule="evenodd" clip-rule="evenodd" d="M4.15533 4.15533C3.2398 5.07086 2.75 6.57397 2.75 9V15C2.75 16.9167 3.05795 18.2629 3.64147 19.1925C4.14893 20.001 4.90987 20.5652 6.04287 20.8965L20.8965 6.04288C20.5653 4.90989 20.001 4.14894 19.1925 3.64148C18.2629 3.05795 16.9167 2.75 15 2.75H9C6.57397 2.75 5.07086 3.2398 4.15533 4.15533ZM3.09467 3.09467C4.42914 1.7602 6.42603 1.25 9 1.25H15C17.0433 1.25 18.7171 1.57205 19.99 2.37102C21.2935 3.18925 22.0815 4.44655 22.4611 6.10242C22.5187 6.3541 22.4429 6.61776 22.2603 6.80033L6.80032 22.2603C6.61774 22.4429 6.35408 22.5187 6.10241 22.461C4.44654 22.0814 3.18924 21.2935 2.37102 19.99C1.57205 18.7171 1.25 17.0433 1.25 15V9C1.25 6.42603 1.7602 4.42914 3.09467 3.09467Z" fill="#91B93A"/>
<path fill-rule="evenodd" clip-rule="evenodd" d="M13.4692 13.4697C13.7621 13.1768 14.237 13.1768 14.5299 13.4697L20.9099 19.8497C21.051 19.9907 21.13 20.1822 21.1296 20.3817C21.1291 20.5812 21.0492 20.7723 20.9075 20.9127C19.5689 22.2395 17.5743 22.75 14.9996 22.75H8.99956C7.91751 22.75 6.95975 22.6565 6.10293 22.4613C5.83674 22.4006 5.62453 22.2001 5.5489 21.9378C5.47327 21.6754 5.54617 21.3927 5.73922 21.1997L13.4692 13.4697ZM7.85288 21.2073C8.21083 21.2356 8.59222 21.25 8.99956 21.25H14.9996C16.9638 21.25 18.3247 20.9289 19.2606 20.3217L13.9996 15.0607L7.85288 21.2073Z" fill="#91B93A"/>
<path fill-rule="evenodd" clip-rule="evenodd" d="M9.12036 6.53247C8.1244 6.53247 7.21631 7.09228 6.97094 8.14953L6.97086 8.14986C6.66811 9.45169 7.48085 10.6481 8.3955 11.5149C8.80869 11.9038 9.44417 11.8985 9.84193 11.518L9.84454 11.5155L9.84454 11.5155C10.7555 10.6525 11.5645 9.45377 11.2694 8.14771C11.0234 7.09164 10.1158 6.53247 9.12036 6.53247ZM9.12036 5.03247C10.6644 5.03247 12.2963 5.93766 12.7309 7.81042L12.7318 7.81412L12.7318 7.81412C13.2153 9.94649 11.8658 11.6665 10.8773 12.6033C9.89522 13.5413 8.3522 13.5356 7.36586 12.6057L7.36456 12.6044C6.37954 11.6713 5.01282 9.94811 5.50977 7.81042M9.12036 5.03247C7.57641 5.03247 5.9446 5.93756 5.50985 7.81009Z" fill="#91B93A"/>
<path fill-rule="evenodd" clip-rule="evenodd" d="M8.09375 8.69995C8.09375 8.14767 8.54147 7.69995 9.09375 7.69995H9.10273C9.65502 7.69995 10.1027 8.14767 10.1027 8.69995C10.1027 9.25224 9.65502 9.69995 9.10273 9.69995H9.09375C8.54147 9.69995 8.09375 9.25224 8.09375 8.69995Z" fill="#91B93A"/>
</svg>
