<svg width="32" height="29" viewBox="0 0 32 29" fill="none" xmlns="http://www.w3.org/2000/svg">
<path d="M22.6585 4.71094H9.32521C4.21854 4.71094 2.79188 5.79485 2.67188 10.0127C5.24521 10.0127 7.32521 11.8624 7.32521 14.1363C7.32521 16.4102 5.24521 18.2481 2.67188 18.2599C2.79188 22.4777 4.21854 23.5616 9.32521 23.5616H22.6585C27.9919 23.5616 29.3252 22.3835 29.3252 17.6708V10.6018C29.3252 5.88911 27.9919 4.71094 22.6585 4.71094Z" stroke="white" stroke-width="2" stroke-linecap="round" stroke-linejoin="round"/>
<path d="M11.9922 4.71094V8.83453" stroke="white" stroke-width="2" stroke-linecap="round" stroke-linejoin="round"/>
<path d="M11.9922 19.4414V23.565" stroke="white" stroke-width="2" stroke-linecap="round" stroke-linejoin="round"/>
<path d="M20.0321 10.9927L20.8587 12.4654C20.9387 12.6068 21.0987 12.7128 21.2721 12.7364L23.1121 12.972C23.5654 13.0309 23.7521 13.5257 23.4187 13.8085L22.0854 14.9513C21.9521 15.0574 21.8987 15.2223 21.9254 15.3872L22.2454 17.0013C22.3254 17.4019 21.8454 17.7082 21.4454 17.5197L19.8054 16.7539C19.6454 16.6832 19.4454 16.6832 19.2854 16.7539L17.6454 17.5197C17.2321 17.7082 16.7654 17.4019 16.8454 17.0013L17.1654 15.3872C17.1921 15.2223 17.1387 15.0691 17.0054 14.9513L15.6854 13.8085C15.3521 13.5257 15.5387 13.0309 15.9921 12.972L17.8321 12.7364C18.0187 12.7128 18.1654 12.6185 18.2454 12.4654L19.0587 10.9927C19.2454 10.6274 19.8321 10.6274 20.0321 10.9927Z" stroke="white" stroke-width="2" stroke-linecap="round" stroke-linejoin="round"/>
</svg>
