<svg width="80" height="80" viewBox="0 0 80 80" fill="none" xmlns="http://www.w3.org/2000/svg">
<path d="M80 40C80 62.0914 62.0914 80 40 80C17.9086 80 0 62.0914 0 40C0 17.9086 17.9086 0 40 0C62.0914 0 80 17.9086 80 40Z" fill="#C8102E"/>
<path d="M42.8636 28.7273L42.2727 44.7273H37.0909L36.5 28.7273H42.8636ZM39.6818 52.3636C38.803 52.3636 38.0492 52.0568 37.4205 51.4432C36.7992 50.822 36.4924 50.0682 36.5 49.1818C36.4924 48.3182 36.7992 47.5795 37.4205 46.9659C38.0492 46.3523 38.803 46.0455 39.6818 46.0455C40.5152 46.0455 41.25 46.3523 41.8864 46.9659C42.5303 47.5795 42.8561 48.3182 42.8636 49.1818C42.8561 49.7727 42.7008 50.3106 42.3977 50.7955C42.1023 51.2727 41.7159 51.6553 41.2386 51.9432C40.7614 52.2235 40.2424 52.3636 39.6818 52.3636Z" fill="white"/>
</svg>
